<?xml version="1.0" encoding="iso-8859-1"?>
<!-- Generator: Adobe Illustrator 15.0.0, SVG Export Plug-In . SVG Version: 6.00 Build 0)  -->
<!DOCTYPE svg PUBLIC "-//W3C//DTD SVG 1.1//EN" "http://www.w3.org/Graphics/SVG/1.1/DTD/svg11.dtd">
<svg version="1.1" id="&#x30EC;&#x30A4;&#x30E4;&#x30FC;_1"
	 xmlns="http://www.w3.org/2000/svg" xmlns:xlink="http://www.w3.org/1999/xlink" x="0px" y="0px" width="1000px" height="1000px"
	 viewBox="0 0 1000 1000" style="enable-background:new 0 0 1000 1000;" xml:space="preserve">
<circle style="fill:none;stroke:#000000;stroke-width:4;stroke-miterlimit:10;" cx="500" cy="500" r="475"/>
<circle style="fill:none;stroke:#000000;stroke-width:4;stroke-miterlimit:10;" cx="500" cy="500" r="467.392"/>
<g>
	<path style="fill:#000000;" d="M890.902,350.161l-3.914,29.171l57.294-19.572l1.703,4.985l-63.144,21.57l-1.703-4.985l0.066-0.023
		l3.849-29.148L890.902,350.161z"/>
	<path style="fill:#000000;" d="M922.95,304.753l-12.514,16.068l20.296,1.688l2.453,5.597l-26.719-2.169l-14.193,18.185
		l-26.547-3.702l15.268-22.031l22.991,1.886l16.511-21.119L922.95,304.753z M900.016,325.39l-16.539-1.34l-8.937,12.506
		l15.253,1.904L900.016,325.39z"/>
	<path style="fill:#000000;" d="M856.051,319.59l10.03-33.083l13.708,10.546l22.507-32.177l2.511,4.632l-23.214,34.558
		l-12.871-9.003l-6.333,21.332l52.428-28.422l2.544,4.693l-58.665,31.804l-1.573-2.902l-0.971-1.791L856.051,319.59z"/>
	<path style="fill:#000000;" d="M895.721,254.238l2.888,4.406l-55.771,36.632l-2.926-4.465l0.881-0.578l13.59-21.166l-25.159,3.639
		l-0.822,0.539l-2.926-4.465l55.848-36.514l2.887,4.406l-46.841,30.78l24.711-3.682l-13.238,21.188L895.721,254.238z"/>
	<path style="fill:#000000;" d="M805.166,242.638l52.592-41.082l2.681,3.433l-14.56,11.373l-8.293,20.651l22.348-2.659
		l14.603-11.317l2.681,3.432l-52.591,41.081l-2.681-3.432l9.171-21.694l-23.226,3.702L805.166,242.638z M839.679,221.205
		l-24.911,19.459l17.861-2.81L839.679,221.205z M835.872,242.006l-7.008,16.705l24.968-19.503L835.872,242.006z"/>
	<path style="fill:#000000;" d="M768.52,204.999l45.197-49.097l3.877,3.568l-45.198,49.098L768.52,204.999z"/>
	<path style="fill:#000000;" d="M757.565,194.961l-10-30.041l-10.788,13.859l-4.157-3.236l17.261-22.174l10,30.041l28.049-36.033
		l-31.576-2.323l17.261-22.174l4.157,3.236l-10.788,13.859l31.576,2.323L757.565,194.961z"/>
	<path style="fill:#000000;" d="M745.064,143.864l-0.098,0.02l-29.125-3.579l25.483-38.902l4.412,2.88l-20.548,31.47l29.126,3.579
		l-22.947,35.273l-4.47-2.919L745.064,143.864z"/>
	<path style="fill:#000000;" d="M696.557,152.692l-7.25-18.363l4.078-26.776l13.549-25.096l4.018,2.169l-13.148,24.354
		l-3.828,24.836l6.234,15.659l0.742,0.401l29.533-54.705l4.697,2.536l-31.702,58.723L696.557,152.692z"/>
	<path style="fill:#000000;" d="M645.327,128.052l26.687-61.158l3.991,1.742l-7.388,16.931l2.538,22.106l18.384-12.976l7.453-16.903
		l3.991,1.742l-26.688,61.158l-3.991-1.742l-2.263-23.441l-18.659,14.312L645.327,128.052z M665.471,92.777l-12.642,28.969
		l14.368-10.973L665.471,92.777z M672.025,112.88l1.791,18.024l12.669-29.034L672.025,112.88z"/>
	<path style="fill:#000000;" d="M586.687,110.363l-4.292-1.076l16.221-64.724l4.292,1.076l4.43,29.133l17.713-23.583l4.156,1.042
		l-16.152,64.741l-4.225-1.059l-4.327-29.542l-17.747,24.009L586.687,110.363z M600.125,56.745l-10.348,41.577l13.741-18.424
		L600.125,56.745z M608.338,81.178l3.548,22.829l10.467-41.764L608.338,81.178z"/>
	<path style="fill:#000000;" d="M566.409,38.973l6.683,19.237l12.449-16.116l6.031,0.983l-16.346,21.246l7.546,21.797
		l-17.539,20.268l-10.189-24.791l14.082-18.27l-8.748-25.338L566.409,38.973z M571.26,69.439l-10.115,13.152l5.638,14.299
		l9.89-11.766L571.26,69.439z"/>
	<path style="fill:#000000;" d="M518.013,81.873l25.226,15.166l4.761-60.359l5.252,0.414l-5.247,66.521l-5.252-0.414l0.006-0.07
		l-25.231-15.095L518.013,81.873z"/>
	<path style="fill:#000000;" d="M488.678,34.521l9.984,17.752l9.401-18.068l6.11-0.1l-12.328,23.806l11.288,20.12l-13.676,23.056
		L485.039,78.49l10.626-20.477l-13.097-23.393L488.678,34.521z M498.848,63.652l-7.628,14.737l8.082,13.076l7.652-13.333
		L498.848,63.652z"/>
	<path style="fill:#000000;" d="M476.156,101.656l-26.311-22.428l15.15-8.345l-20.489-33.501l5.25-0.448l22.388,35.101l-13.4,8.196
		l17.018,14.338l-5.078-59.423l5.319-0.455l5.682,66.492l-3.29,0.281l-2.03,0.173L476.156,101.656z"/>
	<path style="fill:#000000;" d="M403.241,78.593l-0.05,0.085l-22.32,19.045l-11.448-45.069l5.104-1.305l9.306,36.409l22.32-19.045
		l10.487,40.747l-5.172,1.322L403.241,78.593z"/>
	<path style="fill:#000000;" d="M367.029,123.771L345.14,60.729l4.977-1.728l21.889,63.042L367.029,123.771z"/>
	<path style="fill:#000000;" d="M314.884,120.632l17.43,6.707l-23.186-52.189l4.814-2.139l23.157,52.125l6.671-17.337l2.852,6.419
		l-8.027,20.86l-20.86-8.027L314.884,120.632z"/>
	<path style="fill:#000000;" d="M257.208,159.083l29.223-3.54l-6.615-10.027l-29.34,3.617l-2.938-4.71l29.223-3.54l-23.673-35.888
		l4.398-2.901l36.747,55.708l-4.398,2.901l-0.039-0.059l-29.185,3.599L257.208,159.083z"/>
	<path style="fill:#000000;" d="M241.711,195.616l-41.241-52.46l3.424-2.691l11.417,14.523l20.675,8.229l-2.728-22.337
		l-11.362-14.567l3.423-2.691l41.241,52.46l-3.423,2.691l-21.721-9.104l3.773,23.212L241.711,195.616z M220.173,161.172
		l19.535,24.85l-2.865-17.851L220.173,161.172z M240.985,164.915l16.725,6.955l-19.578-24.905L240.985,164.915z"/>
	<path style="fill:#000000;" d="M191.036,151.459l3.859-3.586l45.481,48.832l-3.911,3.634l-0.717-0.771l-23.149-9.843l7.813,24.193
		l0.669,0.721l-3.91,3.634l-45.379-48.928l3.859-3.587l38.213,41.012l-7.78-23.745l23.113,9.494L191.036,151.459z"/>
	<path style="fill:#000000;" d="M177.881,227.342l18.655-0.863l-42.203-38.469l3.549-3.893l42.151,38.422l-0.859-18.556l5.191,4.731
		l1.033,22.327l-22.326,1.033L177.881,227.342z"/>
	<path style="fill:#000000;" d="M85.402,287.659l28.912-4.424l-20.615-11.052l2.489-4.643l58.81,31.528l-2.489,4.643l-31.695-16.992
		l-38.598,6.883L85.402,287.659z"/>
	<path style="fill:#000000;" d="M68.763,323.783l20.289-1.784l-12.59-16.009l2.427-5.609l16.613,21.041l22.982-1.996l15.374,21.959
		l-26.531,3.828l-14.28-18.118l-26.71,2.297L68.763,323.783z M99.496,326.518l10.285,13.022l15.244-1.977l-8.996-12.464
		L99.496,326.518z"/>
	<path style="fill:#000000;" d="M92.52,366.161l-34.952-11.752l1.679-4.993l37.415,12.581l8.462-8.418l5.792,1.947l-8.329,8.463
		l19.905,6.693l-1.679,4.993l-22.436-7.544l-8.396,8.44l-5.858-1.97L92.52,366.161z"/>
	<path style="fill:#000000;" d="M82.891,386.074l0.051,0.085l6.282,28.661L44.078,403.68l1.254-5.117l36.499,8.947l-6.282-28.661
		l40.882,9.949l-1.271,5.185L82.891,386.074z"/>
	<path style="fill:#000000;" d="M41.793,415.985l0.823-5.204l65.924,10.353l-0.834,5.273l-1.041-0.165l-24.29,6.542L103.454,447
		l0.971,0.154l-0.834,5.273L37.69,441.934l0.823-5.204l55.377,8.686l-20.775-13.881l24.045-6.794L41.793,415.985z"/>
	<path style="fill:#000000;" d="M35.032,473.5l24.621-15.791l-23.328-1.723l0.388-5.254l66.55,4.914l-0.388,5.254l-35.867-2.648
		l-32.473,21.973L35.032,473.5z"/>
	<path style="fill:#000000;" d="M78.533,518.887l12.989-13.419l-57.102,0.93l-0.086-5.268l57.032-0.929l-13.348-12.92l7.023-0.115
		l16.061,15.546l-15.546,16.061L78.533,518.887z"/>
	<path style="fill:#000000;" d="M35.305,531.784l-0.476-5.247l66.457-6.1l0.482,5.316l-1.049,0.096l-21.951,12.29l23.918,8.622
		l0.979-0.089l0.482,5.316l-66.47,5.961l-0.476-5.247l55.823-5.136l-23.543-8.374l21.651-12.475L35.305,531.784z"/>
	<path style="fill:#000000;" d="M87.292,588.597l10.723-15.289l-56.246,9.874l-0.911-5.188l56.177-9.862l-15.208-10.666l6.918-1.215
		l18.299,12.833l-12.833,18.3L87.292,588.597z"/>
	<path style="fill:#000000;" d="M112.1,593.854l-8.448,17.845l-22.333,15.329l-27.581,7.267l-1.163-4.416l26.765-7.052
		l20.745-14.184l7.168-15.256l-0.215-0.815l-60.12,15.841l-1.36-5.163l64.535-17.004L112.1,593.854z"/>
	<path style="fill:#000000;" d="M120.445,623.585l-15.026,31.138l-11.914-12.54l-27.214,28.313l-1.765-4.965l28.281-30.556
		l11.325,10.886l9.557-20.098l-56.198,19.977l-1.788-5.031l62.883-22.353l1.106,3.111l0.682,1.92L120.445,623.585z"/>
	<path style="fill:#000000;" d="M141.583,716.209l-1.307-29.402l-10.5,5.831l1.375,29.526l-4.919,2.571l-1.307-29.403
		l-37.578,20.871l-2.558-4.604l58.331-32.398l2.558,4.605l-0.062,0.034l1.368,29.368L141.583,716.209z"/>
	<path style="fill:#000000;" d="M174.413,730.813l2.463,3.676l-55.432,37.138l-2.463-3.676l16.249-24.581l-28.954,5.617
		l-2.385-3.559l55.393-37.197l2.424,3.618l-16.598,24.816l29.264-5.911L174.413,730.813z M138.782,737.945l12.676-19.314
		l-35.768,23.965L138.782,737.945z M128.492,761.578l35.554-23.905l-22.547,4.454L128.492,761.578z"/>
	<path style="fill:#000000;" d="M189.292,750.215l-52.17,41.603l-3.285-4.118l52.171-41.604L189.292,750.215z"/>
	<path style="fill:#000000;" d="M198.583,761.809l5.295,31.21l12.775-12.047l3.614,3.833l-20.44,19.274l-5.295-31.21l-33.216,31.322
		l30.845,7.116l-20.44,19.274l-3.614-3.832l12.775-12.047l-30.845-7.116L198.583,761.809z"/>
	<path style="fill:#000000;" d="M235.116,798.279l-44.604,49.634l-3.918-3.521l44.604-49.634L235.116,798.279z"/>
	<path style="fill:#000000;" d="M230.278,837.815l0.098-0.013l28.796,5.629l-28.168,36.999l-4.196-3.186l22.719-29.935l-28.796-5.63
		l25.381-33.559l4.252,3.228L230.278,837.815z"/>
	<path style="fill:#000000;" d="M288.208,838.119l-35.791,56.316l-4.446-2.825l35.79-56.316L288.208,838.119z"/>
	<path style="fill:#000000;" d="M291.468,916.527l-4.694-28.868l-10.858,20.716l-4.666-2.445l30.978-59.1l4.666,2.445
		l-16.695,31.852l7.242,38.53L291.468,916.527z"/>
	<path style="fill:#000000;" d="M347.144,868.589l-25.933,61.492l-4.854-2.048l25.933-61.491L347.144,868.589z"/>
	<path style="fill:#000000;" d="M369.899,908.683l-11.432,35.063l-5.009-1.633l12.237-37.535l-8.497-8.385l1.894-5.811l8.541,8.252
		l6.511-19.97l5.009,1.633l-7.338,22.508l8.519,8.318l-1.916,5.878L369.899,908.683z"/>
	<path style="fill:#000000;" d="M377.089,949.537l11.546-16.55l-2.19-15.526l8.843-14.876l-2.495-17.907l4.718,1.11l4.139,28.397
		l16.374-23.567l4.854,1.143l-11.425,16.65l2.042,14.625l-8.46,14.173l2.825,19.572l-5.128-1.208l-4.059-28.738l-16.454,23.909
		L377.089,949.537z M392.562,927.345l5.162-7.517l-1.27-9.319l-4.88,8.16L392.562,927.345z M402.682,921.14l1.431,9.862l4.896-8.229
		l-1.382-8.841L402.682,921.14z"/>
	<path style="fill:#000000;" d="M457.748,963.872l-5.256-0.351l4.366-66.584l5.326,0.354l-0.07,1.052l8.705,23.599l12.254-22.272
		l0.065-0.981l5.326,0.354l-4.506,66.575l-5.256-0.351l3.656-55.931l-11.951,21.94l-8.934-23.332L457.748,963.872z"/>
	<path style="fill:#000000;" d="M521.941,917.917l-26.553-12.705l0.987,60.544l-5.268,0.086l-1.087-66.725l5.268-0.086l0.001,0.07
		l26.551,12.635L521.941,917.917z"/>
	<path style="fill:#000000;" d="M541.518,896.774l6.494,66.42l-5.243,0.513l-6.494-66.42L541.518,896.774z"/>
	<path style="fill:#000000;" d="M591.488,912.081l-15.364-10.619l10.26,56.184l-5.184,0.946l-10.246-56.114l-10.563,15.282
		l-1.262-6.91l12.71-18.389l18.388,12.71L591.488,912.081z"/>
	<path style="fill:#000000;" d="M670.139,897.505l0.034-0.093l18.548-22.739l19.341,42.293l-4.788,2.198l-15.683-34.155
		l-18.548,22.739l-17.621-38.213l4.852-2.228L670.139,897.505z"/>
	<path style="fill:#000000;" d="M719.124,911.105l-4.588,2.59l-32.865-58.08l4.648-2.624l0.519,0.918l20.223,14.962l-1.967-25.348
		l-0.483-0.856l4.649-2.625l32.742,58.148l-4.588,2.59l-27.616-48.781l2.038,24.904l-20.268-14.614L719.124,911.105z"/>
	<path style="fill:#000000;" d="M733.07,823.954l3.659-2.489l37.53,55.187l-3.66,2.488L745.9,863.059l5.82,28.92l-3.544,2.41
		l-37.588-55.146l3.602-2.449l24.937,16.43l-6.115-29.229L733.07,823.954z M740.451,859.543l-19.405-12.544l24.217,35.608
		L740.451,859.543z M764.16,869.671l-24.156-35.396l4.611,22.521L764.16,869.671z"/>
	<path style="fill:#000000;" d="M782.984,781.353l3.205-3.053l46.024,48.329l-3.205,3.053l-26.99-11.84l10.457,27.585l-3.104,2.955
		l-46.075-48.281l3.154-3.003l27.281,12.145L782.934,781.4L782.984,781.353z M796.069,815.262l-21.19-9.213l29.697,31.185
		L796.069,815.262z M821.112,821.389l-29.604-30.983l8.221,21.468L821.112,821.389z"/>
	<path style="fill:#000000;" d="M854.163,802.458l-19.825-4.665l6.938,19.147l-4.063,4.565l-9.181-25.187l-22.449-5.308
		l-7.716-25.67l26.393,4.68l7.882,21.681l26.083,6.19L854.163,802.458z M825.838,790.229l-5.686-15.589l-15.095-2.9l4.636,14.655
		L825.838,790.229z"/>
	<path style="fill:#000000;" d="M888.22,757.423l-2.813,4.455l-56.47-35.558l2.85-4.514l0.891,0.562l24.898,3.587l-13.748-21.386
		l-0.831-0.524l2.85-4.515l56.395,35.676l-2.812,4.455l-47.441-29.858l13.602,20.961l-24.773-3.259L888.22,757.423z"/>
	<path style="fill:#000000;" d="M855.147,681.867l59.201,30.804l-2.432,4.674l-59.201-30.804L855.147,681.867z"/>
	<path style="fill:#000000;" d="M864.995,661.457l17.557-9.028l27.047,1.413l26.311,11.002l-1.762,4.212l-25.533-10.677
		l-25.091-1.356l-14.966,7.751l-0.325,0.777l57.352,23.983l-2.06,4.925l-61.564-25.744L864.995,661.457z"/>
	<path style="fill:#000000;" d="M907.979,643.248l-0.045-0.089l-4.21-29.038l44.232,14.35l-1.618,5.014l-35.764-11.543l4.209,29.038
		l-40.064-12.856l1.641-5.081L907.979,643.248z"/>
	<path style="fill:#000000;" d="M892.044,575.727l64.999,15.091l-0.984,4.242l-17.995-4.178l-21.272,6.526l16.11,15.71l17.979,4.246
		l-0.984,4.242l-65-15.09l0.985-4.242l22.637-6.499l-17.475-15.738L892.044,575.727z M911.829,599.213l-17.396,5.047l30.857,7.164
		L911.829,599.213z M930.4,589.103l-30.789-7.148l13.409,12.127L930.4,589.103z"/>
	<path style="fill:#000000;" d="M962.099,558.435l-19.124,7.015l16.332,12.173l-0.881,6.048l-21.527-15.981l-21.669,7.921
		l-20.57-17.191l24.617-10.616l18.513,13.769l25.189-9.184L962.099,558.435z M931.713,563.81l-13.327-9.89l-14.202,5.884
		l11.937,9.688L931.713,563.81z"/>
	<path style="fill:#000000;" d="M898.808,514.03l0.271-4.417l66.608,4.103l-0.271,4.417l-27.834,9.688l26.431,13.1l-0.264,4.277
		l-66.612-4.032l0.268-4.348l28.254-9.661l-26.855-13.056L898.808,514.03z M931.467,529.978l-21.797,7.666l42.979,2.647
		L931.467,529.978z M953.987,517.429l-42.774-2.563l20.631,10.139L953.987,517.429z"/>
</g>
<circle style="fill:none;stroke:#000000;stroke-width:4;stroke-miterlimit:10;" cx="500" cy="500" r="398.043"/>
<circle style="fill:none;stroke:#000000;stroke-width:2;stroke-miterlimit:10;" cx="500" cy="500" r="387.174"/>
<circle style="fill:none;stroke:#000000;stroke-width:2;stroke-miterlimit:10;" cx="500" cy="500" r="382.826"/>
<polygon style="fill:none;stroke:#000000;stroke-width:2;stroke-miterlimit:10;" points="369.053,860 168.431,691.545 
	122.954,433.573 253.901,206.739 500,117.152 746.1,206.718 877.046,433.52 831.568,691.547 630.946,860 "/>
<polygon style="fill:none;stroke:#000000;stroke-width:2;stroke-miterlimit:10;" points="418.654,873.914 197.761,733.087 
	119,483.258 219.219,241.272 451.52,120.33 707.204,177.007 866.634,384.777 855.225,646.532 678.307,839.73 "/>
<polygon style="fill:none;stroke:#000000;stroke-width:2;stroke-miterlimit:10;" points="468.544,880.117 231.866,769.657 
	121.5,532.953 189.074,280.708 402.961,130.926 663.081,153.677 847.714,338.309 870.5,598.537 720.761,812.536 "/>
<circle style="fill:none;stroke:#000000;stroke-width:2;stroke-miterlimit:10;" cx="500" cy="500" r="355.651"/>
<polygon style="fill:none;stroke:#000000;stroke-width:5;stroke-miterlimit:10;" points="500,148.089 195.5,675.5 804.499,675.5 
	500,148.088 195.5,675.5 804.5,675.5 "/>
<polygon style="fill:none;stroke:#000000;stroke-width:5;stroke-miterlimit:10;" points="500,850.911 195.5,323.5 804.499,323.5 
	500,850.912 195.5,323.5 804.5,323.5 "/>
</svg>
