<?xml version="1.0" encoding="utf-8"?>
<!-- Generator: Adobe Illustrator 15.0.0, SVG Export Plug-In . SVG Version: 6.00 Build 0)  -->
<!DOCTYPE svg PUBLIC "-//W3C//DTD SVG 1.1//EN" "http://www.w3.org/Graphics/SVG/1.1/DTD/svg11.dtd">
<svg version="1.1" id="レイヤー_1" xmlns="http://www.w3.org/2000/svg" xmlns:xlink="http://www.w3.org/1999/xlink" x="0px"
	 y="0px" width="1000px" height="1000px" viewBox="0 0 1000 1000" enable-background="new 0 0 1000 1000" xml:space="preserve">
<g>
	<g>
		<path d="M540.78,33.865L500,68.084L460.369,34.83l-1.149-0.964L331.859,185.647c2.308-1.237,4.631-2.451,6.969-3.638
			L459.589,38.092l38.077,31.951l-108.609,91.134c2.478-0.811,4.967-1.592,7.468-2.35L500,72.001l103.475,86.825
			c2.5,0.758,4.991,1.54,7.468,2.351L502.334,70.042l38.077-31.951L661.174,182.01c2.338,1.188,4.661,2.401,6.97,3.638
			L541.745,35.014L540.78,33.865z M185.648,331.858L35.014,458.255l-1.149,0.964L68.084,500L34.83,539.632l-0.964,1.148
			l151.783,127.361c-1.237-2.308-2.45-4.63-3.638-6.969L38.092,540.411l31.951-38.077l91.135,108.609
			c-0.811-2.478-1.592-4.968-2.35-7.469L72.001,500l86.826-103.475c0.757-2.501,1.539-4.991,2.35-7.468L70.042,497.667
			l-31.951-38.077L182.01,338.827C183.198,336.489,184.411,334.166,185.648,331.858z M965.171,460.369l0.964-1.149L814.352,331.858
			c1.237,2.308,2.451,4.631,3.639,6.969l143.918,120.762l-31.95,38.077l-91.136-108.61c0.812,2.478,1.593,4.968,2.351,7.47
			L927.999,500l-86.826,103.476c-0.758,2.501-1.54,4.991-2.351,7.469l91.136-108.61l31.95,38.077l-143.92,120.763
			c-1.187,2.339-2.4,4.661-3.638,6.969l150.635-126.397l1.149-0.965L931.916,500L965.171,460.369z M540.411,961.907l-38.077-31.95
			l108.61-91.136c-2.478,0.812-4.968,1.593-7.469,2.351L500,927.998l-103.476-86.826c-2.5-0.758-4.991-1.539-7.468-2.351
			l108.61,91.136l-38.077,31.95L338.827,817.988c-2.338-1.188-4.661-2.4-6.969-3.638L459.22,966.134L500,931.915l39.632,33.255
			l1.148,0.964l127.362-151.783c-2.309,1.237-4.631,2.45-6.969,3.638L540.411,961.907z"/>
	</g>
</g>
<path d="M500,848.735c-93.151,0-180.726-36.274-246.594-102.142C187.539,680.726,151.264,593.15,151.264,500
	s36.275-180.726,102.143-246.594S406.849,151.263,500,151.263c93.151,0,180.727,36.275,246.594,102.143
	C812.462,319.273,848.736,406.849,848.736,500s-36.274,180.727-102.143,246.594C680.727,812.461,593.151,848.735,500,848.735z
	 M500,153.263c-191.191,0-346.736,155.545-346.736,346.736S308.809,846.735,500,846.735c191.191,0,346.736-155.545,346.736-346.736
	S691.191,153.263,500,153.263z"/>
<path d="M500,842.127c-91.386,0-177.302-35.587-241.921-100.206C193.459,677.301,157.872,591.386,157.872,500
	c0-91.386,35.587-177.301,100.207-241.921S408.614,157.872,500,157.872s177.302,35.587,241.921,100.207S842.128,408.614,842.128,500
	c0,91.386-35.588,177.302-100.207,241.921S591.386,842.127,500,842.127z M500,161.872c-186.444,0-338.128,151.684-338.128,338.128
	c0,186.444,151.684,338.127,338.128,338.127S838.128,686.443,838.128,500C838.128,313.555,686.444,161.872,500,161.872z"/>
<circle fill="none" cx="500" cy="500" r="340.128"/>
<text transform="matrix(-0.3866 0.9222 -0.9222 -0.3866 189.0864 361.6738)"><tspan x="0" y="0" font-family="'RuneAMN_SansHumanicLike'" font-size="30">L</tspan><tspan x="15.702" y="-0.016" font-family="'RuneAMN_SansHumanicLike'" font-size="30" rotate="-2.663">o</tspan><tspan x="31.36" y="-0.76" font-family="'RuneAMN_SansHumanicLike'" font-size="30" rotate="-5.324">r</tspan><tspan x="46.952" y="-2.229" font-family="'RuneAMN_SansHumanicLike'" font-size="30" rotate="-7.982">e</tspan><tspan x="62.486" y="-4.423" font-family="'RuneAMN_SansHumanicLike'" font-size="30" rotate="-10.643">m</tspan><tspan x="77.907" y="-7.338" font-family="'RuneAMN_SansHumanicLike'" font-size="30" rotate="-13.298"> </tspan><tspan x="93.162" y="-10.96" font-family="'RuneAMN_SansHumanicLike'" font-size="30" rotate="-15.942">i</tspan><tspan x="108.232" y="-15.281" font-family="'RuneAMN_SansHumanicLike'" font-size="30" rotate="-18.57">p</tspan><tspan x="123.062" y="-20.279" font-family="'RuneAMN_SansHumanicLike'" font-size="30" rotate="-21.175">s</tspan><tspan x="137.549" y="-25.905" font-family="'RuneAMN_SansHumanicLike'" font-size="30" rotate="-23.744">u</tspan><tspan x="151.837" y="-32.204" font-family="'RuneAMN_SansHumanicLike'" font-size="30" rotate="-26.338">m</tspan><tspan x="165.877" y="-39.172" font-family="'RuneAMN_SansHumanicLike'" font-size="30" rotate="-28.963"> </tspan><tspan x="179.584" y="-46.776" font-family="'RuneAMN_SansHumanicLike'" font-size="30" rotate="-31.602">d</tspan><tspan x="192.908" y="-54.99" font-family="'RuneAMN_SansHumanicLike'" font-size="30" rotate="-34.249">o</tspan><tspan x="205.872" y="-63.836" font-family="'RuneAMN_SansHumanicLike'" font-size="30" rotate="-36.909">l</tspan><tspan x="218.4" y="-73.265" font-family="'RuneAMN_SansHumanicLike'" font-size="30" rotate="-39.571">o</tspan><tspan x="230.476" y="-83.265" font-family="'RuneAMN_SansHumanicLike'" font-size="30" rotate="-42.232">r</tspan><tspan x="242.078" y="-93.819" font-family="'RuneAMN_SansHumanicLike'" font-size="30" rotate="-44.893"> </tspan><tspan x="253.179" y="-104.901" font-family="'RuneAMN_SansHumanicLike'" font-size="30" rotate="-47.55">s</tspan><tspan x="263.738" y="-116.467" font-family="'RuneAMN_SansHumanicLike'" font-size="30" rotate="-50.199">i</tspan><tspan x="273.763" y="-128.525" font-family="'RuneAMN_SansHumanicLike'" font-size="30" rotate="-52.846">t</tspan><tspan x="283.218" y="-141.028" font-family="'RuneAMN_SansHumanicLike'" font-size="30" rotate="-55.486"> </tspan><tspan x="292.089" y="-153.954" font-family="'RuneAMN_SansHumanicLike'" font-size="30" rotate="-58.121">a</tspan><tspan x="300.358" y="-167.282" font-family="'RuneAMN_SansHumanicLike'" font-size="30" rotate="-60.753">m</tspan><tspan x="308.001" y="-180.961" font-family="'RuneAMN_SansHumanicLike'" font-size="30" rotate="-63.379">e</tspan><tspan x="315.018" y="-194.996" font-family="'RuneAMN_SansHumanicLike'" font-size="30" rotate="-66.006">t</tspan><tspan x="321.37" y="-209.303" font-family="'RuneAMN_SansHumanicLike'" font-size="30" rotate="-68.626"> </tspan><tspan x="327.062" y="-223.889" font-family="'RuneAMN_SansHumanicLike'" font-size="30" rotate="-71.247">c</tspan><tspan x="332.093" y="-238.757" font-family="'RuneAMN_SansHumanicLike'" font-size="30" rotate="-73.877">o</tspan><tspan x="336.432" y="-253.824" font-family="'RuneAMN_SansHumanicLike'" font-size="30" rotate="-76.507">n</tspan><tspan x="340.074" y="-269.063" font-family="'RuneAMN_SansHumanicLike'" font-size="30" rotate="-79.139">s</tspan><tspan x="343.01" y="-284.45" font-family="'RuneAMN_SansHumanicLike'" font-size="30" rotate="-81.776">e</tspan><tspan x="345.239" y="-299.991" font-family="'RuneAMN_SansHumanicLike'" font-size="30" rotate="-84.423">c</tspan><tspan x="346.747" y="-315.597" font-family="'RuneAMN_SansHumanicLike'" font-size="30" rotate="-87.073">t</tspan><tspan x="347.531" y="-331.242" font-family="'RuneAMN_SansHumanicLike'" font-size="30" rotate="-89.726">e</tspan><tspan x="347.593" y="-346.905" font-family="'RuneAMN_SansHumanicLike'" font-size="30" rotate="-92.382">t</tspan><tspan x="346.923" y="-362.591" font-family="'RuneAMN_SansHumanicLike'" font-size="30" rotate="-95.047">u</tspan><tspan x="345.527" y="-378.213" font-family="'RuneAMN_SansHumanicLike'" font-size="30" rotate="-97.709">r</tspan><tspan x="343.408" y="-393.747" font-family="'RuneAMN_SansHumanicLike'" font-size="30" rotate="-100.369"> </tspan><tspan x="340.569" y="-409.172" font-family="'RuneAMN_SansHumanicLike'" font-size="30" rotate="-103.023">a</tspan><tspan x="337.025" y="-424.432" font-family="'RuneAMN_SansHumanicLike'" font-size="30" rotate="-105.665">d</tspan><tspan x="332.776" y="-439.523" font-family="'RuneAMN_SansHumanicLike'" font-size="30" rotate="-108.295">i</tspan><tspan x="327.837" y="-454.411" font-family="'RuneAMN_SansHumanicLike'" font-size="30" rotate="-110.909">p</tspan><tspan x="322.242" y="-469.071" font-family="'RuneAMN_SansHumanicLike'" font-size="30" rotate="-113.674">i</tspan><tspan x="315.997" y="-483.345" font-family="'RuneAMN_SansHumanicLike'" font-size="30" rotate="-116.089">s</tspan><tspan x="309.102" y="-497.395" font-family="'RuneAMN_SansHumanicLike'" font-size="30" rotate="-118.708">i</tspan><tspan x="301.552" y="-511.146" font-family="'RuneAMN_SansHumanicLike'" font-size="30" rotate="-121.349">c</tspan><tspan x="293.372" y="-524.545" font-family="'RuneAMN_SansHumanicLike'" font-size="30" rotate="-124.002">i</tspan><tspan x="284.605" y="-537.513" font-family="'RuneAMN_SansHumanicLike'" font-size="30" rotate="-126.655">n</tspan><tspan x="275.226" y="-550.091" font-family="'RuneAMN_SansHumanicLike'" font-size="30" rotate="-129.318">g</tspan><tspan x="265.276" y="-562.216" font-family="'RuneAMN_SansHumanicLike'" font-size="30" rotate="-131.981"> </tspan><tspan x="254.779" y="-573.856" font-family="'RuneAMN_SansHumanicLike'" font-size="30" rotate="-134.64">e</tspan><tspan x="243.743" y="-585.01" font-family="'RuneAMN_SansHumanicLike'" font-size="30" rotate="-137.299">l</tspan><tspan x="232.219" y="-595.623" font-family="'RuneAMN_SansHumanicLike'" font-size="30" rotate="-139.949">i</tspan><tspan x="220.202" y="-605.705" font-family="'RuneAMN_SansHumanicLike'" font-size="30" rotate="-142.596">t</tspan><tspan x="207.738" y="-615.216" font-family="'RuneAMN_SansHumanicLike'" font-size="30" rotate="-145.237"> </tspan><tspan x="194.847" y="-624.142" font-family="'RuneAMN_SansHumanicLike'" font-size="30" rotate="-147.874">s</tspan><tspan x="181.554" y="-632.471" font-family="'RuneAMN_SansHumanicLike'" font-size="30" rotate="-150.506">e</tspan><tspan x="167.907" y="-640.172" font-family="'RuneAMN_SansHumanicLike'" font-size="30" rotate="-153.133">d</tspan><tspan x="153.931" y="-647.235" font-family="'RuneAMN_SansHumanicLike'" font-size="30" rotate="-155.755"> </tspan><tspan x="139.621" y="-653.662" font-family="'RuneAMN_SansHumanicLike'" font-size="30" rotate="-158.38">d</tspan><tspan x="125.062" y="-659.417" font-family="'RuneAMN_SansHumanicLike'" font-size="30" rotate="-161.002">o</tspan><tspan x="110.247" y="-664.502" font-family="'RuneAMN_SansHumanicLike'" font-size="30" rotate="-163.625"> </tspan><tspan x="95.2" y="-668.907" font-family="'RuneAMN_SansHumanicLike'" font-size="30" rotate="-166.254">e</tspan><tspan x="79.947" y="-672.622" font-family="'RuneAMN_SansHumanicLike'" font-size="30" rotate="-168.891">i</tspan><tspan x="64.576" y="-675.625" font-family="'RuneAMN_SansHumanicLike'" font-size="30" rotate="-171.527">u</tspan><tspan x="49.082" y="-677.917" font-family="'RuneAMN_SansHumanicLike'" font-size="30" rotate="-174.169">s</tspan><tspan x="33.487" y="-679.493" font-family="'RuneAMN_SansHumanicLike'" font-size="30" rotate="-176.817">m</tspan><tspan x="17.817" y="-680.35" font-family="'RuneAMN_SansHumanicLike'" font-size="30" rotate="-179.474">o</tspan><tspan x="2.13" y="-680.479" font-family="'RuneAMN_SansHumanicLike'" font-size="30" rotate="177.866">d</tspan><tspan x="-13.552" y="-679.878" font-family="'RuneAMN_SansHumanicLike'" font-size="30" rotate="175.203"> </tspan><tspan x="-29.173" y="-678.551" font-family="'RuneAMN_SansHumanicLike'" font-size="30" rotate="172.541">t</tspan><tspan x="-44.707" y="-676.501" font-family="'RuneAMN_SansHumanicLike'" font-size="30" rotate="169.883">e</tspan><tspan x="-60.134" y="-673.732" font-family="'RuneAMN_SansHumanicLike'" font-size="30" rotate="167.23">m</tspan><tspan x="-75.431" y="-670.249" font-family="'RuneAMN_SansHumanicLike'" font-size="30" rotate="164.583">p</tspan><tspan x="-90.544" y="-666.065" font-family="'RuneAMN_SansHumanicLike'" font-size="30" rotate="161.951">o</tspan><tspan x="-105.423" y="-661.199" font-family="'RuneAMN_SansHumanicLike'" font-size="30" rotate="159.34">r</tspan><tspan x="-120.192" y="-655.668" font-family="'RuneAMN_SansHumanicLike'" font-size="30" rotate="156.326"> </tspan><tspan x="-134.445" y="-649.47" font-family="'RuneAMN_SansHumanicLike'" font-size="30" rotate="154.154">i</tspan><tspan x="-148.537" y="-642.626" font-family="'RuneAMN_SansHumanicLike'" font-size="30" rotate="151.535">n</tspan><tspan x="-162.33" y="-635.13" font-family="'RuneAMN_SansHumanicLike'" font-size="30" rotate="148.894">c</tspan><tspan x="-175.743" y="-627.019" font-family="'RuneAMN_SansHumanicLike'" font-size="30" rotate="146.245">i</tspan><tspan x="-188.759" y="-618.303" font-family="'RuneAMN_SansHumanicLike'" font-size="30" rotate="143.591">d</tspan><tspan x="-201.382" y="-608.972" font-family="'RuneAMN_SansHumanicLike'" font-size="30" rotate="140.927">i</tspan><tspan x="-213.542" y="-599.079" font-family="'RuneAMN_SansHumanicLike'" font-size="30" rotate="138.265">d</tspan><tspan x="-225.245" y="-588.617" font-family="'RuneAMN_SansHumanicLike'" font-size="30" rotate="135.602">u</tspan><tspan x="-236.427" y="-577.647" font-family="'RuneAMN_SansHumanicLike'" font-size="30" rotate="132.947">n</tspan><tspan x="-247.114" y="-566.141" font-family="'RuneAMN_SansHumanicLike'" font-size="30" rotate="130.291">t</tspan><tspan x="-257.228" y="-554.189" font-family="'RuneAMN_SansHumanicLike'" font-size="30" rotate="127.647"> </tspan><tspan x="-266.792" y="-541.762" font-family="'RuneAMN_SansHumanicLike'" font-size="30" rotate="125.005">u</tspan><tspan x="-275.776" y="-528.909" font-family="'RuneAMN_SansHumanicLike'" font-size="30" rotate="122.368">t</tspan><tspan x="-284.145" y="-515.676" font-family="'RuneAMN_SansHumanicLike'" font-size="30" rotate="119.74"> </tspan><tspan x="-291.906" y="-502.061" font-family="'RuneAMN_SansHumanicLike'" font-size="30" rotate="117.113">l</tspan><tspan x="-299.029" y="-488.114" font-family="'RuneAMN_SansHumanicLike'" font-size="30" rotate="114.491">a</tspan><tspan x="-305.518" y="-473.834" font-family="'RuneAMN_SansHumanicLike'" font-size="30" rotate="111.865">b</tspan><tspan x="-311.346" y="-459.268" font-family="'RuneAMN_SansHumanicLike'" font-size="30" rotate="109.239">o</tspan><tspan x="-316.492" y="-444.474" font-family="'RuneAMN_SansHumanicLike'" font-size="30" rotate="106.615">r</tspan><tspan x="-320.959" y="-429.449" font-family="'RuneAMN_SansHumanicLike'" font-size="30" rotate="103.987">e</tspan><tspan x="-324.731" y="-414.246" font-family="'RuneAMN_SansHumanicLike'" font-size="30" rotate="101.356"> </tspan><tspan x="-327.805" y="-398.86" font-family="'RuneAMN_SansHumanicLike'" font-size="30" rotate="98.716">e</tspan><tspan x="-330.162" y="-383.376" font-family="'RuneAMN_SansHumanicLike'" font-size="30" rotate="96.076">t</tspan><tspan x="-331.808" y="-367.761" font-family="'RuneAMN_SansHumanicLike'" font-size="30" rotate="93.423"> </tspan><tspan x="-332.73" y="-352.1" font-family="'RuneAMN_SansHumanicLike'" font-size="30" rotate="90.767">d</tspan><tspan x="-332.924" y="-336.419" font-family="'RuneAMN_SansHumanicLike'" font-size="30" rotate="88.109">o</tspan><tspan x="-332.393" y="-320.774" font-family="'RuneAMN_SansHumanicLike'" font-size="30" rotate="85.452">l</tspan><tspan x="-331.131" y="-305.123" font-family="'RuneAMN_SansHumanicLike'" font-size="30" rotate="82.786">o</tspan><tspan x="-329.15" y="-289.59" font-family="'RuneAMN_SansHumanicLike'" font-size="30" rotate="80.13">r</tspan><tspan x="-326.443" y="-274.128" font-family="'RuneAMN_SansHumanicLike'" font-size="30" rotate="77.472">e</tspan><tspan x="-323.027" y="-258.829" font-family="'RuneAMN_SansHumanicLike'" font-size="30" rotate="74.826"> </tspan><tspan x="-318.909" y="-243.708" font-family="'RuneAMN_SansHumanicLike'" font-size="30" rotate="72.194">m</tspan><tspan x="-314.102" y="-228.79" font-family="'RuneAMN_SansHumanicLike'" font-size="30" rotate="69.578">a</tspan><tspan x="-308.691" y="-214.058" font-family="'RuneAMN_SansHumanicLike'" font-size="30" rotate="66.325">g</tspan><tspan x="-302.504" y="-199.746" font-family="'RuneAMN_SansHumanicLike'" font-size="30" rotate="64.398">n</tspan><tspan x="-295.715" y="-185.614" font-family="'RuneAMN_SansHumanicLike'" font-size="30" rotate="61.777">a</tspan><tspan x="-288.288" y="-171.808" font-family="'RuneAMN_SansHumanicLike'" font-size="30" rotate="59.142"> </tspan><tspan x="-280.246" y="-158.378" font-family="'RuneAMN_SansHumanicLike'" font-size="30" rotate="56.497">a</tspan><tspan x="-271.563" y="-145.289" font-family="'RuneAMN_SansHumanicLike'" font-size="30" rotate="53.836">l</tspan><tspan x="-262.301" y="-132.645" font-family="'RuneAMN_SansHumanicLike'" font-size="30" rotate="51.177">i</tspan><tspan x="-252.457" y="-120.436" font-family="'RuneAMN_SansHumanicLike'" font-size="30" rotate="48.514">q</tspan><tspan x="-242.063" y="-108.707" font-family="'RuneAMN_SansHumanicLike'" font-size="30" rotate="45.855">u</tspan><tspan x="-231.138" y="-97.473" font-family="'RuneAMN_SansHumanicLike'" font-size="30" rotate="43.199">a</tspan><tspan x="-219.699" y="-86.753" font-family="'RuneAMN_SansHumanicLike'" font-size="30" rotate="40.546"> </tspan><tspan x="-207.764" y="-76.564" font-family="'RuneAMN_SansHumanicLike'" font-size="30" rotate="37.896">U</tspan><tspan x="-195.376" y="-66.943" font-family="'RuneAMN_SansHumanicLike'" font-size="30" rotate="35.253">t</tspan><tspan x="-182.586" y="-57.92" font-family="'RuneAMN_SansHumanicLike'" font-size="30" rotate="32.62"> </tspan><tspan x="-169.361" y="-49.475" font-family="'RuneAMN_SansHumanicLike'" font-size="30" rotate="29.986">e</tspan><tspan x="-155.778" y="-41.655" font-family="'RuneAMN_SansHumanicLike'" font-size="30" rotate="27.359">n</tspan><tspan x="-141.862" y="-34.472" font-family="'RuneAMN_SansHumanicLike'" font-size="30" rotate="24.736">i</tspan><tspan x="-127.608" y="-27.922" font-family="'RuneAMN_SansHumanicLike'" font-size="30" rotate="22.11">m</tspan><tspan x="-113.098" y="-22.043" font-family="'RuneAMN_SansHumanicLike'" font-size="30" rotate="19.49"> </tspan><tspan x="-98.299" y="-16.822" font-family="'RuneAMN_SansHumanicLike'" font-size="30" rotate="16.861">a</tspan><tspan x="-83.294" y="-12.29" font-family="'RuneAMN_SansHumanicLike'" font-size="30" rotate="14.233">d</tspan><tspan x="-68.109" y="-8.455" font-family="'RuneAMN_SansHumanicLike'" font-size="30" rotate="11.603"> </tspan></text>
<path d="M500,811.778c-83.279,0-161.574-32.431-220.461-91.317C220.651,661.573,188.221,583.279,188.221,500
	c0-83.279,32.431-161.574,91.318-220.461C338.426,220.651,416.721,188.22,500,188.22s161.574,32.431,220.461,91.318
	C779.349,338.426,811.779,416.72,811.779,500c0,83.28-32.431,161.574-91.318,220.461C661.574,779.348,583.279,811.778,500,811.778z
	 M500,190.22c-170.813,0-309.779,138.966-309.779,309.779S329.187,809.778,500,809.778c170.813,0,309.779-138.966,309.779-309.779
	S670.813,190.22,500,190.22z"/>
<path d="M500,805.499c-81.602,0-158.32-31.777-216.021-89.479C226.277,658.319,194.5,581.602,194.5,500
	s31.777-158.32,89.479-216.021C341.68,226.277,418.398,194.5,500,194.5c81.602,0,158.319,31.777,216.021,89.479
	C773.723,341.68,805.5,418.397,805.5,500s-31.777,158.32-89.479,216.021C658.319,773.722,581.602,805.499,500,805.499z M500,198.5
	c-166.248,0-301.5,135.252-301.5,301.5s135.252,301.5,301.5,301.5c166.248,0,301.5-135.252,301.5-301.5S666.248,198.5,500,198.5z"/>
<path d="M756.779,649H243.222l0.866-1.5L500,204.247L756.779,649z M246.686,647h506.629L500,208.247L246.686,647z"/>
<path d="M500,796.753L243.222,352h513.558L500,796.753z M246.686,354L500,792.753L753.314,354H246.686z"/>
<g>
	<g>
		<path d="M674.857,337.927l7.912-0.387c-3.175-3.563-6.449-7.057-9.852-10.458c-34.349-34.349-77.119-57.209-123.651-66.678
			l3.577,6.962C600.476,278.18,642.729,303.291,674.857,337.927z M267.833,422.808c-8.142,24.569-12.375,50.555-12.375,77.191
			c0,26.636,4.233,52.622,12.375,77.191l4.277-6.636c-6.92-22.307-10.652-46.003-10.652-70.555s3.732-48.249,10.652-70.555
			L267.833,422.808z M327.082,327.082c-3.402,3.402-6.677,6.896-9.852,10.458l7.913,0.387
			c32.127-34.636,74.381-59.748,122.012-70.562l3.578-6.962C404.201,269.872,361.431,292.733,327.082,327.082z M740.278,410.223
			l-4.164,6.461c9.229,26.077,14.271,54.117,14.271,83.316c0,29.199-5.041,57.239-14.271,83.316l4.164,6.461
			c10.572-28.336,16.106-58.629,16.106-89.777S750.851,438.559,740.278,410.223z M263.886,416.684l-4.164-6.461
			c-10.571,28.336-16.106,58.629-16.106,89.776c0,31.148,5.534,61.44,16.105,89.776l4.165-6.461
			c-9.229-26.077-14.27-54.116-14.27-83.315S254.657,442.761,263.886,416.684z M325.144,662.071l-7.913,0.388
			c3.175,3.563,6.45,7.057,9.852,10.458c34.349,34.349,77.119,57.21,123.651,66.679l-3.578-6.963
			C399.524,721.818,357.271,696.708,325.144,662.071z M672.918,672.917c3.402-3.401,6.677-6.896,9.852-10.458l-7.913-0.388
			c-32.127,34.637-74.381,59.747-122.013,70.562l-3.577,6.963C595.799,730.127,638.569,707.266,672.918,672.917z M545.896,746.152
			l-3.465,6.742c52.35-8.669,100.591-33.335,138.859-71.604c5.809-5.809,11.295-11.852,16.469-18.099l-7.701-0.377
			C653.586,705.329,603.133,735.505,545.896,746.152z M454.103,253.847l3.465-6.743c-52.35,8.669-100.59,33.335-138.859,71.604
			c-5.808,5.808-11.294,11.852-16.468,18.099l7.701,0.377C346.414,294.67,396.867,264.494,454.103,253.847z M309.942,662.815
			l-7.701,0.377c5.174,6.247,10.66,12.29,16.468,18.099c38.269,38.269,86.509,62.935,138.859,71.604l-3.465-6.742
			C396.867,735.505,346.414,705.329,309.942,662.815z M732.168,422.808l-4.277,6.636c6.92,22.307,10.652,46.003,10.652,70.556
			s-3.731,48.249-10.652,70.555l4.277,6.637c8.142-24.569,12.375-50.555,12.375-77.192
			C744.543,473.363,740.31,447.377,732.168,422.808z M542.432,247.104l3.465,6.743c57.237,10.647,107.689,40.823,144.162,83.337
			l7.701-0.377c-5.174-6.247-10.66-12.291-16.469-18.099C643.022,280.439,594.781,255.773,542.432,247.104z"/>
	</g>
</g>
</svg>
