<?xml version="1.0" encoding="utf-8"?>
<!-- Generator: Adobe Illustrator 15.0.0, SVG Export Plug-In . SVG Version: 6.00 Build 0)  -->
<!DOCTYPE svg PUBLIC "-//W3C//DTD SVG 1.1//EN" "http://www.w3.org/Graphics/SVG/1.1/DTD/svg11.dtd">
<svg version="1.1" id="レイヤー_1" xmlns="http://www.w3.org/2000/svg" xmlns:xlink="http://www.w3.org/1999/xlink" x="0px"
	 y="0px" width="1000px" height="1000px" viewBox="0 0 1000 1000" enable-background="new 0 0 1000 1000" xml:space="preserve">
<g>
	<g>
		<path d="M779.848,361.469c-1.443-2.909-2.925-5.795-4.455-8.652l-8.078,9.623L779.848,361.469z M747.183,363.705l26.664-13.745
			c-3.49-6.358-7.189-12.585-11.101-18.664l-24.769,16.894C741.215,353.255,744.274,358.435,747.183,363.705z M772.271,380.172
			l-8.476,9.601l24.148-10.648c-1.393-3.313-2.851-6.59-4.353-9.843l-24.125,10.674L772.271,380.172z M754.982,378.904
			l27.463-12.075c-0.395-0.835-0.778-1.675-1.18-2.506L754.608,378.1C754.735,378.367,754.855,378.637,754.982,378.904z
			 M737.359,660.913l6.221,10.019l11.688,2.687L737.359,660.913z M735.595,327.316l-11.422,1.219
			c1.589,2.072,3.149,4.164,4.679,6.277l24.793-16.872c-0.778-1.083-1.565-2.161-2.357-3.233l-10.894,1.802L735.595,327.316z
			 M748.527,683.18l-6.455-10.185l-11.541-2.583L748.527,683.18z M756.406,381.958c1.25,2.713,2.475,5.442,3.642,8.202
			c0.075,0.177,0.144,0.356,0.218,0.534l7.667-8.492L756.406,381.958z M760.994,328.634c-1.783-2.711-3.603-5.397-5.467-8.048
			l-6.853,10.532L760.994,328.634z M743.616,334.56l-12.982,2.72c1.948,2.754,3.833,5.55,5.68,8.371L743.616,334.56z
			 M727.392,667.193l12.935,2.975l-7.079-11.224C731.346,661.728,729.394,664.478,727.392,667.193z M758.67,331.412l-11.795,2.499
			l-6.444,9.914L758.67,331.412z M757.21,632.678l-6.278-3.395c-1.637,3.175-3.336,6.312-5.089,9.416L757.21,632.678z
			 M780.655,470.196l3.729-10.202l3.148-0.348l-5.209,14.157l28.506-3.148c-0.716-7.674-1.711-15.266-2.972-22.769l-29.544,5.096
			C779.269,458.684,780.053,464.422,780.655,470.196z M797.021,484.892l-11.344,5.938l26.341-1.319
			c-0.119-3.598-0.3-7.18-0.539-10.746l-26.338,1.352L797.021,484.892z M792.246,485.24l-10.683-4.346
			c0.21,3.173,0.367,6.355,0.473,9.546L792.246,485.24z M786.054,440.512l-3.503,0.827l-7.434-4.595
			c1.03,4.499,1.946,9.024,2.753,13.574l29.547-5.096c-0.946-5.35-2.025-10.653-3.241-15.905l-26.22,6.189L786.054,440.512z
			 M781.327,477.535l29.98-1.47c-0.068-0.91-0.162-1.813-0.239-2.721l-29.818,3.293
			C781.274,476.938,781.304,477.236,781.327,477.535z M786.028,402.913l-18.525,6.883c2.584,7.655,4.812,15.407,6.718,23.236
			l4.608-7.458l3.503-0.827l-5.031,8.141l26.234-6.193c-3.299-13.712-7.494-27.074-12.537-40.014l-15.864,5.864L786.028,402.913z
			 M777.202,363.944l-12.014,1.05l-7.601,9.062L777.202,363.944z M761.875,365.244l-13.23,1.127c1.598,2.97,3.134,5.977,4.626,9.009
			L761.875,365.244z M752.291,363.623l11.759-0.917l7.76-9.145L752.291,363.623z M766.598,407.216l14.239-5.264l-0.046-0.021
			l-10.895-10.366l20.107-7.397c-0.34-0.85-0.69-1.694-1.038-2.541l-27.446,12.137C763.33,398.214,765.022,402.699,766.598,407.216z
			 M679.677,257.276l-11.307,16.191c2.885,2.149,5.72,4.37,8.525,6.633l-1.418-7.016l4.467-13.143l7.599-9.56
			c-4.255-3.202-8.588-6.305-13.008-9.29l-9.715,13.861L679.677,257.276z M649.995,226.128c-2.168-1.19-4.352-2.354-6.551-3.493
			l0.049,7.8L649.995,226.128z M654.228,250.938l-0.406,9.256l8.499-13.833L654.228,250.938z M634.059,248.13l6.726-4.044
			l-0.035-8.505l-7.081,4.711L634.059,248.13z M654.157,248.232l10.242-5.325l3.733-6.024c-3.278-2.1-6.61-4.123-9.971-6.102
			l-3.699,6.02L654.157,248.232z M643.58,245.577l-9.913,5.799c2.3,1.237,4.583,2.5,6.845,3.799l15.697-25.547
			c-1.16-0.672-2.333-1.327-3.503-1.984l-9.188,6.109L643.58,245.577z M607.812,760.877l8.459,7.729l0.312-11.52
			c-2.232,1.013-4.478,2.003-6.741,2.961C609.167,760.333,608.486,760.597,607.812,760.877z M631.583,250.279l-0.711-11.478
			l9.851-6.539l-0.047-11.044c-1.199-0.606-2.404-1.204-3.612-1.795l-12.462,27.297
			C626.947,247.875,629.274,249.062,631.583,250.279z M596.058,224.042l-1.088,3.432l-7.793,4.041
			c7.646,2.485,15.208,5.284,22.664,8.438c0.013,0.005,0.025,0.011,0.038,0.017l12.488-27.279
			c-8.68-3.701-17.565-7.009-26.627-9.925l-8.135,25.66L596.058,224.042z M625.347,213.994l-0.413,12.548l9.265-8.508
			C631.274,216.64,628.32,215.299,625.347,213.994z M624.838,229.864l-0.383,11.82l9.185-20.063L624.838,229.864z M622.387,232.106
			l-9.734,9.076c3.103,1.352,6.183,2.743,9.225,4.199L622.387,232.106z M622.988,216.783l-9.141,19.965l8.682-7.981L622.988,216.783
			z M728.726,318.428l-2.861,7.308l7.793-0.927l3.46-7.771L728.726,318.428z M697.542,298.48c0.67,0.657,1.349,1.302,2.013,1.966
			c1.591,1.59,3.159,3.198,4.707,4.82l4.147-10.655L697.542,298.48z M695.133,296.128l21.383-21.046
			c-2.271-2.188-4.568-4.348-6.905-6.466l-20.046,22.308C691.442,292.63,693.296,294.368,695.133,296.128z M687.545,289.132
			l20.046-22.308c-2.359-2.102-4.749-4.17-7.172-6.201l-18.666,23.485C683.704,285.755,685.635,287.429,687.545,289.132z
			 M643.854,254.069l8.043-4.564l0.437-9.237L643.854,254.069z M749.432,312.213c-1.491-1.977-3.005-3.937-4.541-5.876l-3.159,7.135
			L749.432,312.213z M722.732,326.656l4.055-10.735l11.668-1.919l4.487-10.083c-4.814-5.958-9.842-11.734-15.074-17.319
			l-21.343,21.094C712.222,313.801,717.633,320.121,722.732,326.656z M651.564,261.871l0.454-9.882l-8.631,4.882
			C646.14,258.495,648.871,260.153,651.564,261.871z M677.878,273.246l1.736,8.461l0.339,0.269l18.37-23.114
			c-2.927-2.409-5.909-4.752-8.923-7.056l-7.355,9.253L677.878,273.246z M662.927,743.095l-1.78-11.371
			c-2.608,1.817-5.244,3.595-7.912,5.322L662.927,743.095z M666.161,271.858l8.702-12.417l-0.051,0.009l-14.856-2.323l12.319-17.522
			c-0.754-0.5-1.509-0.999-2.268-1.493l-15.698,25.549C658.328,266.291,662.279,269.023,666.161,271.858z M781.149,524.521
			l12.107-3.836l-11.454-5.464C781.639,518.331,781.414,521.43,781.149,524.521z M228.14,423.945l-28.64-8.932
			c-1.959,6.941-3.68,13.982-5.162,21.11l29.531,5.309C225.109,435.56,226.524,429.727,228.14,423.945z M232.517,590.259
			l-6.556,7.431l9.802,1.604C234.633,596.295,233.54,593.287,232.517,590.259z M214.405,595.621l9.175,1.504l6.116-6.961
			L214.405,595.621z M220.547,412.955l8.533,7.756c0.894-3.055,1.836-6.098,2.835-9.125L220.547,412.955z M218.832,581.341
			l11.38,1.778c-0.938-3.044-1.806-6.106-2.639-9.178L218.832,581.341z M233.629,601.184l-9.129-1.481l-6.128,6.927L233.629,601.184
			z M216.772,368.505c-1.041,2.238-2.056,4.491-3.045,6.757l7.766-0.566L216.772,368.505z M239.953,390.16
			c0.696-1.645,1.418-3.274,2.143-4.902l-11.416,1.474l-7.179-9.393l-11.024,0.782c-0.521,1.228-1.018,2.469-1.524,3.705
			l28.061,10.634C239.33,391.694,239.63,390.924,239.953,390.16z M221.507,454.076c0.513-3.141,1.067-6.273,1.686-9.391
			l-11.094,2.74L221.507,454.076z M583.554,230.345l-4.027-7.767l1.088-3.432l4.406,8.497l8.152-25.712
			c-3.034-0.948-6.092-1.839-9.164-2.696l-7.267,29.091C579.021,228.97,581.291,229.644,583.554,230.345z M225.905,399.041
			l10.397-4.683l-26.384-9.999c-1.178,2.952-2.317,5.923-3.406,8.918l18.578-2.245L225.905,399.041z M237.235,396.824l-13.767,6.105
			l-0.496-8.85l-17.366,1.767c-0.439,1.241-0.888,2.477-1.312,3.726l28.675,8.876C234.309,404.55,235.722,400.672,237.235,396.824z
			 M215.942,411.637l12.696-1.672l-25.185-7.825c-1.122,3.4-2.187,6.826-3.193,10.276l25.195,7.793L215.942,411.637z
			 M236.595,373.603l6.457,9.521c2.425-5.328,5.016-10.562,7.754-15.707l-8.791,6.339l-2.804-1.476l-1.269-12.508l-9.451,6.825
			l-2.485-1.308l-1.502-12.276c-2.229,4.168-4.371,8.39-6.414,12.669l6.712,8.768L236.595,373.603z M268.701,338.244l-9.476,5.236
			l-2.605-1.803l13.22-7.269l-23.586-16.328c-3.152,4.389-6.201,8.855-9.127,13.41l25.647,15.552
			C264.693,344.072,266.67,341.14,268.701,338.244z M226.811,377.092l5.171,6.751l7.793-0.911l-4.481-6.441L226.811,377.092z
			 M287.684,314.088l-8.752,0.518l-2.691-2.391l9.556-0.565l-20.156-17.904c-6.258,7.105-12.195,14.497-17.795,22.153l24.651,17.065
			C277.274,326.474,282.338,320.179,287.684,314.088z M812.114,492.212l-29.978,1.533c0.044,2.082,0.076,4.166,0.076,6.255
			c0,4.227-0.107,8.436-0.29,12.632l7.603,3.572l7.229-2.242l7.869,3.107l7.231-2.28c0.229-4.902,0.357-9.83,0.357-14.789
			C812.213,497.396,812.178,494.8,812.114,492.212z M699.555,699.555c-1.643,1.643-3.303,3.262-4.979,4.859l15.052,0.275
			l-3.285,8.231l16.493,5.729c5.331-5.432,10.463-11.058,15.388-16.866l-23.368-18.804
			C709.99,688.678,704.897,694.212,699.555,699.555z M217.788,500c0-10.709,0.611-21.323,1.784-31.828l-6.895,5.427l-3.575-0.426
			l7.522-5.921l-26.765-3.187c-1.352,11.793-2.071,23.779-2.071,35.934c0,7.765,0.294,15.46,0.851,23.082l29.861-2.963
			C218.033,513.452,217.788,506.745,217.788,500z M237.63,356.965l-0.079-0.855L226.4,350.24l1.682,13.579L237.63,356.965z
			 M207.368,446.679l12.399-3.209l-25.96-4.696c-0.698,3.509-1.331,7.042-1.91,10.592l25.96,4.662L207.368,446.679z
			 M259.324,352.525l-9.161,5.811l-2.708-1.642l12.753-8.052l-5.263-3.191l-12.791,8.113l-2.394-1.536l12.753-8.052l-16.822-10.2
			c-2.879,4.568-5.64,9.217-8.285,13.941l26.537,13.968C255.681,358.598,257.473,355.542,259.324,352.525z M252.238,649.554
			l6.162-3.571c-1.848-3.055-3.624-6.154-5.355-9.28L252.238,649.554z M241.669,371.012l10.219-7.356l-11.183-5.886l-0.605,0.455
			L241.669,371.012z M223.889,558.655l-8.136,12.676l-5.284-7.115l-13.529,11.033c0.318,1.288,0.635,2.576,0.97,3.857l28.807-8.36
			C225.68,566.738,224.745,562.706,223.889,558.655z M267.177,690.933l9.108-1.861l3.237-8.682L267.177,690.933z M273.499,668.414
			l-0.379,7.12l-7.611,11.606l-9.735,7.347c0.514,0.644,1.032,1.285,1.55,1.925l22.808-19.478
			C277.869,674.131,275.648,671.297,273.499,668.414z M270.835,674.778l0.436-8.626l-0.26-0.345l-23.548,17.771
			c2.233,3.066,4.504,6.104,6.845,9.084l9.447-7.129L270.835,674.778z M261.738,651.353l-12.619,8.376l0.05,0.01l12.987,7.586
			l-17.869,11.821c0.52,0.741,1.036,1.485,1.563,2.222l23.93-18.059C266.995,659.393,264.316,655.404,261.738,651.353z
			 M227.459,652.377c1.628,2.905,3.291,5.789,5.008,8.637l5.756-3.337L227.459,652.377z M287.12,689.286l-9.058,1.866l-3.26,8.653
			L287.12,689.286z M796.993,516.252l-4.358,1.431l4.055,1.905l4.871-1.54L796.993,516.252z M287,300.102l2.691,2.391l0.518,8.75
			c3.312-3.673,6.719-7.277,10.237-10.796c0.514-0.514,1.04-1.011,1.557-1.52l-7.166,0.606l-12.541-5.945l-8.623-8.644
			c-2.117,2.227-4.191,4.493-6.241,6.782l20.129,17.881L287,300.102z M275.519,691.666l-11.385,1.912l-5.404,4.58
			c2.476,3.011,5.019,5.964,7.604,8.879l5.375-4.59L275.519,691.666z M243.846,659.987l16.446-10.957
			c-0.156-0.251-0.313-0.501-0.469-0.753l-10.903,6.32l1.017-16.191l-20.243,11.732l14.555,7.166l-10.373,6.013
			c2.84,4.617,5.801,9.151,8.87,13.606l14.086-9.351L243.846,659.987z M282.188,679.482l-3.478,9.27l9.727-1.989
			C286.315,684.364,284.223,681.944,282.188,679.482z M221.574,546.331l-8.722,7.51l-11.161-3.895l-8.762,6.708
			c0.242,1.318,0.498,2.632,0.756,3.944l29.267-6.56C222.456,551.478,221.999,548.908,221.574,546.331z M211.018,457.086
			l3.575,0.426l5.409,6.871c0.292-2.332,0.614-4.657,0.964-6.977l-29.511-5.37c-0.478,3.1-0.903,6.217-1.289,9.347l26.742,3.185
			L211.018,457.086z M215.646,566.744l6.104-9.632l-27.541,6.173c0.643,3.123,1.347,6.224,2.082,9.312l14.267-12.091
			L215.646,566.744z M248.135,627.454l-26.81,13.437c1.434,2.829,2.902,5.638,4.418,8.418l25.948-15.04
			C250.474,632.017,249.293,629.742,248.135,627.454z M210.569,539.626l10.629,4.399c-0.903-5.784-1.627-11.605-2.17-17.461
			l-3.844,10.165l-3.153,0.313l5.366-14.1l-28.544,2.832c0.479,5.855,1.125,11.662,1.923,17.421l10.413,3.624L210.569,539.626z
			 M212.35,550.714l6.006-5.047l-7.285-2.913l-6.752,5.167L212.35,550.714z M191.207,546.27c0.364,2.451,0.759,4.891,1.18,7.322
			l6.175-4.746L191.207,546.27z M221.94,599.277l-11.321-2.267l-6.678,2.354c1.242,3.703,2.564,7.368,3.94,11.007l6.658-2.376
			L221.94,599.277z M239.953,609.841c-1.043-2.466-2.04-4.945-3.009-7.433l-28.256,10.084c3.425,8.863,7.246,17.528,11.436,25.98
			l26.812-13.438C244.471,620.049,242.131,614.99,239.953,609.841z M231.242,586.331l-28.836,8.303
			c0.276,0.868,0.561,1.733,0.844,2.6l28.257-10.085C231.418,586.876,231.33,586.604,231.242,586.331z M214.263,582.773l9.679-8.38
			l-25.327,7.321c0.938,3.469,1.921,6.919,2.975,10.338l25.331-7.355L214.263,582.773z M796.358,525.412l4.308-1.218l-4.229-1.989
			l-4.609,1.413L796.358,525.412z M733.909,334.113l11.558-2.336l6.593-10.016L733.909,334.113z M576.625,781.432l-0.887-3.004
			l6.003,1.006l-2.508-8.496c-4.814,1.407-9.661,2.688-14.541,3.833l8.065,8.188l-3.14,11.397l7.285,8.302
			c3.634-0.92,7.238-1.911,10.82-2.958l-5.075-17.192L576.625,781.432z M595.446,786.577l-6.776-18.574
			c-2.274,0.753-4.557,1.476-6.847,2.169l2.896,9.809l6.013,1.041l0.897,3.039l-6.014-1.041l4.696,15.909
			c7.226-2.18,14.339-4.615,21.333-7.294l-5.767-15.891L595.446,786.577z M566.652,805.058c2.419-0.526,4.827-1.08,7.225-1.661
			l-5.148-5.844L566.652,805.058z M591.262,767.132l5.176,14.26l0.021-0.046l10.432-10.834l7.283,20.161
			c0.854-0.335,1.699-0.689,2.55-1.032l-11.974-27.515C600.288,763.912,595.791,765.582,591.262,767.132z M567.421,791.869l2.25-8.2
			l-5.438-5.656l-2.42,7.464L567.421,791.869z M562.397,775.308c-6.641,1.499-13.337,2.762-20.086,3.772l2.721,16.315l12.646,11.479
			c1.981-0.37,3.959-0.746,5.927-1.153l2.926-10.654l-7.806-8.879L562.397,775.308z M644.375,742.549l8.47,2.2l1.823,3.104
			l-9.263-2.407l13.654,23.241c2.736-1.623,5.45-3.278,8.131-4.981l-16.755-24.872C648.432,740.098,646.41,741.335,644.375,742.549z
			 M640.702,756.059l-1.824-3.104l2.199-8.462c-5.675,3.277-11.474,6.354-17.386,9.238l7.506,14.766l15.508,7.148
			c3.381-1.803,6.727-3.662,10.031-5.584l-13.641-23.217L640.702,756.059z M618.275,772.955l-9.548-8.53l10.498,24.193
			c3.319-1.373,6.615-2.789,9.875-4.271l-10.533-24.191L618.275,772.955z M547.243,808.658c2.4-0.364,4.79-0.762,7.172-1.181
			l-8.762-8.354L547.243,808.658z M637.282,780.468c2.175-1.066,4.337-2.155,6.482-3.271l-10.854-5.331L637.282,780.468z
			 M619.637,755.663l11.916,27.538c1.103-0.513,2.211-1.018,3.307-1.544l-13.599-26.751
			C620.722,755.162,620.178,755.41,619.637,755.663z M459.879,779.381l8.983,6.094l-0.428,3.14l-12.468-8.497l-0.832,6.101
			l12.539,8.507l-0.456,2.809l-12.468-8.497l-2.663,19.519c5.324,0.82,10.691,1.508,16.1,2.056l2.251-29.928
			C466.904,780.316,463.386,779.879,459.879,779.381z M429.811,773.434l4.399,7.546l-0.917,3.481l-4.822-8.27l-6.872,26.091
			c9.117,2.357,18.401,4.296,27.821,5.831l4.055-29.718C445.511,777.077,437.617,775.434,429.811,773.434z M390.478,760.178
			l-5.622,14.092l0.047-0.021l14.991-1.15l-7.97,19.893c2.951,1.089,5.923,2.132,8.916,3.134l9.391-28.478
			C403.575,765.412,396.988,762.922,390.478,760.178z M417.624,780.335l0.917-3.482l7.567-4.412c-4.465-1.209-8.9-2.53-13.307-3.963
			l-9.392,28.481c5.138,1.67,10.333,3.211,15.584,4.617l6.858-26.038L417.624,780.335z M380.668,777.481l7.301-18.392
			c-9.052-3.918-17.853-8.285-26.385-13.09l4.135,14.474l-8.834-0.736l-0.659,17.454c10.708,5.566,21.781,10.522,33.17,14.839
			l6.263-15.699L380.668,777.481z M359.009,746.573l-13.565,24.75c2.76,1.575,5.552,3.1,8.363,4.593l0.353-18.698l8.044,0.304
			L359.009,746.573z M470.976,803.758l-0.558,7.051c3.867,0.363,7.753,0.659,11.66,0.881l0.531-7.057l-4.966-10.303L470.976,803.758
			z M505.078,792.063l-0.16-3.596l5.926-6.479c-2.376,0.09-4.756,0.148-7.142,0.18l-0.516,30.005
			c3.185-0.032,6.356-0.112,9.517-0.238l-1.199-26.896L505.078,792.063z M490.781,782.049l4.51,10.521l5.038-10.361
			c-0.11,0-0.219,0.004-0.329,0.004C496.918,782.213,493.847,782.146,490.781,782.049z M484.342,811.822
			c0.89,0.044,1.786,0.065,2.678,0.102l0.452-29.997c-0.292-0.013-0.586-0.019-0.878-0.032L484.342,811.822z M665.687,747.008
			l-10.938-6.658l14.717,21.896c3.013-1.951,5.985-3.958,8.926-6.009l-14.739-21.87L665.687,747.008z M350.799,739.602
			l-0.124,11.488l-10.299,5.808l-0.752,11.012c1.146,0.688,2.297,1.368,3.452,2.041l14.416-26.302
			C355.241,742.331,353.011,740.981,350.799,739.602z M514.644,781.839l6.459,5.907l0.16,3.597l-7.063-6.46l1.2,26.949
			c9.852-0.479,19.577-1.429,29.168-2.8l-4.933-29.585C531.375,780.604,523.043,781.413,514.644,781.839z M796.172,528.105
			l-8.257-3.242l-6.982,2.164c-0.257,2.712-0.54,5.419-0.874,8.115l10.13,1.321l3.385-5.076l3.141,0.409l-3.384,5.076l16.46,2.146
			c0.411-3.299,0.756-6.616,1.063-9.946l-7.009-3.359L796.172,528.105z M811.09,526.421c0.249-2.976,0.463-5.962,0.629-8.962
			l-11.816,3.687L811.09,526.421z M788.24,544.449l-3.105-0.405l3.349-5.08l-8.786-1.146c-0.657,4.921-1.444,9.814-2.358,14.681
			l29.439,5.68c1.026-5.446,1.916-10.94,2.656-16.483l-17.774-2.317L788.24,544.449z M711.743,291.172l-4.513,11.986l18.795-18.539
			c-2.476-2.597-5.01-5.136-7.573-7.647l-18.757,18.546L711.743,291.172z M772.183,574.854l16.035,4.119l15.624-6.924
			c0.878-3.714,1.686-7.454,2.429-11.219l-29.433-5.678C775.527,561.776,773.971,568.344,772.183,574.854z M801.224,582.313
			c0.636-2.332,1.246-4.674,1.829-7.027l-11.175,4.627L801.224,582.313z M295.273,297.167l8.604-0.753l0.306-0.305l-20.838-20.889
			c-2.729,2.632-5.411,5.313-8.043,8.042l8.348,8.368L295.273,297.167z M490.146,785.646l-0.425,26.38
			c3.415,0.11,6.837,0.187,10.279,0.187c0.161,0,0.32-0.006,0.481-0.006l0.392-26.388l-5.55,11.54L490.146,785.646z
			 M705.777,707.187l-11.402-0.144l19.698,20.201c2.316-2.184,4.61-4.393,6.859-6.646l-17.797-5.809L705.777,707.187z
			 M498.05,207.957l7.933,8.193l0.455-28.28c-2.142-0.043-4.286-0.082-6.438-0.082c-1.027,0-2.048,0.029-3.073,0.039l8.381,16.646
			L498.05,207.957z M768.977,585.654l28.537,9.229c1.052-3.299,2.061-6.617,3.005-9.963l-29.057-7.464
			C770.68,580.201,769.845,582.932,768.977,585.654z M300.446,699.555c-3.361-3.361-6.625-6.798-9.797-10.3l-22.811,19.479
			c4.839,5.379,9.865,10.585,15.063,15.615l20.289-22.114C302.275,701.343,301.352,700.46,300.446,699.555z M670.618,737.13
			l-2.185-2.861l1.16-8.662c-1.879,1.416-3.772,2.81-5.685,4.177l16.706,24.912c2.569-1.826,5.101-3.7,7.611-5.601l-16.345-21.401
			L670.618,737.13z M760.791,608.021l14.134,5.548l-0.021-0.047l-1.233-14.985l19.933,7.859c1.073-2.96,2.092-5.944,3.077-8.945
			l-28.534-9.227C765.95,594.895,763.498,601.495,760.791,608.021z M683.018,714.824l7.169-0.092l12.082,6.828l7.982,9.241
			c0.612-0.559,1.211-1.131,1.819-1.693l-20.946-21.48C688.462,710.082,685.76,712.481,683.018,714.824z M751.943,684.393
			c1.918-2.614,3.797-5.259,5.634-7.936l-12.26-2.749L751.943,684.393z M672.638,723.274l8.67,1.162l2.186,2.86l-9.487-1.271
			l16.363,21.425c2.507-1.931,4.99-3.891,7.436-5.896l-19.61-22.7C676.36,720.354,674.507,721.825,672.638,723.274z
			 M689.583,717.062l-8.635,0.135l-0.327,0.282l19.289,22.329c2.911-2.43,5.777-4.912,8.598-7.445l-7.728-8.945L689.583,717.062z
			 M719.006,678.007l9.853-4.551l2.468,1.986l-13.708,6.297l4.796,3.859l13.753-6.354l2.17,1.839l-13.707,6.297l15.337,12.341
			c3.47-4.165,6.843-8.414,10.096-12.758l-24.485-17.332C723.443,672.463,721.251,675.253,719.006,678.007z M572.61,211.521
			l2.373,12.582l6.415-25.573c-3.456-0.931-6.929-1.821-10.431-2.635l-6.388,25.598L572.61,211.521z M734.95,656.424l24.459,17.352
			c1.753-2.612,3.459-5.26,5.135-7.928l-25.45-15.831C737.741,652.171,736.362,654.308,734.95,656.424z M752.153,626.875
			l11.09,5.996l-14.335,7.594l20.58,11.128l-1.495-16.153l10.555,5.708c1.429-2.815,2.808-5.66,4.153-8.523l-27.202-12.634
			C754.412,622.302,753.3,624.598,752.153,626.875z M772.564,652.336c1.626-2.902,3.213-5.83,4.747-8.789l-5.854-3.165
			L772.564,652.336z M740.521,647.725l25.452,15.833c1.661-2.695,3.297-5.409,4.878-8.158l-26.39-14.27
			C743.18,643.348,741.863,645.544,740.521,647.725z M778.16,617.739l-18.42-7.195c-1.002,2.351-2.039,4.682-3.101,6.998
			l27.204,12.636c3.191-6.949,6.137-14.034,8.822-21.246l-15.739-6.179L778.16,617.739z M454.691,211.897l0.549,3.084l-5.855-1.663
			l1.55,8.701c4.878-0.854,9.787-1.57,14.719-2.166l-3.47-29.779c-5.548,0.67-11.053,1.478-16.508,2.435l3.146,17.656
			L454.691,211.897z M483.263,781.71c-3.201-0.187-6.393-0.423-9.575-0.716l4.135,9.017L483.263,781.71z M471.242,799.733
			l5.098-7.776l-3.88-8.416L471.242,799.733z M482.914,800.575l1.215-16.156l-5.06,7.743L482.914,800.575z M511.703,208.149
			l6.267-10.028l-4.606-10.029c-1.395-0.059-2.789-0.119-4.188-0.159l-0.484,30c2.811,0.084,5.612,0.215,8.408,0.381
			L511.703,208.149z M500,217.788c1.32,0,2.636,0.031,3.953,0.048l-10.388-10.852l8.157-3.469l-7.515-15.654
			c-9.9,0.18-19.687,0.824-29.341,1.906l3.471,29.786C478.788,218.392,489.347,217.788,500,217.788z M394.039,221.869l-8.184-8.767
			l7.735,20.552L394.039,221.869z M523.885,188.689c-2.466-0.187-4.94-0.341-7.422-0.471l3.273,7.092L523.885,188.689z
			 M415.541,230.638l-8.824-28.67c-3.046,0.952-6.066,1.964-9.071,3.006l10.598,28.069
			C410.667,232.209,413.098,231.404,415.541,230.638z M448.282,222.514l-1.794-10.069l-5.862-1.698l-0.556-3.119l5.862,1.698
			l-2.911-16.333c-3.269,0.603-6.516,1.264-9.748,1.967l7.055,29.148C442.971,223.539,445.622,223.006,448.282,222.514z
			 M430.634,195.534c-2.364,0.537-4.716,1.103-7.06,1.693l9.331,7.69L430.634,195.534z M336.965,766.3l0.517-7.78l-6.798,3.823
			C332.761,763.687,334.854,765.005,336.965,766.3z M396.309,224.323l-0.413,13.288c3.145-1.25,6.31-2.432,9.488-3.564
			L396.309,224.323z M552.83,211.843l-2.898-8.783l-2.979,15.923L552.83,211.843z M514.865,208.35l3.597,6.976l4.452-6.463
			l-3.549-7.73L514.865,208.35z M564.286,225.132c3.101,0.723,6.187,1.507,9.261,2.335l-1.996-11.277L564.286,225.132z
			 M561.438,205.177l-5.919,7.169l2.933,8.79L561.438,205.177z M560.997,224.392l7.329-29.084c-0.885-0.198-1.772-0.39-2.661-0.58
			l-5.518,29.481C560.431,224.271,560.715,224.33,560.997,224.392z M547.519,221.767c3.154,0.534,6.299,1.114,9.431,1.755
			l-3.117-9.403L547.519,221.767z M526.076,209.064l-6.639,9.393c2.616,0.176,5.228,0.383,7.831,0.631l1.561-12.51l12.281,10.601
			l2.896-23.219l-14.51,7.259l1.485-11.904c-1.333-0.131-2.673-0.241-4.011-0.356l-5.84,9.362L526.076,209.064z M533.668,189.599
			l-0.823,6.597l10.729-5.367C540.286,190.37,536.986,189.955,533.668,189.599z M544.224,221.23l5.519-29.482
			c-0.896-0.143-1.787-0.296-2.685-0.432l-3.714,29.771C543.638,221.132,543.93,221.185,544.224,221.23z M562.146,201.208
			l1.329-6.957c-3.805-0.786-7.641-1.485-11.495-2.131l-1.299,6.942l3.805,10.784L562.146,201.208z M540.586,220.683l-9.746-8.413
			l-0.885,7.091C533.512,219.735,537.056,220.176,540.586,220.683z M437.688,224.675l-3.893-16.084l-13.442-10.535
			c-3.711,0.977-7.395,2.022-11.05,3.131l8.82,28.659C424.584,227.886,431.107,226.158,437.688,224.675z M321.069,718.262
			c-2.01-1.652-4-3.334-5.968-5.045l-20.301,22.08c1.002,0.875,2.017,1.737,3.03,2.6l10.191-4.233l2.21-11.614L321.069,718.262z
			 M286.838,723.316l10.92-5.121l4.018-11.126L286.838,723.316z M285.192,726.559c2.355,2.233,4.753,4.421,7.177,6.581l4.272-11.814
			L285.192,726.559z M310.341,715.042l-10.725,4.909l-4.139,11.259L310.341,715.042z M305.367,704.359l-4.583,12.46l12.046-5.618
			C310.311,708.964,307.815,706.693,305.367,704.359z M334.274,728.46l5.084,9.589l-1.848,2.573l-7.038-13.341l-16.733,23.301
			c4.681,3.484,9.472,6.83,14.35,10.054l9.606-5.428l0.796-11.796l10.298-5.061C343.85,735.211,339.014,731.907,334.274,728.46z
			 M324.814,278.724l-8.688-1.065l-2.217-2.836l9.501,1.165l-16.609-21.25c-7.443,5.871-14.609,12.077-21.483,18.589l21.197,21.248
			C312.412,289.011,318.514,283.726,324.814,278.724z M347.995,749.4l0.179-7.845l-7.001,3.545l-0.582,8.485L347.995,749.4z
			 M322.907,719.741l-1.506,11.396l-10.922,4.526l-2.074,10.849c1.055,0.82,2.117,1.632,3.183,2.439l17.494-24.359
			C327.003,723.005,324.944,721.388,322.907,719.741z M396.792,208.948l-0.348,12.055l8.121,8.598L396.792,208.948z
			 M318.944,729.138l1.121-7.767l-7.376,2.678l-1.599,8.353L318.944,729.138z M305.96,744.587l1.449-7.662l-7.207,2.978
			C302.103,741.486,304.022,743.048,305.96,744.587z M383.59,242.834l-12.26-27.381c-2.9,1.313-5.768,2.684-8.62,4.083
			l13.925,26.572C378.938,244.989,381.253,243.893,383.59,242.834z M372.57,243.145l-10.224-19.559l1.118,12.009L372.57,243.145z
			 M326.674,264.845l2.217,2.836l-1.065,8.69c3.546-2.738,7.152-5.387,10.818-7.948l-5.796-8.417l-6.038,0.88l-1.796-2.609
			l6.038-0.88l-9.405-13.658c-4.317,3.01-8.556,6.124-12.71,9.343l16.58,21.213L326.674,264.845z M364.936,252.132
			c2.961-1.615,5.959-3.167,8.983-4.678l-10.186-8.547L364.936,252.132z M390.16,239.953c0.972-0.411,1.952-0.795,2.927-1.195
			l-10.571-28.087c-2.927,1.19-5.833,2.421-8.715,3.696l12.259,27.379C387.424,241.143,388.785,240.535,390.16,239.953z
			 M394.64,206.033c-3.06,1.097-6.106,2.223-9.121,3.412l8.635,9.15L394.64,206.033z M349.973,253.883l8.533,1.327l0.37-0.223
			l-15.237-25.27c-3.283,1.903-6.523,3.872-9.729,5.891l6.101,10.118L349.973,253.883z M362.167,248.501l-0.984-11.754l-9.189-7.709
			L362.167,248.501z M340.088,256.113l1.776,2.579l-6.018,0.91l5.017,7.286c4.959-3.394,10.026-6.623,15.194-9.69l-7.074-1.121
			l-10.753-8.772l-6.305-10.457c-2.719,1.74-5.4,3.533-8.061,5.354l10.166,14.762L340.088,256.113z M359.855,220.955
			c-2.902,1.46-5.787,2.948-8.637,4.496l9.68,8.033L359.855,220.955z M362.28,253.613l-13.894-26.58
			c-0.792,0.44-1.584,0.878-2.372,1.326l15.488,25.687C361.761,253.9,362.021,253.758,362.28,253.613z"/>
	</g>
</g>
<path d="M500,976.5c-64.326,0-126.729-12.599-185.475-37.446c-56.741-24-107.7-58.357-151.46-102.118
	c-43.761-43.76-78.118-94.719-102.118-151.46C36.099,626.729,23.5,564.326,23.5,500s12.599-126.729,37.447-185.475
	c24-56.741,58.357-107.7,102.118-151.46c43.76-43.761,94.719-78.118,151.46-102.118C373.271,36.099,435.674,23.5,500,23.5
	s126.729,12.599,185.476,37.447c56.741,24,107.7,58.357,151.46,102.118c43.761,43.76,78.118,94.719,102.118,151.46
	C963.901,373.271,976.5,435.674,976.5,500s-12.599,126.729-37.446,185.476c-24,56.741-58.357,107.7-102.118,151.46
	c-43.76,43.761-94.719,78.118-151.46,102.118C626.729,963.901,564.326,976.5,500,976.5z M500,26.5
	C238.911,26.5,26.5,238.911,26.5,500S238.911,973.5,500,973.5S973.5,761.089,973.5,500S761.089,26.5,500,26.5z"/>
<path d="M500,964.456c-62.7,0-123.525-12.28-180.787-36.501c-55.308-23.393-104.978-56.882-147.632-99.535
	c-42.654-42.654-76.143-92.325-99.536-147.633c-24.22-57.262-36.5-118.088-36.5-180.787c0-62.7,12.281-123.525,36.5-180.787
	c23.394-55.308,56.882-104.978,99.536-147.632c42.654-42.654,92.325-76.143,147.632-99.536c57.262-24.22,118.087-36.5,180.787-36.5
	c62.699,0,123.525,12.281,180.787,36.5c55.308,23.394,104.979,56.882,147.633,99.536c42.653,42.654,76.143,92.325,99.535,147.632
	C952.176,376.475,964.456,437.3,964.456,500c0,62.7-12.28,123.525-36.501,180.787c-23.393,55.308-56.882,104.979-99.535,147.633
	c-42.654,42.653-92.325,76.143-147.633,99.535C623.525,952.176,562.7,964.456,500,964.456z M500,40.544
	C246.655,40.544,40.544,246.655,40.544,500S246.655,959.456,500,959.456S959.456,753.345,959.456,500S753.345,40.544,500,40.544z"/>
<path d="M500,950.999c-60.883,0-119.946-11.925-175.549-35.442c-53.705-22.716-101.937-55.234-143.355-96.652
	c-41.418-41.419-73.937-89.65-96.653-143.355C60.925,619.946,49.001,560.884,49.001,500c0-60.883,11.924-119.946,35.442-175.549
	c22.716-53.705,55.234-101.937,96.653-143.355s89.65-73.937,143.355-96.653C380.054,60.925,439.117,49.001,500,49.001
	c60.884,0,119.946,11.924,175.549,35.442c53.705,22.716,101.937,55.234,143.355,96.653c41.418,41.418,73.937,89.65,96.652,143.355
	c23.518,55.603,35.442,114.666,35.442,175.549c0,60.884-11.925,119.946-35.442,175.549
	c-22.716,53.705-55.234,101.937-96.652,143.355c-41.419,41.418-89.65,73.937-143.355,96.652
	C619.946,939.074,560.884,950.999,500,950.999z M500,52.001C252.973,52.001,52.001,252.973,52.001,500S252.973,947.999,500,947.999
	S947.999,747.027,947.999,500S747.027,52.001,500,52.001z"/>
<path d="M500,938.457c-59.19,0-116.611-11.593-170.667-34.457c-52.211-22.084-99.102-53.698-139.368-93.965
	C149.698,769.769,118.083,722.878,96,670.667C73.136,616.611,61.543,559.19,61.543,500S73.136,383.389,96,329.333
	c22.083-52.211,53.698-99.102,93.965-139.368c40.267-40.267,87.157-71.881,139.368-93.965C383.389,73.136,440.81,61.543,500,61.543
	S616.611,73.136,670.667,96c52.211,22.083,99.102,53.698,139.368,93.965c40.267,40.267,71.881,87.157,93.965,139.368
	C926.864,383.389,938.457,440.81,938.457,500S926.864,616.611,904,670.667c-22.084,52.211-53.698,99.102-93.965,139.368
	S722.878,881.916,670.667,904C616.611,926.864,559.19,938.457,500,938.457z M500,64.543C259.888,64.543,64.543,259.888,64.543,500
	c0,240.111,195.345,435.457,435.457,435.457c240.111,0,435.457-195.346,435.457-435.457C935.457,259.888,740.111,64.543,500,64.543z
	"/>
<path d="M500,927.5c-57.71,0-113.696-11.304-166.402-33.597c-50.907-21.531-96.625-52.355-135.885-91.615
	c-39.26-39.261-70.084-84.979-91.616-135.886C83.803,613.696,72.5,557.711,72.5,500c0-57.71,11.303-113.696,33.596-166.402
	c21.532-50.907,52.356-96.625,91.616-135.885s84.979-70.084,135.885-91.616C386.304,83.803,442.29,72.5,500,72.5
	c57.711,0,113.696,11.303,166.402,33.596c50.907,21.532,96.625,52.356,135.886,91.616c39.26,39.26,70.084,84.979,91.615,135.885
	C916.196,386.304,927.5,442.29,927.5,500c0,57.711-11.304,113.696-33.597,166.402c-21.531,50.907-52.355,96.625-91.615,135.886
	c-39.261,39.26-84.979,70.084-135.886,91.615C613.696,916.196,557.711,927.5,500,927.5z M500,77.5
	C267.033,77.5,77.5,267.033,77.5,500c0,232.968,189.533,422.5,422.5,422.5c232.968,0,422.5-189.532,422.5-422.5
	C922.5,267.033,732.968,77.5,500,77.5z"/>
<path d="M500,913.457c-55.815,0-109.962-10.932-160.936-32.492c-49.234-20.824-93.451-50.636-131.422-88.607
	c-37.971-37.971-67.783-82.187-88.607-131.421C97.475,609.962,86.543,555.815,86.543,500s10.932-109.962,32.492-160.936
	c20.825-49.234,50.637-93.451,88.607-131.422s82.188-67.783,131.422-88.607C390.038,97.475,444.185,86.543,500,86.543
	s109.962,10.932,160.937,32.492c49.234,20.825,93.45,50.637,131.421,88.607c37.972,37.971,67.783,82.188,88.607,131.422
	c21.561,50.974,32.492,105.12,32.492,160.936s-10.932,109.962-32.492,160.937c-20.824,49.234-50.636,93.45-88.607,131.421
	c-37.971,37.972-82.187,67.783-131.421,88.607C609.962,902.525,555.815,913.457,500,913.457z M500,89.543
	C273.673,89.543,89.543,273.673,89.543,500c0,226.327,184.13,410.457,410.457,410.457c226.327,0,410.457-184.13,410.457-410.457
	C910.457,273.673,726.327,89.543,500,89.543z"/>
<path d="M743.237,835H256.762L106.434,372.229l0.881-0.641L500,86.233l0.882,0.641l392.686,285.381l-0.337,1.036L743.237,835z
	 M258.942,832h482.116L890.04,373.4L500,89.941L109.96,373.374L258.942,832z"/>
<path d="M500,911.458L106.434,625.565l0.336-1.037L256.762,163h486.475l0.337,1.036l149.993,461.555L500,911.458z M109.96,624.419
	L500,907.75l390.04-283.306L741.058,166H258.942L109.96,624.419z"/>
<path d="M500,824.115c-86.574,0-167.966-33.714-229.184-94.932S175.885,586.574,175.885,500c0-86.574,33.714-167.966,94.932-229.184
	S413.426,175.885,500,175.885c86.574,0,167.966,33.714,229.184,94.932S824.115,413.426,824.115,500
	c0,86.574-33.714,167.967-94.932,229.184C667.967,790.401,586.574,824.115,500,824.115z M500,178.885
	c-177.063,0-321.115,144.052-321.115,321.115S322.937,821.115,500,821.115S821.115,677.063,821.115,500S677.063,178.885,500,178.885
	z"/>
<path d="M500,774.5c-73.321,0-142.254-28.553-194.101-80.399C254.053,642.254,225.5,573.321,225.5,500
	s28.553-142.254,80.399-194.101C357.746,254.053,426.679,225.5,500,225.5s142.254,28.553,194.101,80.399
	C745.947,357.746,774.5,426.679,774.5,500s-28.553,142.254-80.399,194.101S573.321,774.5,500,774.5z M500,227.5
	c-150.257,0-272.5,122.243-272.5,272.5S349.743,772.5,500,772.5S772.5,650.257,772.5,500S650.257,227.5,500,227.5z"/>
<circle fill="none" cx="500" cy="500" r="449.499"/>
<text transform="matrix(-0.3703 -0.9289 0.9289 -0.3703 919.8301 336.2783)"><tspan x="0" y="0" font-family="'RuneAMN_Sans'" font-size="13">L</tspan><tspan x="6.48" y="0" font-family="'RuneAMN_Sans'" font-size="13" rotate="-0.83">o</tspan><tspan x="12.95" y="-0.093" font-family="'RuneAMN_Sans'" font-size="13" rotate="-1.658">r</tspan><tspan x="19.433" y="-0.281" font-family="'RuneAMN_Sans'" font-size="13" rotate="-2.487">e</tspan><tspan x="25.905" y="-0.562" font-family="'RuneAMN_Sans'" font-size="13" rotate="-3.315">m</tspan><tspan x="32.387" y="-0.937" font-family="'RuneAMN_Sans'" font-size="13" rotate="-4.145"> </tspan><tspan x="38.834" y="-1.406" font-family="'RuneAMN_Sans'" font-size="13" rotate="-4.97">i</tspan><tspan x="45.29" y="-1.967" font-family="'RuneAMN_Sans'" font-size="13" rotate="-5.797">p</tspan><tspan x="51.752" y="-2.622" font-family="'RuneAMN_Sans'" font-size="13" rotate="-6.625">s</tspan><tspan x="58.177" y="-3.368" font-family="'RuneAMN_Sans'" font-size="13" rotate="-7.45">u</tspan><tspan x="64.584" y="-4.206" font-family="'RuneAMN_Sans'" font-size="13" rotate="-8.273">m</tspan><tspan x="71.018" y="-5.142" font-family="'RuneAMN_Sans'" font-size="13" rotate="-9.1"> </tspan><tspan x="77.41" y="-6.165" font-family="'RuneAMN_Sans'" font-size="13" rotate="-9.924">d</tspan><tspan x="83.784" y="-7.28" font-family="'RuneAMN_Sans'" font-size="13" rotate="-10.746">o</tspan><tspan x="90.157" y="-8.489" font-family="'RuneAMN_Sans'" font-size="13" rotate="-11.57">l</tspan><tspan x="96.51" y="-9.789" font-family="'RuneAMN_Sans'" font-size="13" rotate="-12.393">o</tspan><tspan x="102.839" y="-11.18" font-family="'RuneAMN_Sans'" font-size="13" rotate="-13.216">r</tspan><tspan x="109.145" y="-12.661" font-family="'RuneAMN_Sans'" font-size="13" rotate="-14.037"> </tspan><tspan x="115.426" y="-14.231" font-family="'RuneAMN_Sans'" font-size="13" rotate="-14.858">s</tspan><tspan x="121.681" y="-15.89" font-family="'RuneAMN_Sans'" font-size="13" rotate="-15.678">i</tspan><tspan x="127.911" y="-17.639" font-family="'RuneAMN_Sans'" font-size="13" rotate="-16.497">t</tspan><tspan x="134.131" y="-19.48" font-family="'RuneAMN_Sans'" font-size="13" rotate="-17.318"> </tspan><tspan x="140.325" y="-21.411" font-family="'RuneAMN_Sans'" font-size="13" rotate="-18.139">a</tspan><tspan x="146.467" y="-23.423" font-family="'RuneAMN_Sans'" font-size="13" rotate="-18.957">m</tspan><tspan x="152.619" y="-25.537" font-family="'RuneAMN_Sans'" font-size="13" rotate="-19.779">e</tspan><tspan x="158.7" y="-27.723" font-family="'RuneAMN_Sans'" font-size="13" rotate="-20.596">t</tspan><tspan x="164.061" y="-31.868" font-family="'Raavi'" font-size="13" rotate="-21.232">,</tspan><tspan x="168.073" y="-31.288" font-family="'RuneAMN_Sans'" font-size="13" rotate="-21.864"> </tspan><tspan x="174.088" y="-33.701" font-family="'RuneAMN_Sans'" font-size="13" rotate="-22.683">c</tspan><tspan x="180.048" y="-36.192" font-family="'RuneAMN_Sans'" font-size="13" rotate="-23.5">o</tspan><tspan x="186.011" y="-38.785" font-family="'RuneAMN_Sans'" font-size="13" rotate="-24.322">n</tspan><tspan x="191.899" y="-41.446" font-family="'RuneAMN_Sans'" font-size="13" rotate="-25.138">s</tspan><tspan x="197.785" y="-44.208" font-family="'RuneAMN_Sans'" font-size="13" rotate="-25.96">e</tspan><tspan x="203.595" y="-47.036" font-family="'RuneAMN_Sans'" font-size="13" rotate="-26.777">c</tspan><tspan x="209.384" y="-49.957" font-family="'RuneAMN_Sans'" font-size="13" rotate="-27.597">t</tspan><tspan x="215.131" y="-52.96" font-family="'RuneAMN_Sans'" font-size="13" rotate="-28.418">e</tspan><tspan x="220.818" y="-56.038" font-family="'RuneAMN_Sans'" font-size="13" rotate="-29.235">t</tspan><tspan x="226.479" y="-59.207" font-family="'RuneAMN_Sans'" font-size="13" rotate="-30.057">u</tspan><tspan x="232.097" y="-62.457" font-family="'RuneAMN_Sans'" font-size="13" rotate="-30.879">r</tspan><tspan x="237.652" y="-65.78" font-family="'RuneAMN_Sans'" font-size="13" rotate="-31.699"> </tspan><tspan x="243.16" y="-69.181" font-family="'RuneAMN_Sans'" font-size="13" rotate="-32.519">a</tspan><tspan x="248.622" y="-72.663" font-family="'RuneAMN_Sans'" font-size="13" rotate="-33.341">d</tspan><tspan x="254.037" y="-76.224" font-family="'RuneAMN_Sans'" font-size="13" rotate="-34.163">i</tspan><tspan x="259.401" y="-79.865" font-family="'RuneAMN_Sans'" font-size="13" rotate="-34.987">p</tspan><tspan x="264.699" y="-83.574" font-family="'RuneAMN_Sans'" font-size="13" rotate="-35.808">i</tspan><tspan x="269.947" y="-87.357" font-family="'RuneAMN_Sans'" font-size="13" rotate="-36.63">s</tspan><tspan x="275.16" y="-91.234" font-family="'RuneAMN_Sans'" font-size="13" rotate="-37.457">i</tspan><tspan x="280.303" y="-95.175" font-family="'RuneAMN_Sans'" font-size="13" rotate="-38.281">c</tspan><tspan x="285.393" y="-99.191" font-family="'RuneAMN_Sans'" font-size="13" rotate="-39.107">i</tspan><tspan x="290.413" y="-103.271" font-family="'RuneAMN_Sans'" font-size="13" rotate="-39.932">n</tspan><tspan x="295.377" y="-107.427" font-family="'RuneAMN_Sans'" font-size="13" rotate="-40.757">g</tspan><tspan x="300.286" y="-111.657" font-family="'RuneAMN_Sans'" font-size="13" rotate="-41.584"> </tspan><tspan x="305.137" y="-115.961" font-family="'RuneAMN_Sans'" font-size="13" rotate="-42.412">e</tspan><tspan x="309.931" y="-120.341" font-family="'RuneAMN_Sans'" font-size="13" rotate="-43.242">l</tspan><tspan x="314.634" y="-124.763" font-family="'RuneAMN_Sans'" font-size="13" rotate="-44.067">i</tspan><tspan x="319.295" y="-129.275" font-family="'RuneAMN_Sans'" font-size="13" rotate="-44.897">t</tspan><tspan x="322.467" y="-135.249" font-family="'Raavi'" font-size="13" rotate="-45.538">,</tspan><tspan x="326.359" y="-136.369" font-family="'RuneAMN_Sans'" font-size="13" rotate="-46.178"> </tspan><tspan x="330.849" y="-141.047" font-family="'RuneAMN_Sans'" font-size="13" rotate="-47.009">s</tspan><tspan x="335.276" y="-145.796" font-family="'RuneAMN_Sans'" font-size="13" rotate="-47.84">e</tspan><tspan x="339.612" y="-150.583" font-family="'RuneAMN_Sans'" font-size="13" rotate="-48.668">d</tspan><tspan x="343.898" y="-155.458" font-family="'RuneAMN_Sans'" font-size="13" rotate="-49.5"> </tspan><tspan x="348.107" y="-160.385" font-family="'RuneAMN_Sans'" font-size="13" rotate="-50.33">d</tspan><tspan x="352.249" y="-165.379" font-family="'RuneAMN_Sans'" font-size="13" rotate="-51.162">o</tspan><tspan x="356.311" y="-170.425" font-family="'RuneAMN_Sans'" font-size="13" rotate="-51.993"> </tspan><tspan x="360.295" y="-175.521" font-family="'RuneAMN_Sans'" font-size="13" rotate="-52.822">e</tspan><tspan x="364.21" y="-180.684" font-family="'RuneAMN_Sans'" font-size="13" rotate="-53.652">i</tspan><tspan x="368.058" y="-185.913" font-family="'RuneAMN_Sans'" font-size="13" rotate="-54.484">u</tspan><tspan x="371.811" y="-191.17" font-family="'RuneAMN_Sans'" font-size="13" rotate="-55.311">s</tspan><tspan x="375.495" y="-196.494" font-family="'RuneAMN_Sans'" font-size="13" rotate="-56.14">m</tspan><tspan x="379.11" y="-201.881" font-family="'RuneAMN_Sans'" font-size="13" rotate="-56.969">o</tspan><tspan x="382.642" y="-207.312" font-family="'RuneAMN_Sans'" font-size="13" rotate="-57.797">d</tspan><tspan x="386.103" y="-212.808" font-family="'RuneAMN_Sans'" font-size="13" rotate="-58.626"> </tspan><tspan x="389.469" y="-218.327" font-family="'RuneAMN_Sans'" font-size="13" rotate="-59.451">t</tspan><tspan x="392.763" y="-223.908" font-family="'RuneAMN_Sans'" font-size="13" rotate="-60.276">e</tspan><tspan x="395.973" y="-229.531" font-family="'RuneAMN_Sans'" font-size="13" rotate="-61.099">m</tspan><tspan x="399.11" y="-235.213" font-family="'RuneAMN_Sans'" font-size="13" rotate="-61.924">p</tspan><tspan x="402.152" y="-240.915" font-family="'RuneAMN_Sans'" font-size="13" rotate="-62.743">o</tspan><tspan x="405.121" y="-246.679" font-family="'RuneAMN_Sans'" font-size="13" rotate="-63.563">r</tspan><tspan x="408.015" y="-252.498" font-family="'RuneAMN_Sans'" font-size="13" rotate="-64.383"> </tspan><tspan x="410.814" y="-258.336" font-family="'RuneAMN_Sans'" font-size="13" rotate="-65.199">i</tspan><tspan x="413.527" y="-264.207" font-family="'RuneAMN_Sans'" font-size="13" rotate="-66.012">n</tspan><tspan x="416.166" y="-270.137" font-family="'RuneAMN_Sans'" font-size="13" rotate="-66.825">c</tspan><tspan x="418.702" y="-276.103" font-family="'RuneAMN_Sans'" font-size="13" rotate="-67.336">i</tspan><tspan x="421.323" y="-282.327" font-family="'RuneAMN_Sans'" font-size="13" rotate="-69.194">d</tspan><tspan x="423.665" y="-288.375" font-family="'RuneAMN_Sans'" font-size="13" rotate="-69.285">i</tspan><tspan x="425.956" y="-294.434" font-family="'RuneAMN_Sans'" font-size="13" rotate="-70.096">d</tspan><tspan x="428.163" y="-300.527" font-family="'RuneAMN_Sans'" font-size="13" rotate="-70.909">u</tspan><tspan x="430.284" y="-306.654" font-family="'RuneAMN_Sans'" font-size="13" rotate="-71.725">n</tspan><tspan x="432.317" y="-312.813" font-family="'RuneAMN_Sans'" font-size="13" rotate="-72.543">t</tspan><tspan x="434.259" y="-318.983" font-family="'RuneAMN_Sans'" font-size="13" rotate="-73.36"> </tspan><tspan x="436.118" y="-325.206" font-family="'RuneAMN_Sans'" font-size="13" rotate="-74.182">u</tspan><tspan x="437.878" y="-331.417" font-family="'RuneAMN_Sans'" font-size="13" rotate="-75.002">t</tspan><tspan x="439.556" y="-337.68" font-family="'RuneAMN_Sans'" font-size="13" rotate="-75.825"> </tspan><tspan x="441.145" y="-343.971" font-family="'RuneAMN_Sans'" font-size="13" rotate="-76.651">l</tspan><tspan x="442.64" y="-350.269" font-family="'RuneAMN_Sans'" font-size="13" rotate="-77.476">a</tspan><tspan x="444.045" y="-356.594" font-family="'RuneAMN_Sans'" font-size="13" rotate="-78.303">b</tspan><tspan x="445.356" y="-362.925" font-family="'RuneAMN_Sans'" font-size="13" rotate="-79.128">o</tspan><tspan x="446.581" y="-369.303" font-family="'RuneAMN_Sans'" font-size="13" rotate="-79.959">r</tspan><tspan x="447.711" y="-375.685" font-family="'RuneAMN_Sans'" font-size="13" rotate="-80.788">e</tspan><tspan x="448.747" y="-382.068" font-family="'RuneAMN_Sans'" font-size="13" rotate="-81.616"> </tspan><tspan x="449.694" y="-388.497" font-family="'RuneAMN_Sans'" font-size="13" rotate="-82.448">e</tspan><tspan x="450.546" y="-394.926" font-family="'RuneAMN_Sans'" font-size="13" rotate="-83.279">t</tspan><tspan x="451.305" y="-401.355" font-family="'RuneAMN_Sans'" font-size="13" rotate="-84.109"> </tspan><tspan x="451.968" y="-407.783" font-family="'RuneAMN_Sans'" font-size="13" rotate="-84.937">d</tspan><tspan x="452.541" y="-414.252" font-family="'RuneAMN_Sans'" font-size="13" rotate="-85.77">o</tspan><tspan x="453.018" y="-420.697" font-family="'RuneAMN_Sans'" font-size="13" rotate="-86.598">l</tspan><tspan x="453.403" y="-427.182" font-family="'RuneAMN_Sans'" font-size="13" rotate="-87.431">o</tspan><tspan x="453.694" y="-433.639" font-family="'RuneAMN_Sans'" font-size="13" rotate="-88.259">r</tspan><tspan x="453.889" y="-440.113" font-family="'RuneAMN_Sans'" font-size="13" rotate="-89.089">e</tspan><tspan x="453.993" y="-446.58" font-family="'RuneAMN_Sans'" font-size="13" rotate="-89.918"> </tspan><tspan x="454.003" y="-453.06" font-family="'RuneAMN_Sans'" font-size="13" rotate="-90.747">m</tspan><tspan x="453.918" y="-459.553" font-family="'RuneAMN_Sans'" font-size="13" rotate="-91.578">a</tspan><tspan x="453.739" y="-466.037" font-family="'RuneAMN_Sans'" font-size="13" rotate="-92.408">g</tspan><tspan x="453.469" y="-472.489" font-family="'RuneAMN_Sans'" font-size="13" rotate="-93.233">n</tspan><tspan x="453.102" y="-478.972" font-family="'RuneAMN_Sans'" font-size="13" rotate="-94.063">a</tspan><tspan x="452.642" y="-485.442" font-family="'RuneAMN_Sans'" font-size="13" rotate="-94.891"> </tspan><tspan x="452.091" y="-491.898" font-family="'RuneAMN_Sans'" font-size="13" rotate="-95.718">a</tspan><tspan x="451.445" y="-498.341" font-family="'RuneAMN_Sans'" font-size="13" rotate="-96.544">l</tspan><tspan x="450.709" y="-504.767" font-family="'RuneAMN_Sans'" font-size="13" rotate="-97.368">i</tspan><tspan x="449.877" y="-511.198" font-family="'RuneAMN_Sans'" font-size="13" rotate="-98.194">q</tspan><tspan x="448.954" y="-517.611" font-family="'RuneAMN_Sans'" font-size="13" rotate="-99.019">u</tspan><tspan x="447.936" y="-524.028" font-family="'RuneAMN_Sans'" font-size="13" rotate="-99.845">a</tspan><tspan x="444.867" y="-530.05" font-family="'Raavi'" font-size="13" rotate="-100.482">.</tspan><tspan x="446.185" y="-533.885" font-family="'RuneAMN_Sans'" font-size="13" rotate="-101.118"> </tspan><tspan x="444.934" y="-540.25" font-family="'RuneAMN_Sans'" font-size="13" rotate="-101.942">U</tspan><tspan x="443.593" y="-546.591" font-family="'RuneAMN_Sans'" font-size="13" rotate="-102.764">t</tspan><tspan x="442.162" y="-552.91" font-family="'RuneAMN_Sans'" font-size="13" rotate="-103.586"> </tspan><tspan x="440.64" y="-559.205" font-family="'RuneAMN_Sans'" font-size="13" rotate="-104.407">e</tspan><tspan x="439.03" y="-565.475" font-family="'RuneAMN_Sans'" font-size="13" rotate="-105.228">n</tspan><tspan x="437.331" y="-571.718" font-family="'RuneAMN_Sans'" font-size="13" rotate="-106.047">i</tspan><tspan x="435.543" y="-577.934" font-family="'RuneAMN_Sans'" font-size="13" rotate="-106.866">m</tspan><tspan x="433.661" y="-584.143" font-family="'RuneAMN_Sans'" font-size="13" rotate="-107.687"> </tspan><tspan x="431.69" y="-590.322" font-family="'RuneAMN_Sans'" font-size="13" rotate="-108.508">a</tspan><tspan x="429.639" y="-596.451" font-family="'RuneAMN_Sans'" font-size="13" rotate="-109.325">d</tspan><tspan x="427.486" y="-602.588" font-family="'RuneAMN_Sans'" font-size="13" rotate="-110.148"> </tspan><tspan x="425.261" y="-608.656" font-family="'RuneAMN_Sans'" font-size="13" rotate="-110.965">m</tspan><tspan x="422.935" y="-614.727" font-family="'RuneAMN_Sans'" font-size="13" rotate="-111.787">i</tspan><tspan x="420.537" y="-620.726" font-family="'RuneAMN_Sans'" font-size="13" rotate="-112.603">n</tspan><tspan x="418.046" y="-626.709" font-family="'RuneAMN_Sans'" font-size="13" rotate="-113.422">i</tspan><tspan x="415.47" y="-632.656" font-family="'RuneAMN_Sans'" font-size="13" rotate="-114.241">m</tspan><tspan x="412.818" y="-638.546" font-family="'RuneAMN_Sans'" font-size="13" rotate="-115.058"> </tspan><tspan x="410.064" y="-644.438" font-family="'RuneAMN_Sans'" font-size="13" rotate="-115.88">v</tspan><tspan x="407.244" y="-650.251" font-family="'RuneAMN_Sans'" font-size="13" rotate="-116.697">e</tspan><tspan x="404.321" y="-656.062" font-family="'RuneAMN_Sans'" font-size="13" rotate="-117.52">n</tspan><tspan x="401.335" y="-661.795" font-family="'RuneAMN_Sans'" font-size="13" rotate="-118.337">i</tspan><tspan x="398.266" y="-667.486" font-family="'RuneAMN_Sans'" font-size="13" rotate="-119.155">a</tspan><tspan x="395.095" y="-673.171" font-family="'RuneAMN_Sans'" font-size="13" rotate="-119.979">m</tspan><tspan x="390.151" y="-677.753" font-family="'Raavi'" font-size="13" rotate="-120.611">,</tspan><tspan x="390.054" y="-681.832" font-family="'RuneAMN_Sans'" font-size="13" rotate="-121.249"> </tspan><tspan x="386.696" y="-687.366" font-family="'RuneAMN_Sans'" font-size="13" rotate="-122.069">q</tspan><tspan x="383.258" y="-692.853" font-family="'RuneAMN_Sans'" font-size="13" rotate="-122.89">u</tspan><tspan x="379.739" y="-698.294" font-family="'RuneAMN_Sans'" font-size="13" rotate="-123.712">i</tspan><tspan x="376.143" y="-703.686" font-family="'RuneAMN_Sans'" font-size="13" rotate="-124.534">s</tspan><tspan x="372.466" y="-709.028" font-family="'RuneAMN_Sans'" font-size="13" rotate="-125.358"> </tspan><tspan x="368.723" y="-714.304" font-family="'RuneAMN_Sans'" font-size="13" rotate="-126.18">n</tspan><tspan x="364.902" y="-719.528" font-family="'RuneAMN_Sans'" font-size="13" rotate="-127.003">o</tspan><tspan x="361.004" y="-724.701" font-family="'RuneAMN_Sans'" font-size="13" rotate="-127.827">s</tspan><tspan x="357.029" y="-729.821" font-family="'RuneAMN_Sans'" font-size="13" rotate="-128.652">t</tspan><tspan x="352.991" y="-734.869" font-family="'RuneAMN_Sans'" font-size="13" rotate="-129.476">r</tspan><tspan x="348.864" y="-739.881" font-family="'RuneAMN_Sans'" font-size="13" rotate="-130.304">u</tspan><tspan x="344.661" y="-744.837" font-family="'RuneAMN_Sans'" font-size="13" rotate="-131.132">d</tspan><tspan x="340.411" y="-749.703" font-family="'RuneAMN_Sans'" font-size="13" rotate="-131.957"> </tspan><tspan x="336.087" y="-754.513" font-family="'RuneAMN_Sans'" font-size="13" rotate="-132.783">e</tspan><tspan x="331.675" y="-759.28" font-family="'RuneAMN_Sans'" font-size="13" rotate="-133.613">x</tspan><tspan x="327.204" y="-763.973" font-family="'RuneAMN_Sans'" font-size="13" rotate="-134.442">e</tspan><tspan x="322.661" y="-768.606" font-family="'RuneAMN_Sans'" font-size="13" rotate="-135.272">r</tspan><tspan x="318.06" y="-773.164" font-family="'RuneAMN_Sans'" font-size="13" rotate="-136.101">c</tspan><tspan x="313.388" y="-777.659" font-family="'RuneAMN_Sans'" font-size="13" rotate="-136.931">i</tspan><tspan x="308.661" y="-782.078" font-family="'RuneAMN_Sans'" font-size="13" rotate="-137.76">t</tspan><tspan x="303.864" y="-786.435" font-family="'RuneAMN_Sans'" font-size="13" rotate="-138.591">a</tspan><tspan x="299.013" y="-790.712" font-family="'RuneAMN_Sans'" font-size="13" rotate="-139.42">t</tspan><tspan x="294.094" y="-794.926" font-family="'RuneAMN_Sans'" font-size="13" rotate="-140.25">i</tspan><tspan x="289.105" y="-799.075" font-family="'RuneAMN_Sans'" font-size="13" rotate="-141.082">o</tspan><tspan x="284.066" y="-803.144" font-family="'RuneAMN_Sans'" font-size="13" rotate="-141.912">n</tspan><tspan x="278.959" y="-807.147" font-family="'RuneAMN_Sans'" font-size="13" rotate="-142.744"> </tspan><tspan x="273.803" y="-811.069" font-family="'RuneAMN_Sans'" font-size="13" rotate="-143.574">u</tspan><tspan x="268.598" y="-814.911" font-family="'RuneAMN_Sans'" font-size="13" rotate="-144.403">l</tspan><tspan x="263.328" y="-818.683" font-family="'RuneAMN_Sans'" font-size="13" rotate="-145.233">l</tspan><tspan x="258.011" y="-822.374" font-family="'RuneAMN_Sans'" font-size="13" rotate="-146.061">a</tspan><tspan x="252.631" y="-825.995" font-family="'RuneAMN_Sans'" font-size="13" rotate="-146.891">m</tspan><tspan x="247.204" y="-829.534" font-family="'RuneAMN_Sans'" font-size="13" rotate="-147.719">c</tspan><tspan x="241.734" y="-832.99" font-family="'RuneAMN_Sans'" font-size="13" rotate="-148.545">o</tspan><tspan x="236.202" y="-836.374" font-family="'RuneAMN_Sans'" font-size="13" rotate="-149.372"> </tspan><tspan x="230.627" y="-839.676" font-family="'RuneAMN_Sans'" font-size="13" rotate="-150.197">l</tspan><tspan x="225.009" y="-842.892" font-family="'RuneAMN_Sans'" font-size="13" rotate="-151.021">a</tspan><tspan x="219.332" y="-846.037" font-family="'RuneAMN_Sans'" font-size="13" rotate="-151.845">b</tspan><tspan x="213.636" y="-849.086" font-family="'RuneAMN_Sans'" font-size="13" rotate="-152.664">o</tspan><tspan x="207.88" y="-852.062" font-family="'RuneAMN_Sans'" font-size="13" rotate="-153.484">r</tspan><tspan x="202.066" y="-854.962" font-family="'RuneAMN_Sans'" font-size="13" rotate="-154.304">i</tspan><tspan x="196.234" y="-857.769" font-family="'RuneAMN_Sans'" font-size="13" rotate="-155.119">s</tspan><tspan x="190.346" y="-860.499" font-family="'RuneAMN_Sans'" font-size="13" rotate="-155.935"> </tspan><tspan x="184.443" y="-863.136" font-family="'RuneAMN_Sans'" font-size="13" rotate="-156.745">n</tspan><tspan x="178.483" y="-865.684" font-family="'RuneAMN_Sans'" font-size="13" rotate="-157.336">i</tspan><tspan x="172.262" y="-868.313" font-family="'RuneAMN_Sans'" font-size="13" rotate="-159.194">s</tspan><tspan x="166.215" y="-870.66" font-family="'RuneAMN_Sans'" font-size="13" rotate="-159.206">i</tspan><tspan x="160.159" y="-872.96" font-family="'RuneAMN_Sans'" font-size="13" rotate="-160.017"> </tspan><tspan x="154.045" y="-875.183" font-family="'RuneAMN_Sans'" font-size="13" rotate="-160.833">u</tspan><tspan x="147.942" y="-877.305" font-family="'RuneAMN_Sans'" font-size="13" rotate="-161.645">t</tspan><tspan x="141.782" y="-879.349" font-family="'RuneAMN_Sans'" font-size="13" rotate="-162.463"> </tspan><tspan x="135.614" y="-881.298" font-family="'RuneAMN_Sans'" font-size="13" rotate="-163.281">a</tspan><tspan x="129.413" y="-883.162" font-family="'RuneAMN_Sans'" font-size="13" rotate="-164.101">l</tspan><tspan x="123.183" y="-884.936" font-family="'RuneAMN_Sans'" font-size="13" rotate="-164.923">i</tspan><tspan x="116.92" y="-886.623" font-family="'RuneAMN_Sans'" font-size="13" rotate="-165.746">q</tspan><tspan x="110.65" y="-888.216" font-family="'RuneAMN_Sans'" font-size="13" rotate="-166.569">u</tspan><tspan x="104.333" y="-889.724" font-family="'RuneAMN_Sans'" font-size="13" rotate="-167.397">i</tspan><tspan x="98.006" y="-891.139" font-family="'RuneAMN_Sans'" font-size="13" rotate="-168.224">p</tspan><tspan x="91.677" y="-892.459" font-family="'RuneAMN_Sans'" font-size="13" rotate="-169.05"> </tspan><tspan x="85.32" y="-893.689" font-family="'RuneAMN_Sans'" font-size="13" rotate="-169.877">e</tspan><tspan x="78.939" y="-894.829" font-family="'RuneAMN_Sans'" font-size="13" rotate="-170.707">x</tspan><tspan x="72.534" y="-895.877" font-family="'RuneAMN_Sans'" font-size="13" rotate="-171.538"> </tspan><tspan x="66.149" y="-896.827" font-family="'RuneAMN_Sans'" font-size="13" rotate="-172.364">e</tspan><tspan x="59.721" y="-897.689" font-family="'RuneAMN_Sans'" font-size="13" rotate="-173.196">a</tspan><tspan x="53.291" y="-898.456" font-family="'RuneAMN_Sans'" font-size="13" rotate="-174.025"> </tspan><tspan x="46.84" y="-899.132" font-family="'RuneAMN_Sans'" font-size="13" rotate="-174.857">c</tspan><tspan x="40.392" y="-899.712" font-family="'RuneAMN_Sans'" font-size="13" rotate="-175.687">o</tspan><tspan x="33.926" y="-900.2" font-family="'RuneAMN_Sans'" font-size="13" rotate="-176.518">m</tspan><tspan x="27.462" y="-900.593" font-family="'RuneAMN_Sans'" font-size="13" rotate="-177.348">m</tspan><tspan x="21.005" y="-900.893" font-family="'RuneAMN_Sans'" font-size="13" rotate="-178.177">o</tspan><tspan x="14.51" y="-901.099" font-family="'RuneAMN_Sans'" font-size="13" rotate="-179.009">d</tspan><tspan x="8.021" y="-901.212" font-family="'RuneAMN_Sans'" font-size="13" rotate="-179.84">o</tspan><tspan x="1.561" y="-901.229" font-family="'RuneAMN_Sans'" font-size="13" rotate="179.332"> </tspan><tspan x="-4.934" y="-901.155" font-family="'RuneAMN_Sans'" font-size="13" rotate="178.501">c</tspan><tspan x="-11.397" y="-900.985" font-family="'RuneAMN_Sans'" font-size="13" rotate="177.674">o</tspan><tspan x="-17.87" y="-900.723" font-family="'RuneAMN_Sans'" font-size="13" rotate="176.846">n</tspan><tspan x="-24.333" y="-900.367" font-family="'RuneAMN_Sans'" font-size="13" rotate="176.019">s</tspan><tspan x="-30.804" y="-899.917" font-family="'RuneAMN_Sans'" font-size="13" rotate="175.19">e</tspan><tspan x="-37.263" y="-899.373" font-family="'RuneAMN_Sans'" font-size="13" rotate="174.363">q</tspan><tspan x="-43.707" y="-898.737" font-family="'RuneAMN_Sans'" font-size="13" rotate="173.537">u</tspan><tspan x="-50.134" y="-898.009" font-family="'RuneAMN_Sans'" font-size="13" rotate="172.713">a</tspan><tspan x="-56.589" y="-897.184" font-family="'RuneAMN_Sans'" font-size="13" rotate="171.884">t</tspan><tspan x="-62.687" y="-894.301" font-family="'Raavi'" font-size="13" rotate="171.249">.</tspan><tspan x="-66.488" y="-895.733" font-family="'RuneAMN_Sans'" font-size="13" rotate="170.611"> </tspan><tspan x="-72.874" y="-894.677" font-family="'RuneAMN_Sans'" font-size="13" rotate="169.788">D</tspan><tspan x="-79.261" y="-893.527" font-family="'RuneAMN_Sans'" font-size="13" rotate="168.963">u</tspan><tspan x="-85.628" y="-892.284" font-family="'RuneAMN_Sans'" font-size="13" rotate="168.139">i</tspan><tspan x="-91.972" y="-890.952" font-family="'RuneAMN_Sans'" font-size="13" rotate="167.316">s</tspan><tspan x="-98.294" y="-889.531" font-family="'RuneAMN_Sans'" font-size="13" rotate="166.494"> </tspan><tspan x="-104.59" y="-888.018" font-family="'RuneAMN_Sans'" font-size="13" rotate="165.673">a</tspan><tspan x="-110.862" y="-886.416" font-family="'RuneAMN_Sans'" font-size="13" rotate="164.853">u</tspan><tspan x="-117.107" y="-884.725" font-family="'RuneAMN_Sans'" font-size="13" rotate="164.033">t</tspan><tspan x="-123.327" y="-882.947" font-family="'RuneAMN_Sans'" font-size="13" rotate="163.214">e</tspan><tspan x="-129.539" y="-881.073" font-family="'RuneAMN_Sans'" font-size="13" rotate="162.393"> </tspan><tspan x="-135.721" y="-879.111" font-family="'RuneAMN_Sans'" font-size="13" rotate="161.572">i</tspan><tspan x="-141.853" y="-877.068" font-family="'RuneAMN_Sans'" font-size="13" rotate="160.755">r</tspan><tspan x="-147.974" y="-874.932" font-family="'RuneAMN_Sans'" font-size="13" rotate="159.935">u</tspan><tspan x="-154.063" y="-872.707" font-family="'RuneAMN_Sans'" font-size="13" rotate="159.115">r</tspan><tspan x="-160.118" y="-870.396" font-family="'RuneAMN_Sans'" font-size="13" rotate="158.296">e</tspan><tspan x="-166.141" y="-868" font-family="'RuneAMN_Sans'" font-size="13" rotate="157.477"> </tspan><tspan x="-172.108" y="-865.526" font-family="'RuneAMN_Sans'" font-size="13" rotate="156.66">d</tspan><tspan x="-178.078" y="-862.95" font-family="'RuneAMN_Sans'" font-size="13" rotate="155.838">o</tspan><tspan x="-183.973" y="-860.305" font-family="'RuneAMN_Sans'" font-size="13" rotate="155.022">l</tspan><tspan x="-189.867" y="-857.56" font-family="'RuneAMN_Sans'" font-size="13" rotate="154.2">o</tspan><tspan x="-195.684" y="-854.748" font-family="'RuneAMN_Sans'" font-size="13" rotate="153.383">r</tspan><tspan x="-201.48" y="-851.843" font-family="'RuneAMN_Sans'" font-size="13" rotate="152.563"> </tspan><tspan x="-207.237" y="-848.856" font-family="'RuneAMN_Sans'" font-size="13" rotate="151.743">i</tspan><tspan x="-212.93" y="-845.794" font-family="'RuneAMN_Sans'" font-size="13" rotate="150.925">n</tspan><tspan x="-218.601" y="-842.642" font-family="'RuneAMN_Sans'" font-size="13" rotate="150.104"> </tspan><tspan x="-224.228" y="-839.407" font-family="'RuneAMN_Sans'" font-size="13" rotate="149.282">r</tspan><tspan x="-229.791" y="-836.101" font-family="'RuneAMN_Sans'" font-size="13" rotate="148.462">e</tspan><tspan x="-235.308" y="-832.715" font-family="'RuneAMN_Sans'" font-size="13" rotate="147.641">p</tspan><tspan x="-240.78" y="-829.249" font-family="'RuneAMN_Sans'" font-size="13" rotate="146.82">r</tspan><tspan x="-246.204" y="-825.704" font-family="'RuneAMN_Sans'" font-size="13" rotate="145.998">e</tspan><tspan x="-251.579" y="-822.077" font-family="'RuneAMN_Sans'" font-size="13" rotate="145.175">h</tspan><tspan x="-256.904" y="-818.373" font-family="'RuneAMN_Sans'" font-size="13" rotate="144.351">e</tspan><tspan x="-262.161" y="-814.602" font-family="'RuneAMN_Sans'" font-size="13" rotate="143.529">n</tspan><tspan x="-267.367" y="-810.755" font-family="'RuneAMN_Sans'" font-size="13" rotate="142.705">d</tspan><tspan x="-272.521" y="-806.829" font-family="'RuneAMN_Sans'" font-size="13" rotate="141.881">e</tspan><tspan x="-277.622" y="-802.827" font-family="'RuneAMN_Sans'" font-size="13" rotate="141.055">r</tspan><tspan x="-282.651" y="-798.762" font-family="'RuneAMN_Sans'" font-size="13" rotate="140.231">i</tspan><tspan x="-287.627" y="-794.622" font-family="'RuneAMN_Sans'" font-size="13" rotate="139.406">t</tspan><tspan x="-292.563" y="-790.393" font-family="'RuneAMN_Sans'" font-size="13" rotate="138.576"> </tspan><tspan x="-297.41" y="-786.117" font-family="'RuneAMN_Sans'" font-size="13" rotate="137.751">i</tspan><tspan x="-302.215" y="-781.752" font-family="'RuneAMN_Sans'" font-size="13" rotate="136.922">n</tspan><tspan x="-306.946" y="-777.328" font-family="'RuneAMN_Sans'" font-size="13" rotate="136.094"> </tspan><tspan x="-311.618" y="-772.832" font-family="'RuneAMN_Sans'" font-size="13" rotate="135.265">v</tspan><tspan x="-316.215" y="-768.278" font-family="'RuneAMN_Sans'" font-size="13" rotate="134.437">o</tspan><tspan x="-320.75" y="-763.653" font-family="'RuneAMN_Sans'" font-size="13" rotate="133.607">l</tspan><tspan x="-325.223" y="-758.956" font-family="'RuneAMN_Sans'" font-size="13" rotate="132.777">u</tspan><tspan x="-329.621" y="-754.204" font-family="'RuneAMN_Sans'" font-size="13" rotate="131.947">p</tspan><tspan x="-333.954" y="-749.382" font-family="'RuneAMN_Sans'" font-size="13" rotate="131.117">t</tspan><tspan x="-338.21" y="-744.507" font-family="'RuneAMN_Sans'" font-size="13" rotate="130.287">a</tspan><tspan x="-342.401" y="-739.563" font-family="'RuneAMN_Sans'" font-size="13" rotate="129.456">t</tspan><tspan x="-346.527" y="-734.55" font-family="'RuneAMN_Sans'" font-size="13" rotate="128.624">e</tspan><tspan x="-350.558" y="-729.504" font-family="'RuneAMN_Sans'" font-size="13" rotate="127.796"> </tspan><tspan x="-354.525" y="-724.391" font-family="'RuneAMN_Sans'" font-size="13" rotate="126.967">v</tspan><tspan x="-358.423" y="-719.212" font-family="'RuneAMN_Sans'" font-size="13" rotate="126.136">e</tspan><tspan x="-362.254" y="-713.966" font-family="'RuneAMN_Sans'" font-size="13" rotate="125.304">l</tspan><tspan x="-365.989" y="-708.691" font-family="'RuneAMN_Sans'" font-size="13" rotate="124.476">i</tspan><tspan x="-369.656" y="-703.352" font-family="'RuneAMN_Sans'" font-size="13" rotate="123.648">t</tspan><tspan x="-373.252" y="-697.949" font-family="'RuneAMN_Sans'" font-size="13" rotate="122.817"> </tspan><tspan x="-376.765" y="-692.5" font-family="'RuneAMN_Sans'" font-size="13" rotate="121.989">e</tspan><tspan x="-380.195" y="-687.007" font-family="'RuneAMN_Sans'" font-size="13" rotate="121.163">s</tspan><tspan x="-383.543" y="-681.473" font-family="'RuneAMN_Sans'" font-size="13" rotate="120.338">s</tspan><tspan x="-386.82" y="-675.876" font-family="'RuneAMN_Sans'" font-size="13" rotate="119.513">e</tspan><tspan x="-390.01" y="-670.238" font-family="'RuneAMN_Sans'" font-size="13" rotate="118.689"> </tspan><tspan x="-393.119" y="-664.56" font-family="'RuneAMN_Sans'" font-size="13" rotate="117.867">c</tspan><tspan x="-396.153" y="-658.823" font-family="'RuneAMN_Sans'" font-size="13" rotate="117.045">i</tspan><tspan x="-399.092" y="-653.065" font-family="'RuneAMN_Sans'" font-size="13" rotate="116.228">l</tspan><tspan x="-401.967" y="-647.231" font-family="'RuneAMN_Sans'" font-size="13" rotate="115.407">l</tspan><tspan x="-404.746" y="-641.38" font-family="'RuneAMN_Sans'" font-size="13" rotate="114.592">u</tspan><tspan x="-407.432" y="-635.512" font-family="'RuneAMN_Sans'" font-size="13" rotate="113.782">m</tspan><tspan x="-410.051" y="-629.569" font-family="'RuneAMN_Sans'" font-size="13" rotate="112.968"> </tspan><tspan x="-412.564" y="-623.567" font-family="'RuneAMN_Sans'" font-size="13" rotate="112.664">d</tspan><tspan x="-415.154" y="-617.355" font-family="'RuneAMN_Sans'" font-size="13" rotate="110.806">o</tspan><tspan x="-417.492" y="-611.282" font-family="'RuneAMN_Sans'" font-size="13" rotate="110.505">l</tspan><tspan x="-419.759" y="-605.22" font-family="'RuneAMN_Sans'" font-size="13" rotate="109.694">o</tspan><tspan x="-421.941" y="-599.122" font-family="'RuneAMN_Sans'" font-size="13" rotate="108.881">r</tspan><tspan x="-424.038" y="-592.994" font-family="'RuneAMN_Sans'" font-size="13" rotate="108.066">e</tspan><tspan x="-426.048" y="-586.83" font-family="'RuneAMN_Sans'" font-size="13" rotate="107.248"> </tspan><tspan x="-427.972" y="-580.635" font-family="'RuneAMN_Sans'" font-size="13" rotate="106.428">e</tspan><tspan x="-429.801" y="-574.432" font-family="'RuneAMN_Sans'" font-size="13" rotate="105.609">u</tspan><tspan x="-431.543" y="-568.198" font-family="'RuneAMN_Sans'" font-size="13" rotate="104.787"> </tspan><tspan x="-433.197" y="-561.934" font-family="'RuneAMN_Sans'" font-size="13" rotate="103.963">f</tspan><tspan x="-434.761" y="-555.64" font-family="'RuneAMN_Sans'" font-size="13" rotate="103.138">u</tspan><tspan x="-436.237" y="-549.318" font-family="'RuneAMN_Sans'" font-size="13" rotate="102.31">g</tspan><tspan x="-437.617" y="-542.993" font-family="'RuneAMN_Sans'" font-size="13" rotate="101.483">i</tspan><tspan x="-438.904" y="-536.661" font-family="'RuneAMN_Sans'" font-size="13" rotate="100.658">a</tspan><tspan x="-440.105" y="-530.282" font-family="'RuneAMN_Sans'" font-size="13" rotate="99.828">t</tspan><tspan x="-441.21" y="-523.899" font-family="'RuneAMN_Sans'" font-size="13" rotate="98.999"> </tspan><tspan x="-442.223" y="-517.515" font-family="'RuneAMN_Sans'" font-size="13" rotate="98.172">n</tspan><tspan x="-443.145" y="-511.086" font-family="'RuneAMN_Sans'" font-size="13" rotate="97.34">u</tspan><tspan x="-443.974" y="-504.656" font-family="'RuneAMN_Sans'" font-size="13" rotate="96.509">l</tspan><tspan x="-444.709" y="-498.227" font-family="'RuneAMN_Sans'" font-size="13" rotate="95.68">l</tspan><tspan x="-445.347" y="-491.8" font-family="'RuneAMN_Sans'" font-size="13" rotate="94.852">a</tspan><tspan x="-445.897" y="-485.331" font-family="'RuneAMN_Sans'" font-size="13" rotate="94.019"> </tspan><tspan x="-446.351" y="-478.865" font-family="'RuneAMN_Sans'" font-size="13" rotate="93.189">p</tspan><tspan x="-446.71" y="-472.404" font-family="'RuneAMN_Sans'" font-size="13" rotate="92.359">a</tspan><tspan x="-446.977" y="-465.925" font-family="'RuneAMN_Sans'" font-size="13" rotate="91.528">r</tspan><tspan x="-447.151" y="-459.453" font-family="'RuneAMN_Sans'" font-size="13" rotate="90.699">i</tspan><tspan x="-447.23" y="-452.969" font-family="'RuneAMN_Sans'" font-size="13" rotate="89.868">a</tspan><tspan x="-447.216" y="-446.49" font-family="'RuneAMN_Sans'" font-size="13" rotate="89.039">t</tspan><tspan x="-447.106" y="-440.02" font-family="'RuneAMN_Sans'" font-size="13" rotate="88.211">u</tspan><tspan x="-446.906" y="-433.539" font-family="'RuneAMN_Sans'" font-size="13" rotate="87.382">r</tspan><tspan x="-444.618" y="-427.163" font-family="'Raavi'" font-size="13" rotate="86.739">.</tspan><tspan x="-446.408" y="-423.53" font-family="'RuneAMN_Sans'" font-size="13" rotate="86.101"> </tspan><tspan x="-445.966" y="-417.057" font-family="'RuneAMN_Sans'" font-size="13" rotate="85.272">E</tspan><tspan x="-445.432" y="-410.596" font-family="'RuneAMN_Sans'" font-size="13" rotate="84.445">x</tspan><tspan x="-444.805" y="-404.153" font-family="'RuneAMN_Sans'" font-size="13" rotate="83.619">c</tspan><tspan x="-444.086" y="-397.724" font-family="'RuneAMN_Sans'" font-size="13" rotate="82.794">e</tspan><tspan x="-443.272" y="-391.288" font-family="'RuneAMN_Sans'" font-size="13" rotate="81.968">p</tspan><tspan x="-442.369" y="-384.87" font-family="'RuneAMN_Sans'" font-size="13" rotate="81.143">t</tspan><tspan x="-441.37" y="-378.472" font-family="'RuneAMN_Sans'" font-size="13" rotate="80.319">e</tspan><tspan x="-440.282" y="-372.092" font-family="'RuneAMN_Sans'" font-size="13" rotate="79.497">u</tspan><tspan x="-439.099" y="-365.714" font-family="'RuneAMN_Sans'" font-size="13" rotate="78.672">r</tspan><tspan x="-437.826" y="-359.354" font-family="'RuneAMN_Sans'" font-size="13" rotate="77.849"> </tspan><tspan x="-436.462" y="-353.018" font-family="'RuneAMN_Sans'" font-size="13" rotate="77.026">s</tspan><tspan x="-435.008" y="-346.705" font-family="'RuneAMN_Sans'" font-size="13" rotate="76.204">i</tspan><tspan x="-433.465" y="-340.418" font-family="'RuneAMN_Sans'" font-size="13" rotate="75.383">n</tspan><tspan x="-431.831" y="-334.154" font-family="'RuneAMN_Sans'" font-size="13" rotate="74.563">t</tspan><tspan x="-430.108" y="-327.918" font-family="'RuneAMN_Sans'" font-size="13" rotate="73.744"> </tspan><tspan x="-428.293" y="-321.688" font-family="'RuneAMN_Sans'" font-size="13" rotate="72.922">o</tspan><tspan x="-426.388" y="-315.486" font-family="'RuneAMN_Sans'" font-size="13" rotate="72.101">c</tspan><tspan x="-424.4" y="-309.335" font-family="'RuneAMN_Sans'" font-size="13" rotate="71.284">c</tspan><tspan x="-422.321" y="-303.193" font-family="'RuneAMN_Sans'" font-size="13" rotate="70.464">a</tspan><tspan x="-420.152" y="-297.085" font-family="'RuneAMN_Sans'" font-size="13" rotate="69.644">e</tspan><tspan x="-417.906" y="-291.027" font-family="'RuneAMN_Sans'" font-size="13" rotate="68.827">c</tspan><tspan x="-415.556" y="-284.963" font-family="'RuneAMN_Sans'" font-size="13" rotate="68.005">a</tspan><tspan x="-413.138" y="-278.973" font-family="'RuneAMN_Sans'" font-size="13" rotate="67.189">t</tspan><tspan x="-410.625" y="-273" font-family="'RuneAMN_Sans'" font-size="13" rotate="66.369"> </tspan><tspan x="-408.027" y="-267.062" font-family="'RuneAMN_Sans'" font-size="13" rotate="65.55">c</tspan><tspan x="-405.345" y="-261.161" font-family="'RuneAMN_Sans'" font-size="13" rotate="64.731">u</tspan><tspan x="-402.579" y="-255.3" font-family="'RuneAMN_Sans'" font-size="13" rotate="63.912">p</tspan><tspan x="-399.736" y="-249.494" font-family="'RuneAMN_Sans'" font-size="13" rotate="63.095">i</tspan><tspan x="-396.793" y="-243.695" font-family="'RuneAMN_Sans'" font-size="13" rotate="62.272">d</tspan><tspan x="-393.787" y="-237.972" font-family="'RuneAMN_Sans'" font-size="13" rotate="61.454">a</tspan><tspan x="-390.687" y="-232.274" font-family="'RuneAMN_Sans'" font-size="13" rotate="60.633">t</tspan><tspan x="-387.503" y="-226.62" font-family="'RuneAMN_Sans'" font-size="13" rotate="59.812">a</tspan><tspan x="-384.251" y="-221.027" font-family="'RuneAMN_Sans'" font-size="13" rotate="58.993">t</tspan><tspan x="-380.916" y="-215.48" font-family="'RuneAMN_Sans'" font-size="13" rotate="58.172"> </tspan><tspan x="-377.502" y="-209.978" font-family="'RuneAMN_Sans'" font-size="13" rotate="57.352">n</tspan><tspan x="-374.008" y="-204.524" font-family="'RuneAMN_Sans'" font-size="13" rotate="56.53">o</tspan><tspan x="-370.434" y="-199.118" font-family="'RuneAMN_Sans'" font-size="13" rotate="55.708">n</tspan><tspan x="-366.781" y="-193.76" font-family="'RuneAMN_Sans'" font-size="13" rotate="54.884"> </tspan><tspan x="-363.049" y="-188.453" font-family="'RuneAMN_Sans'" font-size="13" rotate="54.06">p</tspan><tspan x="-359.249" y="-183.214" font-family="'RuneAMN_Sans'" font-size="13" rotate="53.237">r</tspan><tspan x="-355.375" y="-178.026" font-family="'RuneAMN_Sans'" font-size="13" rotate="52.414">o</tspan><tspan x="-351.423" y="-172.891" font-family="'RuneAMN_Sans'" font-size="13" rotate="51.589">i</tspan><tspan x="-347.393" y="-167.81" font-family="'RuneAMN_Sans'" font-size="13" rotate="50.763">d</tspan><tspan x="-343.302" y="-162.799" font-family="'RuneAMN_Sans'" font-size="13" rotate="49.938">e</tspan><tspan x="-339.135" y="-157.842" font-family="'RuneAMN_Sans'" font-size="13" rotate="49.112">n</tspan><tspan x="-334.892" y="-152.943" font-family="'RuneAMN_Sans'" font-size="13" rotate="48.285">t</tspan><tspan x="-329.102" y="-149.445" font-family="'Raavi'" font-size="13" rotate="47.645">,</tspan><tspan x="-328.188" y="-145.481" font-family="'RuneAMN_Sans'" font-size="13" rotate="47.004"> </tspan><tspan x="-323.771" y="-140.744" font-family="'RuneAMN_Sans'" font-size="13" rotate="46.176">s</tspan><tspan x="-319.282" y="-136.066" font-family="'RuneAMN_Sans'" font-size="13" rotate="45.347">u</tspan><tspan x="-314.736" y="-131.464" font-family="'RuneAMN_Sans'" font-size="13" rotate="44.519">n</tspan><tspan x="-310.117" y="-126.923" font-family="'RuneAMN_Sans'" font-size="13" rotate="43.69">t</tspan><tspan x="-305.427" y="-122.442" font-family="'RuneAMN_Sans'" font-size="13" rotate="42.859"> </tspan><tspan x="-300.682" y="-118.039" font-family="'RuneAMN_Sans'" font-size="13" rotate="42.03">i</tspan><tspan x="-295.867" y="-113.698" font-family="'RuneAMN_Sans'" font-size="13" rotate="41.199">n</tspan><tspan x="-290.999" y="-109.436" font-family="'RuneAMN_Sans'" font-size="13" rotate="40.37"> </tspan><tspan x="-286.063" y="-105.24" font-family="'RuneAMN_Sans'" font-size="13" rotate="39.539">c</tspan><tspan x="-281.057" y="-101.107" font-family="'RuneAMN_Sans'" font-size="13" rotate="38.707">u</tspan><tspan x="-276.017" y="-97.068" font-family="'RuneAMN_Sans'" font-size="13" rotate="37.879">l</tspan><tspan x="-270.894" y="-93.082" font-family="'RuneAMN_Sans'" font-size="13" rotate="37.047">p</tspan><tspan x="-265.72" y="-89.178" font-family="'RuneAMN_Sans'" font-size="13" rotate="36.217">a</tspan><tspan x="-260.498" y="-85.353" font-family="'RuneAMN_Sans'" font-size="13" rotate="35.387"> </tspan><tspan x="-255.211" y="-81.598" font-family="'RuneAMN_Sans'" font-size="13" rotate="34.557">q</tspan><tspan x="-249.879" y="-77.925" font-family="'RuneAMN_Sans'" font-size="13" rotate="33.729">u</tspan><tspan x="-244.481" y="-74.321" font-family="'RuneAMN_Sans'" font-size="13" rotate="32.899">i</tspan><tspan x="-239.04" y="-70.801" font-family="'RuneAMN_Sans'" font-size="13" rotate="32.071"> </tspan><tspan x="-233.553" y="-67.362" font-family="'RuneAMN_Sans'" font-size="13" rotate="31.244">o</tspan><tspan x="-228.025" y="-64.007" font-family="'RuneAMN_Sans'" font-size="13" rotate="30.42">f</tspan><tspan x="-222.434" y="-60.725" font-family="'RuneAMN_Sans'" font-size="13" rotate="29.594">f</tspan><tspan x="-216.803" y="-57.527" font-family="'RuneAMN_Sans'" font-size="13" rotate="28.771">i</tspan><tspan x="-211.11" y="-54.4" font-family="'RuneAMN_Sans'" font-size="13" rotate="27.946">c</tspan><tspan x="-205.397" y="-51.371" font-family="'RuneAMN_Sans'" font-size="13" rotate="27.127">i</tspan><tspan x="-199.626" y="-48.413" font-family="'RuneAMN_Sans'" font-size="13" rotate="26.307">a</tspan><tspan x="-193.818" y="-45.542" font-family="'RuneAMN_Sans'" font-size="13" rotate="25.489"> </tspan><tspan x="-187.973" y="-42.754" font-family="'RuneAMN_Sans'" font-size="13" rotate="24.674">d</tspan><tspan x="-182.089" y="-40.052" font-family="'RuneAMN_Sans'" font-size="13" rotate="23.861">e</tspan><tspan x="-176.173" y="-37.434" font-family="'RuneAMN_Sans'" font-size="13" rotate="23.05">s</tspan><tspan x="-170.177" y="-34.909" font-family="'RuneAMN_Sans'" font-size="13" rotate="22.664">e</tspan><tspan x="-163.967" y="-32.31" font-family="'RuneAMN_Sans'" font-size="13" rotate="20.806">r</tspan><tspan x="-157.896" y="-29.967" font-family="'RuneAMN_Sans'" font-size="13" rotate="20.587">u</tspan><tspan x="-151.835" y="-27.691" font-family="'RuneAMN_Sans'" font-size="13" rotate="19.777">n</tspan><tspan x="-145.74" y="-25.499" font-family="'RuneAMN_Sans'" font-size="13" rotate="18.963">t</tspan><tspan x="-139.612" y="-23.393" font-family="'RuneAMN_Sans'" font-size="13" rotate="18.148"> </tspan><tspan x="-133.451" y="-21.373" font-family="'RuneAMN_Sans'" font-size="13" rotate="17.33">m</tspan><tspan x="-127.278" y="-19.447" font-family="'RuneAMN_Sans'" font-size="13" rotate="16.513">o</tspan><tspan x="-121.054" y="-17.602" font-family="'RuneAMN_Sans'" font-size="13" rotate="15.691">l</tspan><tspan x="-114.821" y="-15.851" font-family="'RuneAMN_Sans'" font-size="13" rotate="14.869">l</tspan><tspan x="-108.557" y="-14.188" font-family="'RuneAMN_Sans'" font-size="13" rotate="14.045">i</tspan><tspan x="-102.264" y="-12.613" font-family="'RuneAMN_Sans'" font-size="13" rotate="13.219">t</tspan><tspan x="-95.966" y="-11.133" font-family="'RuneAMN_Sans'" font-size="13" rotate="12.395"> </tspan><tspan x="-89.639" y="-9.743" font-family="'RuneAMN_Sans'" font-size="13" rotate="11.568">a</tspan><tspan x="-83.286" y="-8.443" font-family="'RuneAMN_Sans'" font-size="13" rotate="10.74">n</tspan><tspan x="-76.93" y="-7.236" font-family="'RuneAMN_Sans'" font-size="13" rotate="9.912">i</tspan><tspan x="-70.548" y="-6.121" font-family="'RuneAMN_Sans'" font-size="13" rotate="9.083">m</tspan><tspan x="-64.142" y="-5.096" font-family="'RuneAMN_Sans'" font-size="13" rotate="8.253"> </tspan><tspan x="-57.735" y="-4.167" font-family="'RuneAMN_Sans'" font-size="13" rotate="7.424">i</tspan><tspan x="-51.306" y="-3.329" font-family="'RuneAMN_Sans'" font-size="13" rotate="6.593">d</tspan><tspan x="-44.877" y="-2.586" font-family="'RuneAMN_Sans'" font-size="13" rotate="5.763"> </tspan><tspan x="-38.427" y="-1.935" font-family="'RuneAMN_Sans'" font-size="13" rotate="4.932">e</tspan><tspan x="-31.979" y="-1.378" font-family="'RuneAMN_Sans'" font-size="13" rotate="4.103">s</tspan><tspan x="-25.513" y="-0.915" font-family="'RuneAMN_Sans'" font-size="13" rotate="3.272">t</tspan><tspan x="-19.052" y="-0.545" font-family="'RuneAMN_Sans'" font-size="13" rotate="2.442"> </tspan></text>
</svg>
