<?xml version="1.0" encoding="utf-8"?>
<!-- Generator: Adobe Illustrator 15.0.0, SVG Export Plug-In . SVG Version: 6.00 Build 0)  -->
<!DOCTYPE svg PUBLIC "-//W3C//DTD SVG 1.1//EN" "http://www.w3.org/Graphics/SVG/1.1/DTD/svg11.dtd">
<svg version="1.1" id="レイヤー_1" xmlns="http://www.w3.org/2000/svg" xmlns:xlink="http://www.w3.org/1999/xlink" x="0px"
	 y="0px" width="1000px" height="1000px" viewBox="0 0 1000 1000" enable-background="new 0 0 1000 1000" xml:space="preserve">
<g>
	<path d="M867.837,549.242l-1.218,10.001l-0.687-0.084c0,0,0.349-2.857-1.822-3.121l-48.573-5.915c-2.171-0.264-2.462,2.6-2.462,2.6
		l-0.687-0.083l0.869-7.144l13.031-17.956l4.286,0.521l-0.084,0.687c-1.771-0.216-3.69,0.304-4.55,1.649l-10.97,15.308l49.658,6.047
		c2.172,0.265,2.521-2.593,2.521-2.593L867.837,549.242z"/>
	<path d="M850.376,514.731l-15.605,6.354l-19.442-10.373l16.722-6.946l15.771,8.397l22.104-9.23
		c0.605-0.843,0.647-1.992,0.647-1.992l0.746,0.026l-0.283,7.938l-0.748-0.027c0,0,0.044-1.208-0.501-2.091l-18.121,7.415
		l17.701,9.158c0.836-0.834,0.483-2.286,0.483-2.286l0.748,0.025l-0.206,5.753l-0.745-0.085c0,0,0.097-1.091-0.391-1.972
		L850.376,514.731z M834.612,506.161l-14.381,5.879l12.041,6.363l14.266-5.883L834.612,506.161z"/>
	<path d="M869.333,468.487l0.689-0.033l0.104,2.127l-30.073,18.001l-12.874-14.705l-9.246,17.277l50.193-2.438
		c2.186-0.105,2.045-2.98,2.045-2.98l0.689-0.033l0.14,2.875l0.21,4.312l0.141,2.875l-0.69,0.034c0,0-0.134-2.76-2.209-2.773
		l-49.501,2.462c-1.646,0.482-1.53,2.897-1.53,2.897l-0.688,0.034l-0.139-2.816l-0.206-4.255l-0.065-0.17l10.616-19.937
		l13.487,15.48l27.903-16.396C869.326,469.525,869.358,469.005,869.333,468.487z"/>
	<path d="M812.762,451.256l-0.96-7.131l0.686-0.092c0,0,0.322,2.396,2.031,2.573l49.016-6.536c2.168-0.292,1.784-3.145,1.784-3.145
		l0.685-0.092l1.343,9.984l-0.685,0.092c0,0-0.384-2.854-2.552-2.562l-47.054,6.446l18.652,3.938l-16.998,8.792l47.126-6.341
		c2.168-0.292,1.784-3.144,1.784-3.144l0.685-0.092l1.343,9.983l-0.685,0.093c0,0-0.384-2.854-2.552-2.562l-49,6.65
		c-1.602,0.622-1.279,3.018-1.279,3.018l-0.685,0.092l-0.959-7.132l0.628-0.084l17.738-8.892l-19.522-3.938L812.762,451.256z"/>
	<path d="M807.421,424.636l-1.583-7.077l0.73-0.163c0,0,0.489,2.19,2.045,2.552l48.402-10.881c2.136-0.478,1.507-3.286,1.507-3.286
		l0.675-0.151l2.198,9.83l-0.676,0.151c0,0-0.615-2.752-2.749-2.275l-11.245,2.456l-16.105,10.265l18.931,2.373l11.233-2.512
		c2.135-0.477,1.507-3.286,1.507-3.286l0.674-0.149l2.197,9.828l-0.674,0.151c0,0-0.615-2.752-2.749-2.275l-48.192,10.774
		c-1.479,1.039-1.014,3.117-1.014,3.117l-0.729,0.163l-1.569-7.021l16.68-10.334L807.421,424.636z M811.802,423.657l16.508,2.089
		l14.203-9.014L811.802,423.657z M828.649,427.262l-14.147,9.001l30.894-6.906L828.649,427.262z"/>
	<path d="M794.646,376.692l45.227-18.665c2.021-0.834,0.924-3.495,0.924-3.495l0.639-0.263l3.843,9.311l-0.639,0.264
		c0,0-1.099-2.661-3.12-1.826l-45.227,18.664c-2.021,0.834-0.924,3.495-0.924,3.495l-0.639,0.265l-3.843-9.313l0.639-0.264
		C791.524,374.866,792.623,377.526,794.646,376.692z"/>
	<path d="M776.427,345.512l-1.322-2.556l0.612-0.317c0,0,1.323,2.556,3.267,1.55l14.057-7.276l-3.631,23.786l40.434-20.929
		l-21.439-10.744l14.057-7.276c1.942-1.005,0.62-3.562,0.62-3.562l0.613-0.317l4.63,8.945l-0.613,0.317c0,0-1.323-2.556-3.266-1.55
		l-10.224,5.292l21.723,10.663l-47.283,24.475l-1.277,0.661l3.836-23.892l-12.778,6.615l-1.984-3.834L776.427,345.512z"/>
	<path d="M806.272,291.167l0.584-0.369l5.382,8.515l-0.584,0.369c0,0-1.537-2.433-3.355-1.216l-23.145,14.556l17.106,9.617
		L776.13,339.15c-1.85,1.168-0.263,3.571-0.263,3.571l-0.584,0.369l-5.381-8.516l0.584-0.369c0,0,1.487,2.464,3.338,1.295
		l22.528-14.235l-17.154-9.586l26.763-16.911C807.812,293.601,806.272,291.167,806.272,291.167z"/>
	<path d="M787.119,265.658l0.597-0.452l3.48,4.585l-0.631,0.407c0,0-0.836-1.102-1.805-1.233l-17.378,13.191l-12.278,17.053
		l-1.661,13.331l39.709-30.142c1.741-1.322-0.009-3.535-0.009-3.535l0.596-0.452l6.057,7.978l-0.597,0.453
		c0,0-1.786-2.258-3.438-1.005l-38.939,29.63c-1.742,1.323-0.002,3.615-0.002,3.615l-0.55,0.418l-4.352-5.732l1.777-15.081
		l12.679-17.574l17.562-13.331C787.92,266.713,787.119,265.658,787.119,265.658z"/>
	<path d="M730.767,283.498l-4.861-5.381l0.555-0.502c0,0,1.505,1.666,3.036,1.213l36.776-33.307
		c1.623-1.466-0.308-3.602-0.308-3.602l0.513-0.463l6.755,7.474l-0.514,0.463c0,0-1.892-2.092-3.514-0.626l-8.581,7.675
		l-8.965,16.866l17.646-7.256l8.542-7.718c1.623-1.467-0.307-3.602-0.307-3.602l0.513-0.463l6.753,7.474l-0.513,0.463
		c0,0-1.891-2.093-3.514-0.626l-36.646,33.11c-0.774,1.632,0.652,3.212,0.652,3.212l-0.556,0.501l-4.823-5.338l9.431-17.209
		L730.767,283.498z M734.098,280.487l15.398-6.312l7.925-14.84L734.098,280.487z M750.538,275.33l-7.882,14.802l23.489-21.224
		L750.538,275.33z"/>
	<path d="M690.888,247.539l-5.695-4.489l0.428-0.542c0,0,2.306,1.817,3.659,0.099l30.284-38.43c1.354-1.718-0.951-3.535-0.951-3.535
		l0.428-0.542l5.695,4.489l-10.077,23.206l20.206-15.225l5.695,4.489l-0.427,0.542c0,0-2.261-1.781-3.615-0.063l-30.284,38.43
		c-1.317,1.673,0.906,3.5,0.906,3.5l-0.428,0.542l-5.696-4.489l10.257-23.432L690.888,247.539z M721.601,208.566l-27.043,34.316
		l17.838-13.427L721.601,208.566z M713.525,230.346l-8.841,20.518l26.899-34.135L713.525,230.346z"/>
	<path d="M694.043,207.85l-2.674,16.637l-18.962,11.23l2.746-17.899l15.365-9.117l3.589-23.684
		c-0.405-0.955-1.367-1.588-1.367-1.588l0.411-0.625l6.638,4.365l-0.411,0.625c0,0-1.01-0.665-2.048-0.658l-3.072,19.338
		l17.02-10.373c-0.278-1.148-1.702-1.602-1.702-1.602l0.411-0.625l4.81,3.163l-0.459,0.594c0,0-0.883-0.649-1.889-0.691
		L694.043,207.85z M678.532,216.872l-2.442,15.342l11.691-6.986l2.379-15.246L678.532,216.872z"/>
	<path d="M679.803,175.319l8.86,4.793l-0.329,0.606c0,0-2.531-1.37-3.572,0.554l-23.28,43.035c-1.041,1.924,1.519,3.243,1.519,3.243
		l-0.329,0.607l-6.328-3.424l-11.939-18.698l2.055-3.797l0.607,0.329c-0.851,1.569-1.067,3.545-0.132,4.838l10.23,15.81
		l23.802-43.997c1.041-1.924-1.491-3.293-1.491-3.293L679.803,175.319z"/>
	<path d="M641.271,178.928l0.217,16.847l-16.753,14.312l-0.362-18.102l13.575-11.613l-0.523-23.945
		c-0.563-0.872-1.619-1.33-1.619-1.33l0.3-0.686l7.284,3.163l-0.298,0.687c0,0-1.107-0.481-2.13-0.297l0.287,19.575l14.987-13.133
		c-0.473-1.083-1.952-1.286-1.952-1.286l0.298-0.687l5.28,2.292l-0.352,0.663c0,0-0.979-0.488-1.979-0.356L641.271,178.928z
		 M627.538,190.473l0.223,15.532l10.319-8.885l-0.269-15.426L627.538,190.473z"/>
	<path d="M605.088,144.445l0.219-0.655l2.021,0.677l5.849,34.556l-18.376,6.654l12.739,14.89l15.958-47.649
		c0.694-2.074-2.034-2.988-2.034-2.988l0.22-0.655l2.729,0.914l4.094,1.371l2.729,0.914l-0.22,0.655c0,0-2.619-0.877-3.388,1.051
		l-15.685,47.012c-0.147,1.711,2.145,2.479,2.145,2.479l-0.219,0.655l-2.675-0.934l-4.04-1.392h-0.183l-14.72-17.093l19.322-6.925
		l-5.143-31.943C606.052,144.819,605.579,144.609,605.088,144.445z"/>
	<path d="M543.485,131.865l0.104-0.683l9.958,1.527l-0.104,0.683c0,0-2.846-0.437-3.119,1.734l-4.203,27.019l18.484-6.599
		l-4.688,30.555c-0.331,2.162,2.522,2.542,2.522,2.542l-0.104,0.683l-9.958-1.527l0.104-0.683c0,0,2.838,0.494,3.168-1.668
		l4.041-26.345l-18.491,6.656l4.801-31.295C546.33,132.301,543.485,131.865,543.485,131.865z"/>
	<path d="M519.825,181.293l3.256-48.819c0.146-2.183-2.727-2.374-2.727-2.374l0.046-0.689l10.051,0.67l-0.046,0.689
		c0,0-2.871-0.191-3.018,1.991l-3.256,48.819c-0.146,2.183,2.728,2.374,2.728,2.374l-0.046,0.689l-10.053-0.67l0.046-0.689
		C516.808,183.284,519.68,183.476,519.825,181.293z"/>
	<path d="M494.63,183.623l-13.18-12.72l-0.051-2.878l11.013,10.628l-0.831-46.793c-0.039-2.188-2.974-2.135-2.974-2.135l-0.013-0.69
		l10.131-0.18l0.012,0.691c0,0-2.878,0.051-2.839,2.238l0.825,46.505l10.551-12.163l0.052,2.878L494.63,183.623z"/>
	<path d="M434.762,135.342l-0.128-0.679l9.956-1.877l0.128,0.679c0,0-2.828,0.533-2.423,2.683l9.066,48.08
		c0.395,2.093,3.223,1.56,3.223,1.56l0.128,0.679l-7.127,1.344l-21-6.994l-0.928-4.921l0.679-0.128
		c0.298,1.584,1.917,4.266,3.021,4.526l17.931,5.933l-2.763-14.65l-21-6.994l-0.938-4.978l0.679-0.128
		c0.288,1.527,1.984,4.312,3.088,4.572l17.986,5.922l-6.229-33.034c-0.405-2.149-3.29-1.605-3.29-1.605L434.762,135.342z"/>
	<path d="M408.626,196.953l-6.985,1.956l-0.202-0.721c0,0,2.162-0.605,2.439-2.177l-13.432-47.77
		c-0.59-2.107-3.362-1.331-3.362-1.331l-0.187-0.665l9.701-2.716l0.187,0.666c0,0-2.716,0.76-2.126,2.867l3.048,11.103
		l11.106,15.542l1.366-19.034l-3.104-11.087c-0.59-2.106-3.361-1.331-3.361-1.331l-0.187-0.665l9.701-2.716l0.187,0.665
		c0,0-2.716,0.761-2.127,2.867l13.315,47.563c1.114,1.421,3.166,0.847,3.166,0.847l0.201,0.721l-6.93,1.939l-11.206-16.112
		L408.626,196.953z M407.416,192.629l1.212-16.599l-9.756-13.708L407.416,192.629z M410.124,175.611l9.74,13.653l-8.535-30.489
		L410.124,175.611z"/>
	<path d="M382.966,205.835l-6.734,2.531l-0.243-0.646c0,0,2.263-0.85,2.053-2.555l-17.339-46.302
		c-0.771-2.047-3.463-1.035-3.463-1.035l-0.243-0.646l9.429-3.543l0.243,0.646c0,0-2.694,1.012-1.924,3.06l16.813,44.41
		l-0.337-19.058l12.372,14.596l-16.725-44.504c-0.771-2.047-3.463-1.035-3.463-1.035l-0.243-0.646l9.429-3.543l0.243,0.646
		c0,0-2.694,1.013-1.924,3.06l17.447,46.262c0.964,1.42,3.227,0.57,3.227,0.57l0.243,0.646l-6.735,2.531l-0.223-0.592
		l-12.639-15.298l0.533,19.906L382.966,205.835z"/>
	<path d="M364.022,214.177l-17.27-6.097l-1.242-2.597l14.43,5.095l-20.184-42.215c-0.943-1.973-3.592-0.707-3.592-0.707
		l-0.298-0.623l9.139-4.37l0.298,0.623c0,0-2.597,1.242-1.652,3.215l20.06,41.956l4.546-15.443l1.241,2.596L364.022,214.177z"/>
	<path d="M263.687,213.812l7.696-6.5l0.483,0.572c0,0-2.199,1.857-0.788,3.528l31.532,37.335c1.41,1.671,3.609-0.186,3.609-0.186
		l0.446,0.528l-7.696,6.5l-0.445-0.528c0,0,2.198-1.857,0.787-3.528l-17.716-20.976l-30.53-6.086l3.826-3.23l0.483,0.572
		c-0.439,0.371-1.451,1.226-0.82,1.973l25.593,5.057l-12.368-14.644c-1.411-1.671-3.61,0.186-3.61,0.186L263.687,213.812z"/>
	<path d="M253.038,251.028l15.76,5.962l7.191,20.831l-16.981-6.287l-5.843-16.884l-22.479-8.274c-1.017,0.205-1.83,1.02-1.83,1.02
		l-0.53-0.528l5.609-5.625l0.53,0.528c0,0-0.854,0.856-1.056,1.874l18.326,6.896l-6.741-18.755c-1.18,0.042-1.911,1.346-1.911,1.346
		l-0.53-0.528l4.065-4.076l0.489,0.569c0,0-0.813,0.733-1.056,1.711L253.038,251.028z M258.758,268.034l14.538,5.476l-4.494-12.855
		l-14.457-5.396L258.758,268.034z"/>
	<path d="M243.441,281.41l13.573,11.406c1.674,1.408,3.526-0.796,3.526-0.796l0.529,0.444l-6.481,7.712l-0.529-0.444
		c0,0,1.852-2.204,0.177-3.611l-15.027-12.628l-9.291,4.524c-0.187,0.67,0.783,1.484,0.783,1.484l-0.444,0.529l-3.878-3.259
		l0.444-0.529c0.661,0.556,1.25,0.75,1.979,0.687l9.216-4.436l-21.24-17.85c-1.675-1.407-3.482,0.833-3.482,0.833l-0.573-0.481
		l6.481-7.711l0.573,0.481c0,0-1.896,2.166-0.221,3.573l22.739,19.109l9.172-4.473c0.282-0.515,0.034-1.024-0.583-1.543l0.444-0.529
		l3.834,3.222l-0.444,0.529c-0.485-0.408-1.22-0.875-1.832-0.863L243.441,281.41z"/>
	<path d="M189.201,297.95l-0.565-0.397l5.797-8.238l0.565,0.397c0,0-1.656,2.354,0.166,3.565l22.327,15.782l2.312-19.488
		l25.278,17.789c1.789,1.259,3.398-1.128,3.398-1.128l0.565,0.397l-5.797,8.238l-0.565-0.397c0,0,1.704-2.321-0.085-3.58
		l-21.795-15.338l-2.265,19.522l-25.89-18.22C190.857,295.597,189.201,297.95,189.201,297.95z"/>
	<path d="M223.274,346.292l-3.622,6.218l-0.597-0.348c0,0,1.217-2.089-0.022-3.278l-42.701-24.94
		c-1.89-1.101-3.339,1.386-3.339,1.386l-0.597-0.348l5.071-8.705l0.597,0.348c0,0-1.449,2.487,0.441,3.588l41.097,23.806
		l-12.304-14.562l18.815,3.499l-41.088-23.935c-1.891-1.101-3.339,1.386-3.339,1.386l-0.597-0.348l5.071-8.705l0.597,0.348
		c0,0-1.449,2.487,0.441,3.588l42.759,24.841c1.646,0.492,2.863-1.597,2.863-1.597l0.597,0.348l-3.622,6.218l-0.547-0.319
		l-19.461-3.875l12.992,15.096L223.274,346.292z"/>
	<path d="M165.938,338.121l4.302-9.108l0.676,0.319c0,0-1.229,2.603,0.749,3.537l44.188,20.87c1.978,0.934,3.207-1.668,3.207-1.668
		l0.625,0.295l-4.302,9.108l-0.625-0.295c0,0,1.229-2.603-0.749-3.537l-24.827-11.726l-30.3,7.142l2.139-4.528l0.677,0.32
		c-0.246,0.521-0.813,1.717,0.073,2.135l25.382-6.027l-17.332-8.186c-1.978-0.934-3.207,1.668-3.207,1.668L165.938,338.121z"/>
	<path d="M203.279,389.766l-16.641,7.646l-2.698-0.999l13.904-6.389l-43.878-16.252c-2.051-0.76-3.07,1.993-3.07,1.993l-0.648-0.239
		l3.518-9.499l0.648,0.239c0,0-1,2.698,1.051,3.458l43.608,16.151l-7.488-14.25l2.699,1L203.279,389.766z"/>
	<path d="M193.222,421.812l-1.907,6.938l-0.666-0.183c0,0,0.641-2.331-0.862-3.162l-47.656-13.163
		c-2.109-0.58-2.872,2.195-2.872,2.195l-0.666-0.184l2.67-9.712l0.666,0.183c0,0-0.763,2.775,1.346,3.354l45.815,12.478
		l-15.621-10.921l19.079-1.438l-45.84-12.604c-2.109-0.58-2.872,2.195-2.872,2.195l-0.666-0.183l2.67-9.713l0.666,0.184
		c0,0-0.763,2.774,1.346,3.354l47.687,13.053c1.716,0.054,2.357-2.277,2.357-2.277l0.666,0.183l-1.907,6.938l-0.611-0.168
		l-19.801,1.241l16.423,11.261L193.222,421.812z"/>
	<path d="M188.849,442.068l-15.079,10.396l-2.831-0.521l12.599-8.687l-46.024-8.46c-2.151-0.396-2.682,2.491-2.682,2.491
		l-0.679-0.125l1.832-9.963l0.679,0.125c0,0-0.521,2.831,1.631,3.226l45.741,8.409l-9.829-12.751l2.831,0.521L188.849,442.068z"/>
	<path d="M130.073,477.43l-0.745-0.07l0.551-5.73l0.74,0.129c0,0-0.132,1.375,0.489,2.129l21.715,2.088l20.586-4.208l10.259-8.67
		l-49.619-4.771c-2.177-0.209-2.39,2.604-2.39,2.604l-0.745-0.07l0.958-9.971l0.745,0.072c0,0-0.218,2.87,1.844,3.068l48.708,4.625
		c2.177,0.209,2.453-2.656,2.453-2.656l0.688,0.065l-0.688,7.162l-11.532,9.878l-21.233,4.319l-21.945-2.11
		C130.199,476.113,130.073,477.43,130.073,477.43z"/>
	<path d="M129.39,508.984l-0.69-0.013l0.034-2.129l31.175-16.019l11.897,15.506l10.344-16.644l-50.247-0.813
		c-2.187-0.036-2.233,2.842-2.233,2.842l-0.691-0.011l0.047-2.877l0.07-4.317l0.046-2.878l0.69,0.012c0,0-0.044,2.763,2.026,2.91
		l49.557,0.744c1.676-0.376,1.715-2.793,1.715-2.793l0.69,0.011l-0.045,2.82l-0.069,4.259l0.055,0.174l-11.882,19.209
		l-12.459-16.321l-28.906,14.559C129.464,507.949,129.398,508.466,129.39,508.984z"/>
	<path d="M133.614,554.603l-0.682,0.108l-1.587-10.006l0.682-0.108c0,0,0.451,2.844,2.611,2.5l48.326-7.665
		c2.104-0.334,1.653-3.177,1.653-3.177l0.682-0.107l1.136,7.164l-7.602,20.789l-4.946,0.783l-0.108-0.682
		c1.592-0.253,4.32-1.793,4.613-2.889l6.452-17.751l-14.725,2.336l-7.602,20.789l-5.003,0.794l-0.108-0.684
		c1.535-0.242,4.368-1.857,4.661-2.954l6.442-17.808l-33.203,5.268c-2.161,0.343-1.701,3.241-1.701,3.241L133.614,554.603z"/>
	<path d="M194.374,582.555l1.75,7.039l-0.67,0.166c0,0-0.708-2.849-2.831-2.32l-47.483,11.803c-2.123,0.528-1.415,3.377-1.415,3.377
		l-0.67,0.167l-1.75-7.039l22.186-12.158l-25.296-0.354l-1.75-7.039l0.67-0.167c0,0,0.694,2.793,2.817,2.266l47.483-11.803
		c2.067-0.515,1.428-3.32,1.428-3.32l0.67-0.167l1.75,7.039l-22.465,12.229L194.374,582.555z M165.95,582.266l19.56-10.794
		l-42.176,10.483L165.95,582.266z M146.22,594.524l42.4-10.539l-22.323-0.323L146.22,594.524z"/>
	<path d="M198.434,605.296l-46.277,15.862c-2.069,0.709-1.136,3.432-1.136,3.432l-0.653,0.225l-3.266-9.527l0.653-0.225
		c0,0,0.933,2.723,3.002,2.014l46.277-15.862c2.069-0.709,1.136-3.432,1.136-3.432l0.653-0.225l3.266,9.527l-0.653,0.224
		C201.436,607.309,200.503,604.587,198.434,605.296z"/>
	<path d="M214.727,637.528l1.165,2.632l-0.631,0.279c0,0-1.165-2.632-3.165-1.746l-14.472,6.407l5.071-23.521l-41.628,18.431
		l20.746,12.026l-14.473,6.408c-2,0.885-0.835,3.517-0.835,3.517l-0.631,0.279l-4.078-9.21l0.631-0.279c0,0,1.165,2.632,3.165,1.746
		l10.525-4.66l-21.032-11.963l48.68-21.553l1.316-0.583l-5.281,23.613l13.157-5.824l1.748,3.945L214.727,637.528z"/>
	<path d="M220.887,655.229l-42.866,23.592c-1.916,1.055-0.528,3.576-0.528,3.576l-0.605,0.332l-4.857-8.824l0.604-0.333
		c0,0,1.388,2.521,3.304,1.467l42.866-23.592c1.917-1.056,0.529-3.576,0.529-3.576l0.605-0.334l4.857,8.826l-0.605,0.333
		C224.191,656.696,222.804,654.175,220.887,655.229z"/>
	<path d="M199.162,716.571l-0.575,0.384l-5.597-8.377l0.574-0.384c0,0,1.599,2.394,3.386,1.13l22.769-15.145l-17.349-9.179
		l25.705-17.175c1.819-1.215,0.172-3.576,0.172-3.576l0.574-0.384l5.597,8.376l-0.574,0.384c0,0-1.551-2.425-3.371-1.21
		l-22.162,14.809l17.397,9.146l-26.327,17.591C197.563,714.178,199.162,716.571,199.162,716.571z"/>
	<path d="M251.582,700.64l-38.209,30.559c-1.708,1.366,0.089,3.612,0.089,3.612l-0.54,0.433l-6.291-7.866l0.54-0.432
		c0,0,1.797,2.248,3.505,0.882l38.209-30.559c1.708-1.365-0.089-3.612-0.089-3.612l0.54-0.433l6.292,7.866l-0.54,0.433
		C255.087,701.521,253.29,699.274,251.582,700.64z"/>
	<path d="M228.195,752.713l-6.938-7.303l0.542-0.517c0,0,1.982,2.088,3.568,0.58l35.431-33.655c1.586-1.506-0.396-3.594-0.396-3.594
		l0.5-0.476l6.938,7.303l-0.501,0.478c0,0-1.981-2.087-3.568-0.581l-19.905,18.91l-4.293,30.832l-3.449-3.632l0.542-0.515
		c0.396,0.417,1.309,1.377,2.018,0.703l3.554-25.844l-13.897,13.199c-1.585,1.508,0.396,3.595,0.396,3.595L228.195,752.713z"/>
	<path d="M289.547,740.155l-32.464,36.601c-1.451,1.638,0.702,3.546,0.702,3.546l-0.458,0.519l-7.536-6.686l0.458-0.517
		c0,0,2.153,1.91,3.604,0.272l32.464-36.602c1.45-1.636-0.702-3.546-0.702-3.546l0.458-0.518l7.535,6.685l-0.458,0.518
		C293.151,740.429,290.998,738.519,289.547,740.155z"/>
	<path d="M296.865,768.983l10.588-14.218c1.307-1.754-1.001-3.473-1.001-3.473l0.413-0.554l8.078,6.016l-0.413,0.555
		c0,0-2.309-1.719-3.614,0.035l-11.723,15.739l5.06,9.008c0.68,0.147,1.436-0.868,1.436-0.868l0.555,0.412l-3.025,4.063
		l-0.554-0.413c0.516-0.692,0.675-1.291,0.569-2.017l-4.969-8.938l-16.569,22.248c-1.307,1.754,1.036,3.427,1.036,3.427
		l-0.447,0.601l-8.078-6.017l0.447-0.6c0,0,2.272,1.765,3.58,0.011l17.738-23.817l-5.002-8.893
		c-0.529-0.251-1.023,0.025-1.506,0.673l-0.554-0.413l2.991-4.016l0.554,0.413c-0.378,0.508-0.802,1.269-0.753,1.879
		L296.865,768.983z"/>
	<path d="M342.676,776.249l-11.855,8.432l-2.615,12.53l-9.987,8.913l-3.009,14.588c0.443,0.815,1.342,1.44,1.342,1.44l-0.364,0.587
		l-7.34-4.545l0.364-0.588c0,0,1.254,0.709,2.412,0.479l4.888-23.309l-19.813,14.065c0.31,1.141,1.503,1.945,1.503,1.945
		l-0.364,0.588l-4.894-3.03l0.363-0.588c0,0,0.96,0.527,1.968,0.541l11.687-8.267l2.775-13.446l10.467-9.359l2.699-12.885
		c-0.311-1.14-1.533-1.896-1.533-1.896l0.364-0.587l7.34,4.545l-0.363,0.588c0,0-1.224-0.758-2.382-0.527l-4.749,23.192
		l19.674-13.949c-0.31-1.14-1.533-1.896-1.533-1.896l0.364-0.589l4.894,3.031l-0.363,0.587
		C344.613,776.839,343.683,776.263,342.676,776.249z M316.882,792.976l2.866-13.594l-5.988,5.296l-2.542,12.306L316.882,792.976z
		 M326.513,787.7l-5.305,3.756l-2.535,12.512l5.538-4.896L326.513,787.7z"/>
	<path d="M387.174,795.793l6.672,2.695l-0.259,0.641c0,0-2.242-0.905-3.241,0.491l-18.573,45.828
		c-0.819,2.027,1.85,3.105,1.85,3.105l-0.259,0.642l-9.341-3.773l0.259-0.641c0,0,2.669,1.078,3.487-0.95l17.682-44.077
		l-12.651,14.26l0.771-19.122l-17.81,44.089c-0.818,2.027,1.85,3.105,1.85,3.105l-0.26,0.642l-9.34-3.772l0.26-0.641
		c0,0,2.668,1.077,3.487-0.95l18.468-45.871c0.25-1.699-1.99-2.604-1.99-2.604l0.259-0.641l6.672,2.695l-0.237,0.587l-1.051,19.814
		l13.082-15.018L387.174,795.793z"/>
	<path d="M387.294,853.65l-9.632-2.953l0.203-0.66c0,0,2.752,0.844,3.393-1.248l14.345-46.782c0.643-2.092-2.127-2.881-2.127-2.881
		l0.203-0.66l6.881,2.109l15.392,15.979l-1.267,4.129l-0.66-0.202c0.522-1.706,0.348-3.688-0.826-4.771l-13.146-13.484
		l-14.666,47.828c-0.641,2.093,2.111,2.937,2.111,2.937L387.294,853.65z"/>
	<path d="M434.538,812.602l-10.233,47.847c-0.458,2.139,2.357,2.741,2.357,2.741l-0.146,0.676l-9.851-2.107l0.146-0.676
		c0,0,2.813,0.603,3.271-1.536l10.232-47.847c0.459-2.14-2.356-2.741-2.356-2.741l0.144-0.675l9.852,2.105l-0.145,0.677
		C437.81,811.064,434.995,810.462,434.538,812.602z"/>
	<path d="M459.823,813.908l11.24,14.461l-0.357,2.854l-9.393-12.083l-5.817,46.435c-0.272,2.17,2.641,2.535,2.641,2.535
		l-0.086,0.686l-10.052-1.26l0.086-0.687c0,0,2.855,0.358,3.128-1.813l5.782-46.147l-12.169,10.541l0.357-2.854L459.823,813.908z"/>
	<path d="M560.897,865.683l0.088,0.686l-9.992,1.284l-0.088-0.686c0,0,2.854-0.367,2.52-2.528l-3.43-27.13l-15.94,11.451
		l-3.94-30.662c-0.278-2.169-3.126-1.745-3.126-1.745l-0.089-0.686l9.992-1.284l0.088,0.687c0,0-2.861,0.31-2.584,2.479
		l3.398,26.438l15.934-11.51l4.037,31.404C558.043,866.049,560.897,865.683,560.897,865.683z"/>
	<path d="M573.557,807.913l7.03-1.527l0.147,0.676c0,0-2.362,0.514-2.402,2.229l10.443,48.325c0.464,2.138,3.275,1.525,3.275,1.525
		l0.146,0.676l-9.843,2.139l-0.146-0.675c0,0,2.813-0.611,2.348-2.748l-10.194-46.377l-2.431,18.903l-10.125-16.234l10.097,46.458
		c0.464,2.137,3.275,1.525,3.275,1.525l0.146,0.676l-9.843,2.139l-0.146-0.675c0,0,2.813-0.611,2.348-2.749l-10.555-48.302
		c-0.748-1.546-3.109-1.031-3.109-1.031l-0.147-0.675l7.031-1.528l0.134,0.619l10.284,16.967l2.357-19.773L573.557,807.913z"/>
	<path d="M599.652,800.497l6.927-2.148l0.205,0.66c0,0-2.805,0.869-2.156,2.958l14.487,46.731c0.646,2.089,3.45,1.22,3.45,1.22
		l0.205,0.659l-6.928,2.147l-13.4-21.457l1.087,25.274l-6.929,2.146l-0.203-0.658c0,0,2.748-0.854,2.101-2.941l-14.487-46.73
		c-0.63-2.034-3.396-1.236-3.396-1.236l-0.204-0.66l6.927-2.146l13.486,21.73L599.652,800.497z M600.981,828.89l-11.89-18.912
		l12.868,41.509L600.981,828.89z M614.344,847.887l-12.937-41.728l0.949,22.304L614.344,847.887z"/>
	<path d="M648.945,779.321l6.462-3.295l0.313,0.614c0,0-2.615,1.334-1.621,3.283l22.23,43.592c0.993,1.949,3.609,0.615,3.609,0.615
		l0.313,0.615l-6.462,3.295l-16.859-18.866l5.372,24.725l-6.462,3.297l-0.313-0.615c0,0,2.563-1.31,1.569-3.257l-22.229-43.593
		c-0.969-1.896-3.559-0.642-3.559-0.642l-0.313-0.615l6.462-3.296l16.99,19.124L648.945,779.321z M655.087,807.079l-14.936-16.616
		l19.746,38.72L655.087,807.079z M671.489,823.529l-19.852-38.925l4.73,21.819L671.489,823.529z"/>
	<path d="M683.672,798.797l-13.993-9.386l-2.271-21.919l15.108,9.979l1.854,17.77l20.012,13.164c1.037,0.03,2.015-0.578,2.015-0.578
		l0.396,0.636l-6.74,4.202l-0.396-0.635c0,0,1.025-0.641,1.454-1.585l-16.279-10.877l2.304,19.795
		c1.159,0.228,2.167-0.876,2.167-0.876l0.396,0.635l-4.884,3.046l-0.349-0.665c0,0,0.959-0.53,1.417-1.427L683.672,798.797z
		 M681.964,780.937l-12.914-8.635l1.457,13.54l12.854,8.537L681.964,780.937z"/>
	<path d="M714.704,732.533l5.376-4.78l0.459,0.518c0,0-1.808,1.604-0.998,3.12l32.804,36.987c1.453,1.635,3.604-0.277,3.604-0.277
		l0.459,0.518l-7.527,6.69l-0.459-0.516c0,0,2.15-1.912,0.697-3.547l-31.633-35.41l7.155,17.665l-16.785-9.182l31.585,35.529
		c1.452,1.636,3.604-0.276,3.604-0.276l0.459,0.517l-7.526,6.691l-0.459-0.518c0,0,2.149-1.911,0.696-3.546l-32.89-36.911
		c-1.41-0.979-3.217,0.626-3.217,0.626l-0.459-0.517l5.377-4.779l0.421,0.474l17.283,9.739l-7.645-18.387L714.704,732.533z"/>
	<path d="M732.979,718.354l35.512,33.656c1.588,1.505,3.566-0.585,3.566-0.585l0.502,0.477l-6.93,7.312l-0.501-0.476
		c0,0,1.979-2.089,0.393-3.595l-35.513-33.655c-1.587-1.505-3.566,0.584-3.566,0.584l-0.501-0.477l6.93-7.311l0.501,0.475
		C733.372,714.761,731.394,716.85,732.979,718.354z"/>
	<path d="M797.997,720.368l0.585,0.467l-3.591,4.5l-0.549-0.512c0,0,0.86-1.08,0.752-2.052l-17.055-13.607l-19.546-7.715
		l-13.331,1.662l38.969,31.093c1.711,1.364,3.425-0.877,3.425-0.877l0.585,0.467l-6.247,7.83l-0.585-0.467
		c0,0,1.75-2.286,0.13-3.578l-38.284-30.475c-1.71-1.363-3.505,0.887-3.505,0.887l-0.54-0.432l4.488-5.625l15.056-1.979
		l20.149,7.976l17.233,13.751C797.171,721.403,797.997,720.368,797.997,720.368z"/>
	<path d="M815.834,694.102l0.575,0.384l-5.587,8.382l-0.574-0.383c0,0,1.596-2.396-0.256-3.561l-22.72-15.211l-1.817,19.54
		l-25.721-17.142c-1.82-1.214-3.368,1.214-3.368,1.214l-0.574-0.383l5.586-8.383l0.574,0.384c0,0-1.645,2.362,0.177,3.575
		l22.177,14.779l1.77-19.572l26.344,17.558C814.238,696.496,815.834,694.102,815.834,694.102z"/>
	<path d="M780.513,646.591l3.49-6.357l0.655,0.359c0,0-1.08,1.969-0.15,3.267l43.524,23.821c1.918,1.054,3.303-1.471,3.303-1.471
		l0.605,0.333l-4.848,8.83l-0.604-0.332c0,0,1.356-2.473-0.562-3.525l-10.063-5.589l-18.873-2.938l12.642,14.292l10.094,5.539
		c1.916,1.053,3.302-1.472,3.302-1.472l0.604,0.332l-4.847,8.831l-0.605-0.332c0,0,1.357-2.473-0.561-3.524l-43.295-23.763
		c-1.796-0.197-2.82,1.669-2.82,1.669l-0.655-0.358l3.461-6.308l19.351,3.266L780.513,646.591z M794.713,662.592l-16.567-2.593
		l27.752,15.23L794.713,662.592z M784.449,648.751l11.011,12.479l16.619,2.62L784.449,648.751z"/>
	<path d="M820.22,643.188l-16.848,0.112l-14.211-16.841l18.104-0.251l11.531,13.646l23.948-0.379c0.876-0.558,1.34-1.609,1.34-1.609
		l0.685,0.302l-3.207,7.267l-0.684-0.302c0,0,0.487-1.104,0.311-2.128l-19.577,0.168l13.042,15.067
		c1.086-0.465,1.299-1.944,1.299-1.944l0.685,0.303l-2.323,5.267l-0.661-0.354c0,0,0.493-0.978,0.368-1.977L820.22,643.188z
		 M808.759,629.385l-15.533,0.128l8.822,10.374l15.428-0.175L808.759,629.385z"/>
	<path d="M801.5,596.558l2.344-6.862l0.654,0.224c0,0-0.949,2.777,1.121,3.484l46.303,15.811c2.07,0.707,3.019-2.071,3.019-2.071
		l0.653,0.225l-2.344,6.862l-25.234-1.804l21.068,14.006l-2.344,6.863l-0.653-0.223c0,0,0.93-2.725-1.141-3.432l-46.304-15.811
		c-2.016-0.688-3,2.017-3,2.017l-0.652-0.223l2.344-6.864l25.507,1.897L801.5,596.558z M825.231,612.204l-22.287-1.528
		l41.128,14.044L825.231,612.204z M848.457,612.592l-41.346-14.118l18.586,12.368L848.457,612.592z"/>
</g>
<circle fill="none" stroke="#000000" stroke-width="3" stroke-miterlimit="10" cx="500" cy="500" r="387.464"/>
<g>
	<g>
		<path d="M630.216,876h140.262l41.921-129.69c-1.732,2.195-3.486,4.373-5.264,6.53L768.294,873H638.575
			C635.803,874.03,633.017,875.03,630.216,876z M187.728,746.47l41.464,128.491l0.335,1.039h140.256c-2.801-0.97-5.587-1.97-8.359-3
			H231.712l-38.729-120.015C191.208,750.833,189.459,748.659,187.728,746.47z M790.993,228.753
			c3.332,3.574,6.602,7.208,9.802,10.902l154.002,112.85l-58.35,180.538c-0.389,4.735-0.859,9.446-1.413,14.132l62.951-194.777
			l0.333-1.031L790.993,228.753z M499.999,19.237l157.315,115.278c4.475,1.929,8.907,3.938,13.295,6.023L500.887,16.168
			l-0.885-0.649L328.014,141.191c4.48-2.151,9.007-4.22,13.578-6.206L499.999,19.237z M897.453,483.181l39.843-123.261l0.333-1.031
			l-104.701-76.705c1.521,2.32,3.021,4.657,4.494,7.011l96.686,70.833L897.02,474.767
			C897.194,477.563,897.336,480.369,897.453,483.181z M167.923,280.892L63.247,357.367l-0.876,0.64l40.202,124.58
			c0.121-2.806,0.265-5.605,0.444-8.396L65.893,359.149l97.49-71.226C164.873,285.563,166.385,283.218,167.923,280.892z
			 M218.925,890l-59.432-184.205c-2.427-4.007-4.787-8.06-7.074-12.157l63.987,198.323l0.335,1.039h221.264
			c-5.639-0.883-11.239-1.883-16.797-3H218.925z M607.193,116.807l-107.192-78.53l-107.667,78.661
			c2.676-0.751,5.362-1.479,8.061-2.174l99.604-72.77l99.18,72.661C601.862,115.343,604.532,116.064,607.193,116.807z M781.081,890
			H578.792c-5.558,1.117-11.157,2.117-16.797,3h221.27l64.599-199.876c-2.302,4.139-4.677,8.231-7.121,12.276L781.081,890z
			 M45.202,351.558L200.735,237.91c3.296-3.76,6.661-7.458,10.095-11.092L41.682,350.416l63.165,195.776
			c-0.537-4.643-0.99-9.311-1.365-14.001L45.202,351.558z"/>
	</g>
</g>
<circle fill="none" stroke="#000000" stroke-width="3" stroke-miterlimit="10" cx="500" cy="500" r="372.55"/>
<path fill="none" stroke="#000000" stroke-width="6" stroke-miterlimit="10" d="M813.502,500
	c0,173.146-140.354,313.502-313.502,313.502c-173.146,0-313.501-140.354-313.501-313.502c0-173.146,140.355-313.501,313.501-313.501
	S813.502,326.854,813.502,500z"/>
<circle fill="none" stroke="#000000" stroke-width="3" stroke-miterlimit="10" cx="500" cy="500" r="299.532"/>
<rect x="289" y="286" fill="none" stroke="#000000" stroke-width="4" stroke-miterlimit="10" width="421" height="421"/>
<rect x="288.996" y="287.001" transform="matrix(-0.7071 0.7071 -0.7071 -0.7071 1204.4735 496.0888)" fill="none" stroke="#000000" stroke-width="4" stroke-miterlimit="10" width="420.996" height="420.996"/>
</svg>
