<?xml version="1.0" encoding="iso-8859-1"?>
<!-- Generator: Adobe Illustrator 15.0.0, SVG Export Plug-In . SVG Version: 6.00 Build 0)  -->
<!DOCTYPE svg PUBLIC "-//W3C//DTD SVG 1.1//EN" "http://www.w3.org/Graphics/SVG/1.1/DTD/svg11.dtd">
<svg version="1.1" id="&#x30EC;&#x30A4;&#x30E4;&#x30FC;_1"
	 xmlns="http://www.w3.org/2000/svg" xmlns:xlink="http://www.w3.org/1999/xlink" x="0px" y="0px" width="1000px" height="1000px"
	 viewBox="0 0 1000 1000" style="enable-background:new 0 0 1000 1000;" xml:space="preserve">
<defs>
	<filter id="Adobe_OpacityMaskFilter" filterUnits="userSpaceOnUse" x="80" y="82" width="838" height="838">
		<feFlood  style="flood-color:white;flood-opacity:1" result="back"/>
		<feBlend  in="SourceGraphic" in2="back" mode="normal"/>
	</filter>
</defs>
<mask maskUnits="userSpaceOnUse" x="80" y="82" width="838" height="838" id="SVGID_1_">
	<g style="filter:url(#Adobe_OpacityMaskFilter);">
		<circle cx="499" cy="501" r="450.5"/>
	</g>
</mask>
<g style="mask:url(#SVGID_1_);">
	<rect x="81.5" y="83.5" style="fill:none;stroke:#000000;stroke-width:3;stroke-miterlimit:10;" width="835" height="835"/>
	<rect x="95.5" y="97.5" style="fill:none;stroke:#000000;stroke-width:3;stroke-miterlimit:10;" width="807" height="807"/>
</g>
<path style="fill:none;stroke:#000000;stroke-width:3;stroke-miterlimit:10;" d="M935,501c0,240.8-195.2,436-436,436
	C258.199,937,63,741.8,63,501C63,260.199,258.199,65,499,65C739.8,65,935,260.199,935,501z"/>
<path style="fill:none;stroke:#000000;stroke-width:3;stroke-miterlimit:10;" d="M924.655,501
	c0,235.087-190.568,425.655-425.655,425.655C263.913,926.655,73.345,736.087,73.345,501C73.345,265.913,263.913,75.345,499,75.345
	C734.087,75.345,924.655,265.913,924.655,501z"/>
<g>
	<path d="M916.174,578.014l-69.739-9.886l0.78-5.506l17.63-25.583l2.129,0.302l-17.703,25.572l67.684,9.595L916.174,578.014z"/>
	<path d="M922.858,509.135l-24.927,11.604l23.794,14.324l-0.081,1.853l-25.668-15.595l-20.22,9.212l-24.869-15.188l21.663-9.965
		l20.177,12.163l30.373-13.964L922.858,509.135z M872.652,526.835l18.406-8.475l-15.256-9.275l-18.628,8.464L872.652,526.835z"/>
	<path d="M852.761,499.277l-0.29-5.554l13.356-28.544l17.563,22.025l37.987-24.709l0.112,2.147l-38.56,25.111l-16.761-20.879
		l-11.777,24.674l68.423-3.581l0.291,5.554L852.761,499.277z"/>
	<path d="M874.12,444.346l-27.318-7.131l-0.829-5.499l69.653-10.495l0.828,5.499l-66.133,9.965l27.465,7.109l-23.869,14.769
		l65.84-9.92l0.84,5.572l-69.652,10.495l-0.84-5.572L874.12,444.346z"/>
	<path d="M837.578,398.18l68.289-17.293l1.384,5.463l-16.677,4.223l-21.153,16.754l26.434,4.704l16.821-4.26l1.384,5.463
		l-68.29,17.293l-1.365-5.392l21.351-16.881l-26.794-4.612L837.578,398.18z M887.124,391.446l-44.568,11.287l24.903,4.097
		L887.124,391.446z M892.333,412.923l-24.4-4.224l-19.935,15.527L892.333,412.923z"/>
	<path d="M817.497,347.704l63.637-30.195l2.384,5.024l-63.637,30.195L817.497,347.704z"/>
	<path d="M810.988,334.005l1.572-33.377l-15.889,9.544l-2.863-4.766l20.655-12.408l-1.572,33.376l50.843-30.542l-30.205-14.288
		l20.655-12.408l2.863,4.767l-15.889,9.544l30.205,14.288L810.988,334.005z"/>
	<path d="M789.836,299.895l31.846-23.649l-27.589-14.144l35.715-26.523l3.315,4.464l-31.742,23.665l27.426,14.173l-35.611,26.538
		L789.836,299.895z"/>
	<path d="M768.515,272.186l-1.1-22.313l13.245-24.7l22.15-20.059l1.493,1.649l-21.82,19.76l-12.785,23.883l0.939,20.257
		l50.29-45.543l3.783,4.177l-52.214,47.286L768.515,272.186z"/>
	<path d="M724.566,228.5l47.372-52.127l4.171,3.79l-11.569,12.729l-8.38,25.647l24.632-10.678l11.669-12.839l4.17,3.79
		l-47.373,52.127l-4.115-3.74l8.475-25.861l-24.881,10.952L724.566,228.5z M762.146,195.526l-30.917,34.02l23.021-10.338
		L762.146,195.526z M778.349,210.551l-22.672,9.954l-8.041,23.951L778.349,210.551z"/>
	<path d="M672.836,193.08l-4.818-2.921l36.515-60.23l4.755,2.883l-7.888,34.32l26.845-22.828l4.755,2.882l-36.451,60.269
		l-4.819-2.921l7.773-34.13L672.836,193.08z M674.834,189.783l25.136-21.437l7.357-32.301L674.834,189.783z M700.932,169.189
		l-7.396,32.365l32.633-53.827L700.932,169.189z"/>
	<path d="M672.347,114.005l0.886,27.48l22.517-16.26l1.672,0.801l-24.42,17.485l0.534,22.212l-23.732,16.91l-0.66-23.835
		l19.107-13.782l-0.918-33.417L672.347,114.005z M668.915,167.128l-0.567-20.255l-14.521,10.39l0.472,20.456L668.915,167.128z"/>
	<path d="M659.828,108.401l-24.049,66.203l-5.227-1.899l-21.398-22.524l0.734-2.021l21.373,22.594l23.34-64.251L659.828,108.401z"/>
	<path d="M593.761,87.694l6.255,26.769l18.889-20.354l1.796,0.458l-20.515,21.929l4.877,21.673l-19.953,21.23l-5.319-23.24
		l16.033-17.257l-7.45-32.582L593.761,87.694z M600.809,140.45l-4.527-19.748l-12.199,13.032l4.472,19.963L600.809,140.45z"/>
	<path d="M569.768,154.291l-5.498-0.839l-25.252-18.855l25.123-12.744l-16.515-42.2l2.126,0.325l16.791,42.842l-23.838,12.189
		l21.782,16.525l10.334-67.732l5.498,0.839L569.768,154.291z"/>
	<path d="M496.208,147.456l-1.576-39.634l-27.236,14.81l-1.767-44.449l5.556-0.221l1.647,39.557L500,102.86l1.838,44.372
		L496.208,147.456z"/>
	<path d="M447.927,151.285l-9.611-69.783l5.509-0.759l9.611,69.783L447.927,151.285z"/>
	<path d="M427.742,131.73l0.864,3.605l-11.9,21.914l-20.112-12.332l-0.864-3.605l16.804,10.304l-14.919-62.22l5.407-1.296
		l14.833,61.86L427.742,131.73z"/>
	<path d="M338.033,108.459l29.369,64.028l-5.055,2.319l-31.056-1.011l-0.896-1.955l31.086,1.078l-7.172-15.636l-31.024-0.943
		l-0.896-1.955l31.056,1.011l-20.465-44.618L338.033,108.459z"/>
	<path d="M307.172,203.73l-35.5-60.839l4.867-2.84l8.669,14.857l21.949,15.694l-2.79-26.702l-8.744-14.985l4.867-2.84l35.5,60.839
		l-4.803,2.802l-22.125-15.848l2.977,27.021L307.172,203.73z M287.002,157.982l23.168,39.705l-2.949-25.063L287.002,157.982z
		 M306.198,147.039l2.688,24.615l20.433,14.861L306.198,147.039z"/>
	<path d="M277.373,193.126l6.191,27.547l-4.507,3.258l-41.27-57.084l4.506-3.258l39.185,54.2l-6.278-27.667l24.071,14.438
		l-39.011-53.96l4.567-3.301l41.27,57.084l-4.567,3.302L277.373,193.126z"/>
	<path d="M263.337,207.995l2.454,2.779l-0.236,24.934l-23.545-1.462l-2.454-2.779l19.673,1.222l-42.35-47.959l4.168-3.681
		l42.104,47.681L263.337,207.995z"/>
	<path d="M131.986,288.507l37.464-4.158l-25.102-15.659l2.943-4.718l59.766,37.283l-2.943,4.718l-32.211-20.094l-41.134,4.578
		L131.986,288.507z"/>
	<path d="M114.243,322.757l27.488-0.54l-15.974-22.718l0.822-1.661l17.175,24.637l22.217-0.254l16.609,23.943l-23.841,0.36
		l-13.54-19.279l-33.424,0.497L114.243,322.757z M167.317,326.858l-20.26,0.312l10.205,14.65l20.459-0.213L167.317,326.858z"/>
	<path d="M169.202,374.003l-1.966,5.203l-27.539-10.407l-9.135,8.439l-1.942-0.734l9.135-8.438l-36.417-13.763l1.966-5.203
		l38.984,14.732l9.256-8.551l1.873,0.708l-9.187,8.578L169.202,374.003z"/>
	<path d="M160.728,397.813l-38.311-10.302l6.026,30.416l-42.965-11.554l1.444-5.371l38.259,10.211l-5.902-30.306l42.913,11.463
		L160.728,397.813z"/>
	<path d="M124.882,438.036l23.785,15.213l-0.909,5.486l-69.493-11.51l0.909-5.486l65.982,10.928l-23.932-15.237l27.262-6.683
		l-65.689-10.88l0.921-5.559l69.493,11.509l-0.921,5.56L124.882,438.036z"/>
	<path d="M75.247,485.924l31.068-21.335L76.8,462.622l0.37-5.548l70.276,4.682l-0.37,5.548l-37.875-2.523l-34.106,23.437
		L75.247,485.924z"/>
	<path d="M123.054,495.211l3.706-0.109l19.019,16.129l-16.184,17.166l-3.706,0.109l13.522-14.344l-63.958,1.884l-0.164-5.559
		l63.588-1.872L123.054,495.211z"/>
	<path d="M122.682,548.988l27.145,7.758l0.702,5.517l-69.87,8.886l-0.702-5.516l66.34-8.438l-27.292-7.739l24.201-14.214
		l-66.046,8.399l-0.71-5.59l69.87-8.886l0.711,5.59L122.682,548.988z"/>
	<path d="M129.018,568.414l3.614-0.826l21.788,12.132l-12.545,19.981l-3.614,0.826l10.482-16.695l-62.378,14.261l-1.239-5.421
		l62.017-14.179L129.018,568.414z"/>
	<path d="M160.3,602.773l-7.938,20.88l-22.034,17.314l-28.33,9.495l-0.707-2.109L129.2,639l21.284-16.751l7.261-18.932
		l-64.322,21.557l-1.791-5.343l66.783-22.381L160.3,602.773z"/>
	<path d="M169.425,629.931l2.277,5.073l-2.142,31.439l-24.332-14.191l-26.491,36.762l-0.881-1.962l26.88-37.343l23.169,13.412
		l2.067-27.26l-62.501,28.057l-2.277-5.072L169.425,629.931z"/>
	<path d="M142.873,731.474l57.505-40.676l3.211,4.54l4.737,30.706l-1.755,1.241l-4.676-30.749l-14.043,9.934l4.797,30.663
		l-1.755,1.242l-4.737-30.706l-40.072,28.344L142.873,731.474z"/>
	<path d="M238.527,740.033l3.686,4.263l-53.287,46.067l-3.637-4.206l18.072-30.229l-32.571,13.457l-3.637-4.207l53.238-46.124
		l3.686,4.263L206.173,753.4L238.527,740.033z M204.439,754.115l17.001-28.519l-47.622,41.17L204.439,754.115z M235.61,742.555
		l-30.516,12.659l-16.945,28.47L235.61,742.555z"/>
	<path d="M257.114,758.613l-48.561,51.025l-4.028-3.834l48.561-51.025L257.114,758.613z"/>
	<path d="M268.118,769.06l10.496,31.728l11.414-14.606l4.382,3.424l-14.837,18.988l-10.496-31.727l-36.523,46.74l33.323,2.514
		l-14.838,18.989l-4.382-3.425l11.414-14.606l-33.323-2.514L268.118,769.06z"/>
	<path d="M311.791,800.772l-37.762,59.462l-4.694-2.98l37.762-59.462L311.791,800.772z"/>
	<path d="M329.573,811.409l-17.886,35.405l31.001,0.294l-20.059,39.706l-4.963-2.507l17.787-35.372l-30.868-0.394l19.959-39.674
		L329.573,811.409z"/>
	<path d="M373.593,831.498l-25.44,65.681l-5.185-2.008l25.44-65.682L373.593,831.498z"/>
	<path d="M398.449,913.029l-14.589-34.754l-7.915,28.506l-5.358-1.488l18.845-67.869l5.358,1.487l-10.156,36.578l16.031,38.155
		L398.449,913.029z"/>
	<path d="M440.171,849.512l-12.075,69.392l-5.478-0.954l12.075-69.392L440.171,849.512z"/>
	<path d="M469.898,853.113l5.546,0.414l-2.193,29.356l10.677,6.374l-0.154,2.07l-10.678-6.374l-2.9,38.82l-5.545-0.414l3.104-41.557
		l-10.82-6.459l0.149-1.997l10.825,6.386L469.898,853.113z"/>
	<path d="M506.237,893.522l-13.188,31.507l-1.854,0.04l7.9-18.785l-6.808-16.465l5.109-17.539l-7.278-17.641l5.115-0.111
		l12.824,30.574l13.121-31.135l1.557-0.033l-7.826,18.783l6.494,15.656l-4.904,16.719l8.055,19.256l-5.56,0.12L506.237,893.522z
		 M505.377,891.465l-6.884-16.538l-2.971,10.076l6.258,15.068L505.377,891.465z M508.916,887.087l6.489,15.434l2.69-9.328
		l-5.795-14.188L508.916,887.087z"/>
	<path d="M579.663,871.733l5.351-27.722l5.434-1.183l14.975,68.827l-5.435,1.182l-14.217-65.349l-5.319,27.866l-16.28-22.863
		l14.154,65.059l-5.506,1.198l-14.974-68.826l5.506-1.198L579.663,871.733z"/>
	<path d="M613.308,909.571l-21.686-67.015l5.291-1.712l30.722,4.631l0.662,2.046l-30.745-4.701l21.047,65.039L613.308,909.571z"/>
	<path d="M642.3,824.12l28.18,64.565l-5.097,2.225l-28.181-64.564L642.3,824.12z"/>
	<path d="M667.03,837.476l-1.809-3.236l5.516-24.318l22.7,6.421l1.809,3.235l-18.967-5.364l31.222,55.847l-4.854,2.713
		l-31.041-55.522L667.03,837.476z"/>
	<path d="M744.419,755.504l28.449,27.642l9.537-29.5l31.906,31l-3.875,3.988l-28.448-27.536l-9.592,29.343l-31.904-30.895
		L744.419,755.504z"/>
	<path d="M795.34,737.793l-13.344-24.886l3.47-4.347l55.056,43.951l-3.471,4.347l-52.273-41.73l13.46,24.978l-27.061-7.465
		l52.041,41.546l-3.516,4.404l-55.056-43.951l3.517-4.404L795.34,737.793z"/>
	<path d="M801.341,684.324l3.07-4.726l59.07,38.385l-3.03,4.664l-34.063-8.958l21.982,27.55l-3.03,4.663l-59.111-38.322l3.071-4.726
		l33.877,8.836L801.341,684.324z M824.346,713.158l-32.124-8.405l52.791,34.305L824.346,713.158z M804.573,686.426l20.646,25.796
		l32.062,8.365L804.573,686.426z"/>
	<path d="M830.966,622.882l2.102-5.229l65.361,26.267l-2.073,5.16l-35.149-2.218l26.882,22.789l-2.073,5.16l-65.39-26.197
		l2.102-5.229l34.942,2.135L830.966,622.882z M859.1,646.733l-33.14-2.05l58.413,23.475L859.1,646.733z M834.543,624.319
		l25.232,21.327l33.071,2.022L834.543,624.319z"/>
	<path d="M908.913,609.559l-26.968,5.346l19.704,19.568l-0.519,1.779l-21.223-21.247l-21.828,4.14l-20.544-20.663l23.408-4.528
		l16.706,16.609l32.818-6.342L908.913,609.559z M855.944,614.815l19.891-3.855l-12.612-12.636l-20.104,3.793L855.944,614.815z"/>
</g>
<path style="fill:none;stroke:#000000;stroke-width:3;stroke-miterlimit:10;" d="M852.241,501
	c0,195.093-158.148,353.241-353.241,353.241c-195.094,0-353.241-158.148-353.241-353.241c0-195.093,158.147-353.241,353.241-353.241
	C694.093,147.759,852.241,305.907,852.241,501z"/>
<path style="fill:none;stroke:#000000;stroke-width:3;stroke-miterlimit:10;" d="M835,501c0,185.57-150.43,336-336,336
	c-185.571,0-336-150.43-336-336c0-185.571,150.429-336,336-336C684.57,165,835,315.429,835,501z"/>
<polygon style="fill:none;stroke:#000000;stroke-width:3;stroke-miterlimit:10;" points="651.275,720.241 162.817,495.356 
	601.803,184.781 "/>
<circle style="fill:none;stroke:#000000;stroke-width:3;stroke-miterlimit:10;" cx="526.172" cy="543.414" r="107.285"/>
<circle style="fill:none;stroke:#000000;stroke-width:3;stroke-miterlimit:10;" cx="316.621" cy="667.491" r="90.217"/>
<path style="fill:none;stroke:#000000;stroke-width:3;stroke-miterlimit:10;" d="M376.375,718.393c0,17.946-14.552,32.5-32.5,32.5
	c-17.947,0-32.5-14.554-32.5-32.5s14.553-32.5,32.5-32.5C361.823,685.893,376.375,700.446,376.375,718.393z"/>
<circle style="fill:none;stroke:#000000;stroke-width:3;stroke-miterlimit:10;" cx="656.276" cy="354.896" r="119.828"/>
<circle cx="577.734" cy="364.298" r="41"/>
</svg>
