<?xml version="1.0" encoding="utf-8"?>
<!-- Generator: Adobe Illustrator 15.0.0, SVG Export Plug-In . SVG Version: 6.00 Build 0)  -->
<!DOCTYPE svg PUBLIC "-//W3C//DTD SVG 1.1//EN" "http://www.w3.org/Graphics/SVG/1.1/DTD/svg11.dtd">
<svg version="1.1" id="レイヤー_1" xmlns="http://www.w3.org/2000/svg" xmlns:xlink="http://www.w3.org/1999/xlink" x="0px"
	 y="0px" width="1000px" height="1000px" viewBox="0 0 1000 1000" enable-background="new 0 0 1000 1000" xml:space="preserve">
<circle fill="none" stroke="#000000" stroke-width="5" stroke-miterlimit="10" cx="500" cy="500" r="375.387"/>
<g>
	<g>
		<path d="M73.22,828.571l98.202,98.201l109.525-109.525c-1.392-0.963-2.778-1.934-4.156-2.914L171.422,919.702l-91.13-91.131
			l105.37-105.37c-0.98-1.379-1.951-2.765-2.914-4.157L74.988,826.804L73.22,828.571z M831.623,50.992L707.531,175.083
			c1.436,0.919,2.865,1.846,4.287,2.784L831.623,58.063L941.932,168.37L822.128,288.174c0.938,1.422,1.864,2.852,2.784,4.287
			l124.09-124.09L831.623,50.992z M828.564,73.227l-109.521,109.52c1.393,0.963,2.778,1.934,4.157,2.915L828.564,80.298
			l91.131,91.13L814.333,276.791c0.98,1.378,1.951,2.765,2.914,4.156l109.519-109.519L828.564,73.227z M168.364,941.938
			L58.056,831.63l119.811-119.812c-0.937-1.422-1.865-2.852-2.784-4.287L52.753,829.862l-1.768,1.768l117.379,117.379
			l124.097-124.097c-1.436-0.919-2.864-1.847-4.287-2.784L168.364,941.938z"/>
	</g>
</g>
<circle fill="none" stroke="#000000" stroke-width="8" stroke-miterlimit="10" cx="500" cy="500" r="358.72"/>
<g>
	<path d="M843.019,394.537l0.931,2.853l-36.14,11.771l-0.929-2.854l0.038-0.013l2.429-16.569l3.349-1.09l-2.467,16.582
		L843.019,394.537z"/>
	<path d="M831.999,363.774l-7.477,8.866l11.511,1.41l1.271,3.239l-15.155-1.827l-8.479,10.032l-15.022-2.695l9.177-12.196
		l13.04,1.584l9.863-11.651L831.999,363.774z M818.491,375.007l-9.382-1.129l-5.325,6.904l8.6,1.436L818.491,375.007z"/>
	<path d="M807.955,358.746l13.946-17.482l1.261,2.723l-14.435,18.811l-6.992-5.579l-4.364,11.898l30.819-14.276l1.277,2.759
		l-34.486,15.975l-0.789-1.706l-0.487-1.053l-0.051-0.109l6.887-18.445L807.955,358.746z"/>
	<path d="M787.019,356.408l-1.438-2.678l0.563-0.303l8.724-11.313l-14.451,0.816l-0.493,0.265l-1.438-2.678l33.49-17.939
		l1.418,2.643l-28.097,15.134l14.199-0.862l-8.562,11.361l28.115-15.099l1.419,2.643L787.019,356.408z"/>
	<path d="M768.599,324.443l32.354-19.932l1.321,2.146l-8.924,5.497l-6.028,11.185l12.827-0.15l8.943-5.463l1.301,2.111
		l-32.354,19.932l-1.301-2.112l6.58-11.665l-13.378,0.63l-0.021-0.034L768.599,324.443z M789.503,314.524l-15.325,9.441
		l10.265-0.498L789.503,314.524z M786.036,326.057l-5.04,8.978l15.36-9.462L786.036,326.057z"/>
	<path d="M752.573,302.305l-1.862-2.352l29.789-23.585l1.862,2.352L752.573,302.305z"/>
	<path d="M735.455,282.148l-1.997-2.239l11.938-10.65l2.523,17.849l19.4-17.308l-17.446-4.536l11.938-10.649l1.996,2.238
		l-7.462,6.657l17.446,4.536l-28.354,25.295l-2.523-17.849L735.455,282.148z"/>
	<path d="M728.177,258.331l18.727-18.72l2.124,2.119l-15.11,15.151l15.816,5.38l-16.891,16.992l-2.151-2.146l13.358-13.396h-0.057
		L728.177,258.331z"/>
	<path d="M720.147,237.479l10.772-12.155l1.945,1.725l-10.454,11.795l-5.352,13.273l1.424,9.493l0.358,0.318l23.483-26.495
		l2.274,2.017l-25.209,28.441l-3.353-2.972l-1.634-11.124L720.147,237.479z"/>
	<path d="M691.058,242.21l23.498-29.862l1.98,1.559l-6.48,8.235l-1.805,12.577l11.989-4.563l6.512-8.21l1.948,1.534l-23.497,29.861
		l-1.949-1.534l2.155-13.217l-12.34,5.203l-0.031-0.025L691.058,242.21z M707.261,225.694l-11.131,14.145l9.463-4.005
		L707.261,225.694z M707.981,237.714l-1.637,10.164l11.155-14.176L707.981,237.714z"/>
	<path d="M659.397,221.474l19.832-32.413l2.148,1.315l-2.551,16.585l13.639-9.801l2.082,1.273l-19.797,32.434l-2.149-1.315
		l2.678-16.79l-13.73,10.027L659.397,221.474z M677.978,195.938l-12.733,20.812l10.637-7.653L677.978,195.938z M678.281,210.613
		l-1.991,12.989l12.796-20.915L678.281,210.613z"/>
	<path d="M663.669,180.663l0.073,11.596l9.668-6.404l3.069,1.637l-12.709,8.453l0.068,13.135l-13.174,7.708l-0.943-15.233
		l10.942-7.265l-0.065-15.264L663.669,180.663z M660.694,197.977l-7.866,5.234l0.435,8.708l7.473-4.493L660.694,197.977z"/>
	<path d="M655.03,176.363l2.727,1.252l-15.859,34.529l-2.726-1.252l0.017-0.037l-10.523-13.02l1.469-3.199l10.508,13.057
		L655.03,176.363z"/>
	<path d="M624.955,163.598l1.444,11.508l8.845-7.503l3.243,1.263l-11.623,9.898l1.621,13.037l-12.172,9.213l-2.738-15.018
		l10.009-8.509l-1.872-15.151L624.955,163.598z M624.049,181.145l-7.192,6.128l1.461,8.596l6.889-5.345L624.049,181.145z"/>
	<path d="M604.971,177.852l-3.384-22.102l2.855,0.92l4.028,23.361l-8.841,1.354l5.779,11.276l10.416-32.322l2.893,0.933
		l-11.654,36.167l-1.788-0.577l-1.104-0.355l-0.114-0.037l-8.878-17.569L604.971,177.852z"/>
	<path d="M555.205,172.195l5.121-25.983l2.944,0.575l-4.106,21.005l16.135-4.346l-4.558,23.524l-2.984-0.583l3.631-18.57
		l-0.047,0.032L555.205,172.195z"/>
	<path d="M544.714,182.362l-2.974-0.4l5.073-37.66l2.974,0.4L544.714,182.362z"/>
	<path d="M516.4,166.556l6.937,8.061l2.432-32.428l2.991,0.224l-2.429,32.388l8.02-6.899l-0.3,3.988l-9.646,8.302l-8.302-9.647
		L516.4,166.556z"/>
	<path d="M492.118,168.956l-15.374-6.852l-0.05-3.16l15.294,6.855l-1.009-24.457l2.998-0.124l1.564,37.965l-2.997,0.124l-0.002-0.04
		l-15.292-6.815l-0.145-3.517l15.294,6.855L492.118,168.956z"/>
	<path d="M458.72,181.777l-3.783-37.805l2.508-0.251l1.043,10.426l7.422,10.311l5.471-11.601l-1.003-10.43l2.467-0.247l3.784,37.805
		l-2.467,0.247l-7.614-11.015l-5.28,12.305l-0.039,0.004L458.72,181.777z M458.937,158.644l1.793,17.908l4.039-9.448
		L458.937,158.644z M467.792,166.801l5.87,8.456l-1.796-17.947L467.792,166.801z"/>
	<path d="M457.792,181.907l-3.002,0.479l-0.102-0.632l-7.826-11.956l-3.973,13.924l0.088,0.553l-3.002,0.48l-5.961-37.536
		l2.963-0.474l5.08,31.519l3.847-13.701l7.927,11.819l-5.042-31.525l2.963-0.474L457.792,181.907z"/>
	<path d="M418.735,176.111l8.967,5.714l-7.034-31.746l2.929-0.649l7.025,31.707l5.684-8.92l0.865,3.905l-6.839,10.732l-10.732-6.839
		L418.735,176.111z"/>
	<path d="M386.127,159.693l2.831-0.991l12.554,35.863l-2.832,0.991l-6.766-19.328l-18.849-11.963l3.623-1.269l13.839,9.268
		L386.127,159.693z"/>
	<path d="M356.57,171.06l9.028,7.277l1.154-11.54l3.21-1.343l-1.49,15.192l10.22,8.254l-2.361,15.08l-12.398-8.903l1.293-13.072
		l-11.866-9.602L356.57,171.06z M368.101,184.314l-0.92,9.404l7.021,5.17l1.245-8.629L368.101,184.314z"/>
	<path d="M343.269,177.237l9.889,20.187l6.797,0.056l1.531,3.125l-6.763,0.016l5.261,10.74l-2.694,1.32l-5.929-12.105l-6.779-0.02
		l-1.548-3.161l6.778,0.02l-9.236-18.858L343.269,177.237z"/>
	<path d="M328.82,215.053l-13.007-23.071l2.611-1.477l10.539,18.629l9.434-13.794l11.834,20.838l-2.646,1.497l-9.316-16.47
		l-0.016,0.055L328.82,215.053z"/>
	<path d="M333.731,225.541l-2.554,1.65l-0.347-0.538l-11.984-7.783l1.981,14.343l0.304,0.47l-2.553,1.65l-20.594-31.941l2.52-1.628
		l17.361,26.791l-2.007-14.088l12.02,7.618l-17.327-26.813l2.521-1.628L333.731,225.541z"/>
	<path d="M292.167,207.543l2.419-1.774l22.468,30.644l-2.419,1.774l-12.108-16.516l-21.521-5.945l3.097-2.271l15.94,4.829
		L292.167,207.543z"/>
	<path d="M280.457,248.495l10.588,1.001l-20.729-25.059l2.312-1.913l20.704,25.028l0.996-10.532l2.549,3.082l-1.198,12.672
		l-12.672-1.198L280.457,248.495z"/>
	<path d="M288.053,259.121l-2.224,2.072l-0.438-0.468l-13.162-5.56l4.467,13.771l0.382,0.41l-2.226,2.072l-25.875-27.83l2.195-2.045
		l21.789,23.327l-4.447-13.516l13.168,5.39l-21.76-23.354l2.195-2.045L288.053,259.121z"/>
	<path d="M252.364,276.104l10.631-0.247l-23.521-22.454l2.071-2.17l23.492,22.426l-0.246-10.575l2.893,2.762l0.296,12.724
		l-12.725,0.295L252.364,276.104z"/>
	<path d="M232.726,285.637l-12.384-10.507l1.682-1.983l12.018,10.196l13.385,5.062l9.459-1.627l0.312-0.366l-26.995-22.903
		l1.967-2.318l28.977,24.585l-2.897,3.416l-11.085,1.874L232.726,285.637z"/>
	<path d="M229.735,295.788l-21.996-4.032l1.804-2.398l23.396,3.834l-1.613,8.798l12.547-1.774l-27.14-20.417l1.828-2.429
		l30.369,22.845l-1.13,1.502l-0.697,0.927l-0.072,0.096l-19.509,2.644L229.735,295.788z"/>
	<path d="M216.666,328.526l-14.054,9.272l-2.691-1.659l14.013-9.203l-21.161-12.317l1.51-2.593l32.847,19.12l-1.509,2.593
		l-0.035-0.021l-13.979,9.223l-3.042-1.771l14.013-9.203L216.666,328.526z"/>
	<path d="M209.509,363.586l-33.92-17.134l1.136-2.25l16.74,1.196l-10.878-12.8l1.101-2.178l33.938,17.099l-1.136,2.25l-16.954-1.304
		l11.11,12.873L209.509,363.586z M182.545,347.142l21.78,11.002l-8.492-9.981L182.545,347.142z M197.149,345.646l13.109,0.93
		l-21.887-11.056L197.149,345.646z"/>
	<path d="M206.145,371.29l-1.192,2.753l-34.877-15.104l1.192-2.753L206.145,371.29z"/>
	<path d="M196.485,395.879l-1.027,2.819l-15.033-5.476l14.528-10.671l-24.429-8.896l4.263,17.515l-15.033-5.475l1.027-2.819
		l9.396,3.422l-4.263-17.515l35.704,13.003l-14.528,10.671L196.485,395.879z"/>
	<path d="M193.04,406.72l-0.857,2.875l-36.414-10.856l0.857-2.875L193.04,406.72z"/>
	<path d="M174.459,432.642l-25.77-6.08l0.685-2.92l20.833,4.883l-3.743-16.282l23.334,5.427l-0.693,2.959l-18.419-4.316l0.03,0.049
		L174.459,432.642z"/>
	<path d="M184.226,443.505l-0.51,2.956l-37.443-6.465l0.51-2.956L184.226,443.505z"/>
	<path d="M144.102,454.509l0.335-2.98l37.762,4.248l-0.335,2.98l-20.353-2.289l-18.957,11.795l0.429-3.815l14.354-8.448
		L144.102,454.509z"/>
	<path d="M179.827,481.086l-0.16,2.996l-37.95-2.029l0.161-2.996L179.827,481.086z"/>
	<path d="M141.267,500.921l22.477-0.359l2.942-6.128l3.479-0.056l-2.862,6.126l11.958-0.19l0.048,3l-13.478,0.216l-2.902,6.127
		l-3.52,0.057l2.902-6.127l-20.997,0.336L141.267,500.921z"/>
	<path d="M141.43,513.841l10.923,3.563l8.1-3.753l9.566,2.364l9.347-4.313l0.173,2.754l-14.793,6.938l15.544,5.036l0.177,2.834
		l-10.958-3.48l-7.633,3.523l-9.119-2.272l-10.201,4.768l-0.188-2.994l14.993-6.95l-15.743-5.024L141.43,513.841z M161.126,523.104
		l-5.139,2.406l5.292,1.312l4.59-2.211L161.126,523.104z M156.076,518.613l4.948,1.572l4.87-2.229l-5.252-1.313L156.076,518.613z"/>
	<path d="M182.889,549.128l0.546,2.991l-0.63,0.114l-11.779,8.089l14.007,3.663l0.551-0.102l0.546,2.991l-37.392,6.788l-0.539-2.951
		l31.396-5.773l-13.782-3.542l11.64-8.187l-31.403,5.735l-0.539-2.951L182.889,549.128z"/>
	<path d="M150.11,579.682l-0.713-2.913l36.906-9.03l0.713,2.913l-0.039,0.01l-3.661,16.337l-3.419,0.836l3.7-16.346L150.11,579.682z
		"/>
	<path d="M193.036,593.258l0.885,2.866l-36.312,11.205l-0.885-2.866L193.036,593.258z"/>
	<path d="M190.581,625.6l4.404-9.682l-30.456,11.413l-1.053-2.811l30.418-11.397l-9.63-4.38l3.746-1.404l11.587,5.271l-5.27,11.587
		L190.581,625.6z"/>
	<path d="M208.864,660.46l-23.534,12.137l-1.379-2.664l19.004-9.837l-13.431-9.938l21.259-11.05l1.397,2.699l-16.802,8.696
		l0.054,0.019L208.864,660.46z"/>
	<path d="M219.529,655.95l1.554,2.613l-0.55,0.326l-8.222,11.686l14.404-1.446l0.481-0.286l1.554,2.612l-32.679,19.39l-1.534-2.578
		l27.413-16.351l-14.15,1.481l8.058-11.728l-27.434,16.317l-1.533-2.579L219.529,655.95z"/>
	<path d="M239.31,687.095l-31.456,21.31l-1.413-2.086l9.181-14.044l-16.47,3.282l-1.369-2.02l31.434-21.343l1.413,2.086
		l-9.379,14.18l16.646-3.451L239.31,687.095z M217.628,689.175l7.184-11.002l-20.297,13.75L217.628,689.175z M211.838,702.661
		l20.198-13.682l-12.848,2.567L211.838,702.661z"/>
	<path d="M263.191,716.477l-28.745,24.86l-1.648-1.906l7.47-15.028l-15.975,5.194l-1.597-1.846l28.719-24.891l1.649,1.905
		l-7.652,15.187l16.131-5.382L263.191,716.477z M241.897,721.088l5.845-11.771l-18.548,16.042L241.897,721.088z M237.729,735.165
		l18.457-15.963l-12.461,4.06L237.729,735.165z"/>
	<path d="M246.702,754.067l3.462-11.069l-11.161,3.156l-2.427-2.494l14.682-4.183l3.935-12.534l14.897-3.331l-3.74,14.8
		l-12.637,3.589l-4.585,14.563L246.702,754.067z M254.809,738.479l9.086-2.591l2.238-8.428l-8.486,2.005L254.809,738.479z"/>
	<path d="M291.021,743.467l2.36,1.916l-0.403,0.497l-3.684,13.803l13.02-6.328l0.353-0.435l2.36,1.916l-23.979,29.474l-2.329-1.891
		l20.084-24.805l-12.769,6.273l3.516-13.786l-20.116,24.779l-2.329-1.891L291.021,743.467z"/>
	<path d="M311.807,759.729l2.437,1.752l-22.18,30.86l-2.436-1.751L311.807,759.729z"/>
	<path d="M324.932,794.563l-8.686,13.723l-2.197-1.391l8.429-13.316l3.154-13.957l-2.924-9.142l-0.406-0.258l-18.933,29.912
		l-2.569-1.626l20.323-32.107l3.786,2.396l3.395,10.717L324.932,794.563z"/>
	<path d="M347.336,795.311l-12.854,23.152l-2.625-1.452l10.359-18.727l-16.688-0.82l11.563-20.987l2.66,1.473l-9.159,16.557
		l0.055-0.016L347.336,795.311z"/>
	<path d="M369.945,793.403l-16.396,34.281l-2.272-1.087l4.521-9.455l-0.992-12.668l-10.699,7.076l-4.559,9.438l-2.236-1.069
		l16.395-34.283l2.237,1.07l0.79,13.369l10.902-7.777l0.036,0.018L369.945,793.403z M354.414,801.495l-0.628-10.277l-7.783,16.275
		L354.414,801.495z M357.748,813.065l7.766-16.239l-8.357,5.979L357.748,813.065z"/>
	<path d="M369.899,834.447l-1.266-11.53l-8.961,7.365l-3.223-1.313l11.775-9.717l-1.418-13.061l12.314-9.022l2.505,15.06
		l-10.141,8.353l1.635,15.18L369.899,834.447z M371.08,816.915l7.288-6.016l-1.327-8.618l-6.972,5.237L371.08,816.915z"/>
	<path d="M405.363,806.679l-12.22,35.979l-2.387-0.812l-1.157-16.739l-11.15,12.56l-2.311-0.785l12.183-35.991l2.386,0.812
		l1.08,16.968l11.19-12.8L405.363,806.679z M389.33,821.425l-0.913-13.108l-7.885,23.216L389.33,821.425z M392.854,835.674
		l7.846-23.102l-8.694,9.804L392.854,835.674z"/>
	<path d="M439.392,828.354l-5.803-8.913l-6.724,31.819l-2.937-0.621l6.715-31.779l-8.864,5.771l0.827-3.914l10.666-6.945
		l6.945,10.668L439.392,828.354z"/>
	<path d="M442.994,815.808L446,816.26l-0.095,0.633l3.834,13.764l8.003-12.063l0.083-0.555l3.006,0.453l-5.693,37.566l-2.966-0.445
		l4.709-31.568l-7.814,11.889l-3.972-13.661l-4.749,31.562l-2.966-0.446L442.994,815.808z"/>
	<path d="M479.637,820.206l-3.421,37.849l-2.51-0.228l0.943-10.438l-5.345-11.527l-7.563,10.361l-0.983,10.436l-2.47-0.225
		l3.421-37.849l2.47,0.224l5.399,12.258l7.509-11.091l0.04,0.003L479.637,820.206z M467.897,833.203l-4.17-9.415l-1.623,17.969
		L467.897,833.203z M475.056,842.887l1.621-17.928l-5.75,8.519L475.056,842.887z"/>
	<path d="M495.563,820.744l2.998,0.095l-0.507,15.991l-14.675-10.469l-0.823,25.984l15.309-9.52l-0.506,15.991l-2.999-0.096
		l0.315-9.994l-15.308,9.52l1.203-37.979l14.675,10.469L495.563,820.744z"/>
	<path d="M515.032,858.455l-5.783-10.056l-5.255,10.342l-3.479,0.09l6.891-13.625l-6.539-11.396l7.661-13.204l8.336,12.79
		l-5.938,11.72l7.587,13.25L515.032,858.455z M509.081,841.921l4.263-8.435l-4.673-7.363l-4.285,7.596L509.081,841.921z"/>
	<path d="M527.938,837.588l11.649,19.085l-2.989,0.253l-12.729-19.997l7.634-4.66l-9.684-8.173l2.862,33.839l-3.028,0.257
		l-3.203-37.863l1.873-0.159l1.156-0.098l0.118-0.01l14.972,12.782L527.938,837.588z"/>
	<path d="M563.338,814.477l2.938-0.604l7.64,37.226l-2.938,0.604L563.338,814.477z"/>
	<path d="M592.103,846.789l-5.813-21.713l-6.659-1.363l-0.898-3.361l6.638,1.286l-3.094-11.552l2.897-0.775l3.486,13.021
		l6.648,1.325l0.909,3.398l-6.647-1.323L595,846.014L592.103,846.789z"/>
	<path d="M608.611,842.021l-2.847,0.947l-12.003-36.051l2.848-0.948l6.469,19.431l18.664,12.25l-3.645,1.213l-13.693-9.479
		L608.611,842.021z"/>
	<path d="M617.721,798.439l2.785-1.114l14.119,35.282l-2.785,1.114L617.721,798.439z"/>
	<path d="M644.587,786.501l16.192,34.385l-2.28,1.073l-12.46-11.245l0.696,16.785l-2.207,1.039L628.3,794.171l2.28-1.073
		l12.562,11.464l-0.835-16.985L644.587,786.501z M643.287,808.251l-9.761-8.803l10.447,22.187L643.287,808.251z M655.721,816.06
		l-10.396-22.077l0.551,13.095L655.721,816.06z"/>
	<path d="M651.994,782.507l2.634-1.436l18.192,33.354l-2.634,1.438L651.994,782.507z"/>
	<path d="M677.274,767.471l20.135,32.226l-2.137,1.335l-13.698-9.693l2.674,16.582l-2.069,1.293L662.01,777.01l2.138-1.336
		l13.824,9.897l-2.834-16.765L677.274,767.471z M678.552,789.217l-10.729-7.586l12.992,20.793L678.552,789.217z M691.817,795.502
		l-12.93-20.69l2.094,12.936L691.817,795.502z"/>
	<path d="M705.555,774.12l9.398,13.245l-2.121,1.505l-9.12-12.854l-11.715-8.217l-9.567-0.765l-0.392,0.276l20.484,28.872
		l-2.479,1.76l-21.99-30.992l3.654-2.592l11.203,0.928L705.555,774.12z"/>
	<path d="M723.496,780.607l-14.063-17.536l-6.645,1.432l-2.178-2.715l6.596-1.494l-7.482-9.33l2.34-1.877l8.435,10.516l6.62-1.463
		l2.202,2.746l-6.62,1.463l13.138,16.382L723.496,780.607z"/>
	<path d="M730.293,741.696l-10.619-0.54l21.796,24.129l-2.226,2.011l-21.771-24.099l-0.535,10.563l-2.683-2.969l0.646-12.709
		l12.71,0.646L730.293,741.696z"/>
	<path d="M763.928,718.461l12.224,10.692l-1.713,1.957l-11.86-10.377l-13.308-5.264l-9.48,1.483l-0.316,0.36l26.645,23.309
		l-2.002,2.288l-28.602-25.021l2.95-3.372l11.111-1.705L763.928,718.461z"/>
	<path d="M769.276,697.385l-10.553,1.325l25.681,19.947l-1.841,2.369l-25.647-19.923l1.317,10.493l-3.157-2.452l-1.586-12.628
		l12.627-1.587L769.276,697.385z"/>
	<path d="M804.336,690.076l-1.548,2.568l-32.544-19.612l1.549-2.568l0.034,0.021l14.113-9.006l3.015,1.815l-14.147,8.985
		L804.336,690.076z"/>
	<path d="M790.562,658.972l13.629-9.876l2.761,1.539l-13.592,9.806l21.674,11.374l-1.395,2.655l-33.646-17.654l1.395-2.656
		l0.035,0.019l13.557-9.823l3.117,1.636l-13.593,9.805L790.562,658.972z"/>
	<path d="M803.011,626.672l3.208,1.449l2.244,13.785l10.023-8.2l2.844,1.284l3.304,17.95l-1.234,2.733l-34.631-15.642l1.234-2.733
		L803.011,626.672z M792.737,638.534l12.795,5.779l0.641-0.546l-2.596-14.074L792.737,638.534z M808.996,645l0.145,0.943
		l12.759,5.763l-2.772-14.946L808.996,645z"/>
	<path d="M837.205,622.772l-11.497,1.519l7.561,8.795l-1.241,3.251l-9.975-11.557l-13.024,1.706l-9.291-12.11l14.998-2.837
		l8.573,9.952l15.139-1.971L837.205,622.772z M819.654,621.979l-6.175-7.152l-8.586,1.518l5.39,6.854L819.654,621.979z"/>
	<path d="M822.817,602.897l22.078-3.525l-0.9,2.861l-23.334,4.178l-1.409-8.832l-11.238,5.852L840.4,613.64l-0.914,2.898
		l-36.24-11.422l0.565-1.793l0.349-1.106l0.036-0.114l17.512-8.99L822.817,602.897z"/>
	<path d="M808.904,587.046l0.739-2.948l0.62,0.155l14.071-2.491l-11.238-9.131l-0.543-0.136l0.739-2.949l36.854,9.287l-0.729,2.91
		l-30.975-7.729l11.081,8.927l-13.982,2.638l30.965,7.769l-0.729,2.91L808.904,587.046z"/>
	<path d="M816.965,550.104l0.388-3.016l0.635,0.081l13.675-4.136l-12.235-7.736l-0.555-0.071l0.386-3.015l37.685,4.866l-0.381,2.976
		l-31.664-4.015l12.058,7.552l-13.571,4.271l31.659,4.055l-0.382,2.976L816.965,550.104z"/>
	<path d="M833.548,514.253l-8.018,6.985l32.438,2.231l-0.206,2.993l-32.399-2.229l6.948,7.976l-3.99-0.275l-8.359-9.596l9.596-8.359
		L833.548,514.253z"/>
</g>
<circle fill="none" stroke="#000000" stroke-width="5" stroke-miterlimit="10" cx="500" cy="500" r="320.626"/>
<circle fill="none" stroke="#000000" stroke-width="7" stroke-miterlimit="10" cx="500" cy="500" r="306.34"/>
<rect x="287" y="290" fill="none" stroke="#000000" stroke-width="4" stroke-miterlimit="10" width="423" height="423"/>
<rect x="286.996" y="290.002" transform="matrix(-0.7071 0.7071 -0.7071 -0.7071 1205.5955 503.626)" fill="none" stroke="#000000" stroke-width="4" stroke-miterlimit="10" width="422.996" height="422.996"/>
<g>
	
		<rect x="353.32" y="440.762" transform="matrix(-0.7071 -0.7071 0.7071 -0.7071 500.3221 1207.8669)" fill="none" stroke="#000000" stroke-width="4" stroke-miterlimit="10" width="293.998" height="119.102"/>
	
		<rect x="354.796" y="446.686" transform="matrix(-0.7071 -0.7071 0.7071 -0.7071 501.5681 1204.7427)" fill="none" width="290.997" height="103.615"/>
	<text transform="matrix(0.7071 0.7071 -0.7071 0.7071 421.6372 371.3926)" font-family="'RuneAMN_Sans'" font-size="18"> Lorem ipsum dolor sit amet</text>
	<text transform="matrix(0.7071 0.7071 -0.7071 0.7071 627.4014 577.1563)" font-family="'RuneAMN_Sans'" font-size="18"> </text>
	<text transform="matrix(0.7071 0.7071 -0.7071 0.7071 406.7876 386.2412)" font-family="'RuneAMN_Sans'" font-size="18"> consectetur adipisicing elit</text>
	<text transform="matrix(0.7071 0.7071 -0.7071 0.7071 612.5527 592.0049)" font-family="'RuneAMN_Sans'" font-size="18"> </text>
	
		<text transform="matrix(0.7071 0.7071 -0.7071 0.7071 391.939 401.0898)" font-family="'RuneAMN_Sans'" font-size="18" letter-spacing="3"> sed do eiusmod tempor</text>
	<text transform="matrix(0.7071 0.7071 -0.7071 0.7071 597.7031 606.8555)" font-family="'RuneAMN_Sans'" font-size="18"> </text>
	<text transform="matrix(0.7071 0.7071 -0.7071 0.7071 377.0884 415.9404)" font-family="'RuneAMN_Sans'" font-size="18"> incididunt ut labore et dolore</text>
	<text transform="matrix(0.7071 0.7071 -0.7071 0.7071 582.8555 621.7051)" font-family="'RuneAMN_Sans'" font-size="18"> </text>
	<text transform="matrix(0.7071 0.7071 -0.7071 0.7071 362.2407 430.7881)" font-family="'RuneAMN_Sans'" font-size="18"> magna aliqua Ut enim ad minim </text>
	<text transform="matrix(0.7071 0.7071 -0.7071 0.7071 574.3691 642.918)" font-family="'RuneAMN_Sans'" font-size="18"> </text>
</g>
</svg>
