<?xml version="1.0" encoding="iso-8859-1"?>
<!-- Generator: Adobe Illustrator 15.0.0, SVG Export Plug-In . SVG Version: 6.00 Build 0)  -->
<!DOCTYPE svg PUBLIC "-//W3C//DTD SVG 1.1//EN" "http://www.w3.org/Graphics/SVG/1.1/DTD/svg11.dtd">
<svg version="1.1" id="&#x30EC;&#x30A4;&#x30E4;&#x30FC;_1"
	 xmlns="http://www.w3.org/2000/svg" xmlns:xlink="http://www.w3.org/1999/xlink" x="0px" y="0px" width="1000px" height="1000px"
	 viewBox="0 0 1000 1000" style="enable-background:new 0 0 1000 1000;" xml:space="preserve">
<circle style="fill:none;stroke:#000000;stroke-width:10;stroke-miterlimit:10;" cx="500" cy="500" r="483.222"/>
<circle style="fill:none;stroke:#000000;stroke-width:4;stroke-miterlimit:10;" cx="500" cy="500" r="465.98"/>
<circle style="fill:none;stroke:#000000;stroke-width:10;stroke-miterlimit:10;" cx="500" cy="500" r="438.394"/>
<circle style="fill:none;stroke:#000000;stroke-width:4;stroke-miterlimit:10;" cx="500" cy="500" r="417.704"/>
<g>
	<path d="M906.476,593.153l-1.15,5.167l-0.354-0.079c0,0,0.329-1.476-0.793-1.726l-25.098-5.591
		c-1.121-0.249-1.421,1.233-1.421,1.233l-0.354-0.079l0.822-3.69l7.737-8.721l2.215,0.493L888,580.516
		c-0.915-0.204-1.945-0.03-2.464,0.629l-6.523,7.441l25.658,5.715c1.122,0.25,1.45-1.227,1.45-1.227L906.476,593.153z"/>
	<path d="M899.403,574.465l-8.596,2.12l-9.323-6.867l9.222-2.345l7.563,5.563l12.192-3.124c0.379-0.393,0.487-0.987,0.487-0.987
		l0.387,0.07l-0.749,4.106l-0.387-0.07c0,0,0.114-0.625-0.103-1.126l-9.984,2.481l8.51,6.104c0.498-0.37,0.425-1.152,0.425-1.152
		l0.388,0.07l-0.544,2.976l-0.381-0.101c0,0,0.133-0.56-0.054-1.055L899.403,574.465z M891.857,568.813l-7.923,1.966l5.778,4.222
		l7.863-1.977L891.857,568.813z"/>
	<path d="M913.358,552.603l0.359,0.052l-0.159,1.107l-17.307,6.289l-5.177-8.867l-6.491,7.991l26.136,3.743
		c1.138,0.163,1.353-1.334,1.353-1.334l0.359,0.052l-0.215,1.496l-0.321,2.246l-0.215,1.496l-0.359-0.051
		c0,0,0.206-1.438-0.863-1.651l-25.78-3.662c-0.898,0.085-1.078,1.343-1.078,1.343l-0.359-0.052l0.21-1.467l0.317-2.215
		l-0.018-0.095l7.463-9.227l5.416,9.33l16.027-5.679C913.251,553.137,913.319,552.872,913.358,552.603z"/>
	<path d="M886.451,537.499l0.391-3.759l0.361,0.037c0,0-0.132,1.264,0.719,1.564l25.831,2.718c1.143,0.118,1.299-1.386,1.299-1.386
		l0.361,0.038l-0.548,5.263l-0.36-0.037c0,0,0.156-1.504-0.986-1.623l-24.818-2.521l9.036,4.314l-9.764,2.39l24.842,2.584
		c1.143,0.118,1.299-1.386,1.299-1.386l0.361,0.038l-0.547,5.263l-0.361-0.037c0,0,0.156-1.504-0.986-1.623l-25.838-2.656
		c-0.894,0.119-1.025,1.383-1.025,1.383l-0.361-0.038l0.392-3.759l0.331,0.034l10.154-2.349l-9.48-4.421L886.451,537.499z"/>
	<path d="M887.551,522.604l0.25-3.803l0.393,0.026c0,0-0.078,1.177,0.653,1.589l26.019,1.68c1.146,0.075,1.246-1.434,1.246-1.434
		l0.362,0.023l-0.348,5.282l-0.362-0.024c0,0,0.098-1.479-1.05-1.554l-6.034-0.428l-9.641,2.792l9.194,3.999l6.036,0.397
		c1.147,0.075,1.246-1.435,1.246-1.435l0.362,0.024l-0.347,5.281l-0.362-0.023c0,0,0.097-1.479-1.05-1.555l-25.896-1.701
		c-0.898,0.305-0.972,1.421-0.972,1.421l-0.393-0.025l0.248-3.773l9.94-2.741L887.551,522.604z M897.866,527.072l-8.466,2.444
		l16.6,1.091L897.866,527.072z M889.904,522.76l8.016,3.497l8.496-2.442L889.904,522.76z"/>
	<path d="M889.696,495.546l25.707-0.415c1.149-0.019,1.125-1.531,1.125-1.531l0.362-0.006l0.086,5.292l-0.363,0.006
		c0,0-0.024-1.512-1.174-1.494l-25.706,0.415c-1.149,0.019-1.125,1.531-1.125,1.531l-0.363,0.006l-0.085-5.292l0.363-0.006
		C888.523,494.053,888.548,495.565,889.696,495.546z"/>
	<path d="M887.531,476.065l-0.07-1.511l0.363-0.017c0,0,0.07,1.51,1.218,1.457l8.309-0.386l-6.958,10.557l23.898-1.11l-7.875-9.837
		l8.309-0.386c1.147-0.053,1.077-1.564,1.077-1.564l0.362-0.017l0.246,5.287l-0.362,0.017c0,0-0.07-1.51-1.219-1.457l-6.042,0.281
		l8.027,9.861l-27.946,1.298l-0.756,0.035l7.079-10.563l-7.553,0.351l-0.105-2.266L887.531,476.065z"/>
	<path d="M914.481,457.312l0.361-0.031l0.449,5.274l-0.362,0.031c0,0-0.128-1.507-1.271-1.379l-14.317,1.188l5.651,8.625
		l-16.184,1.377c-1.145,0.097-0.986,1.602-0.986,1.602l-0.362,0.031l-0.448-5.274l0.361-0.031c0,0,0.099,1.509,1.243,1.412
		l13.953-1.187l-5.681-8.623l16.574-1.41C914.609,458.819,914.481,457.312,914.481,457.312z"/>
	<path d="M912.522,441.367l0.391-0.048l0.37,3.001l-0.394,0.018c0,0-0.089-0.72-0.493-1.036l-11.376,1.405l-10.078,4.506
		l-4.272,5.617l25.992-3.211c1.141-0.141,0.929-1.608,0.929-1.608l0.39-0.048l0.646,5.223l-0.391,0.048c0,0-0.215-1.497-1.296-1.363
		l-25.508,3.182c-1.141,0.141-0.955,1.642-0.955,1.642l-0.36,0.044l-0.464-3.751l4.788-6.381l10.397-4.636l11.495-1.42
		C912.608,442.057,912.522,441.367,912.522,441.367z"/>
	<path d="M882.6,433.891l-0.613-3.761l0.388-0.063c0,0,0.189,1.164,0.994,1.4l25.723-4.226c1.134-0.185,0.891-1.677,0.891-1.677
		l0.358-0.059l0.852,5.223l-0.357,0.059c0,0-0.239-1.462-1.373-1.278l-5.975,0.944l-8.762,4.891l9.857,1.824l5.969-0.974
		c1.135-0.185,0.892-1.677,0.892-1.677l0.357-0.058l0.853,5.223l-0.358,0.058c0,0-0.238-1.462-1.373-1.277l-25.607,4.176
		c-0.808,0.5-0.627,1.604-0.627,1.604l-0.389,0.063l-0.608-3.731l9.065-4.91L882.6,433.891z M884.928,433.511l8.595,1.601
		l7.726-4.293L884.928,433.511z M893.654,435.918l-7.696,4.289l16.415-2.677L893.654,435.918z"/>
	<path d="M876.537,405.01l-0.897-3.703l0.353-0.085c0,0,0.363,1.499,1.48,1.228l24.979-6.057c1.117-0.271,0.754-1.77,0.754-1.77
		l0.353-0.085l0.897,3.703l-11.691,6.32l13.288,0.263l0.897,3.703l-0.353,0.085c0,0-0.356-1.47-1.473-1.199l-24.98,6.057
		c-1.088,0.264-0.761,1.74-0.761,1.74l-0.353,0.085l-0.897-3.703l11.839-6.355L876.537,405.01z M901.87,398.867l-22.306,5.409
		l11.726,0.237L901.87,398.867z M891.469,405.248l-10.309,5.611l22.188-5.38L891.469,405.248z"/>
	<path d="M891.063,389.711l-6.777,5.7l-11.399-2.043l7.239-6.177l9.243,1.65l9.56-8.189c0.167-0.52,0.002-1.101,0.002-1.101
		l0.378-0.108l1.142,4.016l-0.378,0.108c0,0-0.174-0.611-0.589-0.965l-7.863,6.637l10.332,1.718
		c0.283-0.552-0.127-1.222-0.127-1.222l0.378-0.107l0.827,2.91l-0.386,0.078c0,0-0.129-0.561-0.515-0.923L891.063,389.711z
		 M881.794,387.974l-6.24,5.264l7.05,1.236l6.183-5.248L881.794,387.974z"/>
	<path d="M897.06,372.476l1.642,5.031l-0.345,0.113c0,0-0.469-1.438-1.562-1.081l-24.436,7.977
		c-1.093,0.357-0.595,1.785-0.595,1.785l-0.345,0.113l-1.173-3.594l2.213-11.442l2.156-0.704l0.113,0.345
		c-0.892,0.291-1.689,0.965-1.8,1.796l-1.82,9.724l24.981-8.155c1.093-0.357,0.623-1.794,0.623-1.794L897.06,372.476z"/>
	<path d="M881.442,359.993l-6.314,6.207l-11.521-1.154l6.737-6.718l9.343,0.929l8.896-8.904c0.126-0.531-0.084-1.098-0.084-1.098
		l0.369-0.136l1.448,3.915l-0.369,0.136c0,0-0.22-0.596-0.661-0.916l-7.324,7.226l10.433,0.913c0.24-0.573-0.222-1.208-0.222-1.208
		l0.369-0.136l1.05,2.836l-0.379,0.108c0,0-0.171-0.55-0.584-0.881L881.442,359.993z M872.069,358.979l-5.813,5.731l7.124,0.686
		l5.756-5.71L872.069,358.979z"/>
	<path d="M882.307,334.099l0.335-0.139l0.429,1.034l-11.68,14.237l-8.976-4.988l-1.507,10.185l24.391-10.11
		c1.062-0.44,0.482-1.837,0.482-1.837l0.335-0.139l0.579,1.397l0.868,2.095l0.579,1.397l-0.335,0.139c0,0-0.556-1.341-1.585-0.98
		l-24.044,10c-0.729,0.531-0.242,1.705-0.242,1.705l-0.335,0.139l-0.568-1.369l-0.856-2.067l-0.063-0.072l1.713-11.743l9.417,5.264
		l10.891-13.06C882.487,334.613,882.411,334.35,882.307,334.099z"/>
	<path d="M868.573,305.539l0.324-0.164l2.396,4.721l-0.324,0.164c0,0-0.685-1.349-1.696-0.802l-12.827,6.475l8.477,5.876
		l-14.487,7.35c-1.025,0.521-0.313,1.855-0.313,1.855l-0.324,0.164l-2.396-4.721l0.324-0.165c0,0,0.657,1.363,1.683,0.843
		l12.49-6.337l-8.503-5.862l14.837-7.528C869.258,306.888,868.573,305.539,868.573,305.539z"/>
	<path d="M840.287,309.864l22.464-12.503c1.005-0.559,0.27-1.88,0.27-1.88l0.316-0.177l2.574,4.625l-0.316,0.176
		c0,0-0.736-1.321-1.74-0.762l-22.464,12.503c-1.004,0.559-0.269,1.88-0.269,1.88l-0.317,0.177l-2.574-4.625l0.317-0.177
		C838.548,309.101,839.283,310.423,840.287,309.864z"/>
	<path d="M832.017,298.683l2.276-9.349l1.291-0.786l-1.901,7.811l21.002-12.777c0.981-0.597,0.181-1.915,0.181-1.915l0.31-0.189
		l2.766,4.547l-0.31,0.188c0,0-0.786-1.292-1.768-0.694l-20.873,12.699l8.313,1.562l-1.292,0.786L832.017,298.683z"/>
	<path d="M839.855,259.069l0.295-0.212l3.104,4.324l-0.295,0.211c0,0-0.882-1.229-1.815-0.558l-20.882,14.993
		c-0.908,0.653-0.026,1.881-0.026,1.881l-0.295,0.211l-2.223-3.095l-1.333-11.553l2.138-1.534l0.212,0.294
		c-0.688,0.494-1.606,1.86-1.485,2.444l1.156,9.855l6.363-4.568l-1.333-11.553l2.162-1.552l0.212,0.294
		c-0.664,0.477-1.613,1.903-1.492,2.486l1.174,9.88l14.348-10.301c0.934-0.67,0.033-1.923,0.033-1.923L839.855,259.069z"/>
	<path d="M804.688,259.437l-2.34-3.009l0.311-0.241c0,0,0.725,0.931,1.544,0.753l20.566-16.031c0.907-0.706-0.021-1.899-0.021-1.899
		l0.287-0.223l3.249,4.179l-0.286,0.223c0,0-0.91-1.17-1.817-0.465l-4.795,3.69l-5.352,8.492l9.53-3.119l4.775-3.714
		c0.908-0.706-0.021-1.899-0.021-1.899l0.286-0.223l3.25,4.179l-0.286,0.223c0,0-0.91-1.17-1.817-0.464l-20.489,15.933
		c-0.47,0.825,0.217,1.708,0.217,1.708l-0.31,0.242l-2.321-2.985l5.609-8.654L804.688,259.437z M806.551,257.988l8.315-2.711
		l4.729-7.471L806.551,257.988z M815.368,255.922l-4.705,7.452l13.134-10.213L815.368,255.922z"/>
	<path d="M795.247,247.882l-2.433-2.894l0.278-0.233c0,0,0.817,0.972,1.624,0.57l19.903-16.688c0.88-0.739-0.093-1.897-0.093-1.897
		l0.277-0.233l3.405,4.051l-0.278,0.233c0,0-0.973-1.157-1.852-0.418l-19.059,16.097l9.382-3.5l-5.066,8.682l19.12-16.07
		c0.88-0.739-0.093-1.897-0.093-1.897l0.277-0.233l3.404,4.051l-0.277,0.233c0,0-0.973-1.157-1.853-0.418l-19.864,16.735
		c-0.535,0.727,0.282,1.699,0.282,1.699l-0.278,0.233l-2.432-2.894l0.255-0.214l5.367-8.935l-9.768,3.746L795.247,247.882z"/>
	<path d="M787.594,239.228l0.46-9.613l1.119-1.017l-0.384,8.032l18.198-16.537c0.851-0.773-0.187-1.915-0.187-1.915l0.269-0.244
		l3.58,3.94l-0.269,0.244c0,0-1.018-1.12-1.868-0.347l-18.087,16.435l8.46-0.045l-1.119,1.017L787.594,239.228z"/>
	<path d="M776.288,187.717l3.979,3.49l-0.259,0.295c0,0-1.137-0.997-1.895-0.133l-16.933,19.303
		c-0.758,0.864,0.379,1.861,0.379,1.861l-0.239,0.272l-3.979-3.49l0.239-0.273c0,0,1.137,0.997,1.895,0.133l9.513-10.845
		l0.774-16.338l1.979,1.735l-0.26,0.295c-0.228-0.2-0.75-0.658-1.089-0.271l-0.626,13.692l6.641-7.571
		c0.758-0.864-0.379-1.861-0.379-1.861L776.288,187.717z"/>
	<path d="M756.473,184.973l-2.271,8.557l-10.502,4.876l2.375-9.212l8.511-3.96l3.118-12.193c-0.162-0.521-0.632-0.902-0.632-0.902
		l0.248-0.306l3.24,2.63l-0.247,0.305c0,0-0.493-0.4-1.036-0.451l-2.621,9.948l9.441-4.529c-0.086-0.615-0.806-0.927-0.806-0.927
		l0.247-0.306l2.349,1.906l-0.271,0.286c0,0-0.427-0.386-0.951-0.46L756.473,184.973z M747.891,188.875l-2.081,7.893l6.478-3.039
		l2.044-7.845L747.891,188.875z"/>
	<path d="M740.151,181.278l-5.588,7.454c-0.689,0.92,0.521,1.827,0.521,1.827l-0.218,0.291l-4.235-3.175l0.218-0.291
		c0,0,1.21,0.907,1.899-0.013l6.187-8.252l-2.645-4.742c-0.356-0.079-0.756,0.454-0.756,0.454l-0.29-0.217l1.597-2.13l0.29,0.218
		c-0.272,0.363-0.356,0.678-0.303,1.059l2.597,4.706l8.744-11.665c0.689-0.919-0.538-1.802-0.538-1.802l0.235-0.315l4.235,3.175
		l-0.236,0.314c0,0-1.191-0.931-1.881-0.012l-9.361,12.487l2.614,4.682c0.278,0.133,0.538-0.012,0.792-0.351l0.29,0.218
		l-1.578,2.105l-0.29-0.218c0.199-0.266,0.423-0.666,0.398-0.986L740.151,181.278z"/>
	<path d="M730.858,153.108l0.206-0.298l4.354,3.009l-0.207,0.298c0,0-1.243-0.859-1.872,0.103l-8.193,11.797l10.247,1.13
		l-9.234,13.356c-0.653,0.945,0.607,1.78,0.607,1.78l-0.206,0.298l-4.353-3.009l0.206-0.298c0,0,1.227,0.885,1.88-0.061
		l7.962-11.516l-10.265-1.105l9.458-13.679C732.103,153.968,730.858,153.108,730.858,153.108z"/>
	<path d="M705.309,170.444l-3.191-2.03l0.195-0.306c0,0,1.072,0.682,1.722,0.055l13.972-21.912c0.616-0.97-0.66-1.782-0.66-1.782
		l0.195-0.307l4.467,2.841l-0.194,0.306c0,0-1.276-0.812-1.894,0.159l-13.343,21.093l7.898-6.163l-2.222,9.809l13.41-21.086
		c0.617-0.97-0.659-1.782-0.659-1.782l0.194-0.307l4.468,2.841l-0.195,0.306c0,0-1.276-0.812-1.894,0.159l-13.92,21.944
		c-0.292,0.854,0.779,1.536,0.779,1.536l-0.194,0.306l-3.191-2.029l0.179-0.281l2.434-10.141l-8.193,6.513L705.309,170.444z"/>
	<path d="M711.553,140.624l4.571,2.667l-0.198,0.339c0,0-1.307-0.762-1.886,0.23l-12.941,22.179
		c-0.579,0.993,0.727,1.755,0.727,1.755l-0.183,0.313l-4.571-2.667l0.183-0.313c0,0,1.306,0.762,1.886-0.23l7.271-12.461
		l-2.355-16.187l2.273,1.326l-0.198,0.339c-0.262-0.152-0.862-0.503-1.122-0.059l1.997,13.562l5.076-8.699
		c0.579-0.993-0.727-1.755-0.727-1.755L711.553,140.624z"/>
	<path d="M682.409,157.208l-2.806-9.205l0.711-1.334l2.344,7.691l11.563-21.697c0.54-1.014-0.821-1.739-0.821-1.739l0.171-0.32
		l4.697,2.503l-0.171,0.32c0,0-1.334-0.711-1.875,0.303l-11.49,21.563l7.948-2.892l-0.711,1.334L682.409,157.208z"/>
	<path d="M666.031,148.955l-3.403-1.648l0.158-0.327c0,0,1.144,0.554,1.717-0.144l11.352-23.37c0.501-1.034-0.86-1.693-0.86-1.693
		l0.158-0.327l4.764,2.307l-0.158,0.327c0,0-1.36-0.659-1.861,0.375l-10.822,22.484l7.135-7.03l-1.077,9.997l10.89-22.485
		c0.501-1.034-0.86-1.693-0.86-1.693l0.158-0.327l4.764,2.307l-0.158,0.327c0,0-1.361-0.659-1.862,0.375l-11.297,23.397
		c-0.192,0.881,0.951,1.435,0.951,1.435l-0.158,0.327l-3.402-1.648l0.145-0.299l1.249-10.351l-7.387,7.412L666.031,148.955z"/>
	<path d="M655.542,144.189l-3.509-8.96l0.605-1.386l2.933,7.487l9.85-22.528c0.46-1.053-0.953-1.671-0.953-1.671l0.146-0.333
		l4.877,2.132l-0.146,0.333c0,0-1.386-0.606-1.846,0.447l-9.789,22.39l7.701-3.498l-0.605,1.385L655.542,144.189z"/>
	<path d="M645.398,109.46l0.143-0.366l2.815,1.103l-0.171,0.355c0,0-0.676-0.265-1.146-0.06l-4.181,10.67l-0.838,11.006l2.903,6.431
		l9.554-24.38c0.419-1.07-0.972-1.583-0.972-1.583l0.144-0.366l4.898,1.919l-0.144,0.366c0,0-1.419-0.523-1.815,0.49l-9.35,23.94
		c-0.419,1.07,0.988,1.622,0.988,1.622l-0.132,0.338l-3.52-1.379l-3.33-7.248l0.875-11.349l4.226-10.782
		C646.046,109.714,645.398,109.46,645.398,109.46z"/>
	<path d="M630.296,104.135l0.119-0.343l1.057,0.368l2.864,18.19l-9.694,3.385l6.603,7.899l8.672-24.937
		c0.377-1.085-1.051-1.582-1.051-1.582l0.119-0.343l1.428,0.497l2.143,0.745l1.429,0.497l-0.119,0.343c0,0-1.371-0.477-1.786,0.532
		l-8.524,24.604c-0.088,0.898,1.111,1.315,1.111,1.315l-0.119,0.343l-1.399-0.699L631.033,134h-0.096l-7.63-8.877l10.193-3.425
		l-2.509-16.765C630.8,104.289,630.553,104.224,630.296,104.135z"/>
	<path d="M608.586,97.732l0.093-0.351l5.146,1.359l-0.093,0.351c0,0-1.462-0.386-1.755,0.725l-6.563,24.851
		c-0.286,1.082,1.176,1.468,1.176,1.468l-0.093,0.351l-3.684-0.973l-8.38-8.062l0.672-2.543l0.352,0.093
		c-0.217,0.819-0.055,2.457,0.409,2.829l7.163,6.865l2-7.572l-8.379-8.062l0.679-2.573l0.352,0.093
		c-0.209,0.79-0.033,2.493,0.431,2.866l7.192,6.872l4.51-17.074c0.293-1.111-1.198-1.505-1.198-1.505L608.586,97.732z"/>
	<path d="M581.745,120.393l-3.72-0.829l0.078-0.354c0,0,1.506,0.335,1.756-0.787l5.59-25.097c0.25-1.122-1.256-1.457-1.256-1.457
		l0.079-0.354l3.721,0.829l0.512,13.285l6.102-11.812l3.721,0.829L598.248,95c0,0-1.477-0.329-1.727,0.793l-5.59,25.097
		c-0.243,1.092,1.227,1.451,1.227,1.451l-0.079,0.354l-3.72-0.829l-0.479-13.433L581.745,120.393z M587.414,94.941l-4.991,22.41
		l5.389-10.421L587.414,94.941z M588.55,107.095l0.486,11.73l4.966-22.292L588.55,107.095z"/>
	<path d="M569.578,116.461l4.617-25.292c0.207-1.13-1.281-1.402-1.281-1.402l0.065-0.357l5.207,0.951l-0.065,0.357
		c0,0-1.487-0.271-1.694,0.859l-4.617,25.292c-0.206,1.13,1.281,1.402,1.281,1.402l-0.064,0.357l-5.207-0.951l0.064-0.357
		C567.884,117.321,569.372,117.592,569.578,116.461z"/>
	<path d="M550.048,114.935l-1.497-0.215l0.052-0.359c0,0,1.496,0.214,1.659-0.923l1.18-8.233l9.063,8.814l3.392-23.681l-11.139,5.89
		l1.179-8.233c0.163-1.138-1.334-1.352-1.334-1.352l0.052-0.359l5.238,0.75l-0.051,0.359c0,0-1.497-0.214-1.66,0.923l-0.857,5.987
		l11.19-6.035l-3.966,27.692l-0.107,0.749l-9.047-8.934l-1.071,7.484l-2.246-0.322L550.048,114.935z"/>
	<path d="M539.911,112.281l2.659-25.564c0.119-1.143-1.385-1.299-1.385-1.299l0.037-0.361l5.264,0.547l-0.038,0.361
		c0,0-1.503-0.156-1.622,0.986l-2.659,25.564c-0.119,1.143,1.385,1.299,1.385,1.299l-0.037,0.361l-5.264-0.547l0.038-0.361
		C538.289,113.268,539.793,113.424,539.911,112.281z"/>
	<path d="M520.674,83.857l0.023-0.362l5.281,0.347l-0.023,0.362c0,0-1.509-0.1-1.555,1.049l-0.972,14.334l9.376-4.294l-1.065,16.208
		c-0.075,1.147,1.436,1.216,1.436,1.216l-0.023,0.362l-5.282-0.347l0.023-0.362c0,0,1.508,0.129,1.583-1.018l0.918-13.974
		l-9.378,4.324l1.092-16.6C522.183,83.957,520.674,83.857,520.674,83.857z"/>
	<path d="M509.985,110.393l0.7-25.693c0.031-1.149-1.479-1.19-1.479-1.19l0.01-0.363l5.29,0.144l-0.011,0.363
		c0,0-1.511-0.041-1.542,1.107l-0.701,25.694c-0.031,1.148,1.48,1.189,1.48,1.189l-0.01,0.363l-5.29-0.144l0.01-0.363
		C508.442,111.5,509.954,111.541,509.985,110.393z"/>
	<path d="M497.668,83.041l5.292-0.085l0.006,0.394c0,0-1.512,0.024-1.493,1.173l0.414,25.676c0.019,1.149,1.531,1.125,1.531,1.125
		l0.006,0.363l-5.292,0.085l-0.006-0.363c0,0,1.512-0.024,1.494-1.174l-0.233-14.426l-10.398-12.628l2.631-0.042l0.006,0.394
		c-0.302,0.005-0.998,0.016-0.99,0.53l8.732,10.567l-0.163-10.071c-0.019-1.149-1.531-1.125-1.531-1.125L497.668,83.041z"/>
	<path d="M480.035,110.775l-1.232-25.68c-0.055-1.148-1.566-1.076-1.566-1.076l-0.018-0.363l5.287-0.253l0.018,0.362
		c0,0-1.511,0.073-1.456,1.221l1.232,25.681c0.055,1.148,1.565,1.076,1.565,1.076l0.018,0.362l-5.287,0.254l-0.018-0.363
		C478.58,111.996,480.09,111.923,480.035,110.775z"/>
	<path d="M466.546,102.336l0.799,9.282c0.099,1.145,1.605,1.016,1.605,1.016l0.031,0.361l-5.274,0.454l-0.031-0.362
		c0,0,1.507-0.129,1.408-1.274l-0.885-10.277l-5.131-1.774c-0.319,0.179-0.262,0.842-0.262,0.842l-0.362,0.031l-0.228-2.652
		l0.362-0.031c0.039,0.452,0.185,0.743,0.48,0.991l5.071,1.78l-1.25-14.525c-0.099-1.146-1.603-0.985-1.603-0.985l-0.034-0.392
		l5.273-0.454l0.034,0.392c0,0-1.509,0.1-1.411,1.245l1.338,15.55l5.069,1.75c0.296-0.086,0.394-0.368,0.357-0.79l0.362-0.031
		l0.226,2.622l-0.361,0.031c-0.029-0.332-0.128-0.778-0.359-1.001L466.546,102.336z"/>
	<path d="M445.325,114.917l2.066-7.361l-3.065-5.988l1.144-6.941l-3.583-6.959c-0.45-0.188-1.024-0.146-1.024-0.146l-0.045-0.36
		l4.502-0.563l0.045,0.36c0,0-0.747,0.124-1.144,0.601l5.692,11.146l3.462-12.291c-0.503-0.364-1.257-0.3-1.257-0.3l-0.045-0.36
		l3.001-0.375l0.045,0.36c0,0-0.566,0.101-0.983,0.428l-2.052,7.237l3.302,6.415l-1.192,7.282l3.148,6.161
		c0.503,0.364,1.253,0.27,1.253,0.27l0.045,0.36l-4.502,0.563l-0.045-0.36c0,0,0.75-0.094,1.148-0.57l-5.711-11.053l-3.443,12.197
		c0.503,0.364,1.253,0.27,1.253,0.27l0.045,0.36l-3.001,0.375l-0.045-0.36C444.338,115.315,444.909,115.244,445.325,114.917z
		 M448.157,104.9l0.931-3.287l-3.092-5.954l-0.648,3.831L448.157,104.9z M450.355,99.564l3.313,6.506l0.701-4.142l-3.021-5.872
		L450.355,99.564z"/>
	<path d="M419.052,120.211l-3.704,0.753l-0.072-0.356c0,0,1.245-0.253,1.277-1.154l-5.148-25.46c-0.229-1.126-1.71-0.825-1.71-0.825
		l-0.072-0.355l5.186-1.055l0.072,0.356c0,0-1.481,0.301-1.252,1.427l5.032,24.435l1.409-9.914l5.206,8.6l-4.979-24.477
		c-0.229-1.126-1.711-0.825-1.711-0.825l-0.072-0.356l5.186-1.055l0.072,0.356c0,0-1.481,0.301-1.252,1.427l5.207,25.448
		c0.382,0.817,1.627,0.564,1.627,0.564l0.072,0.355l-3.704,0.753l-0.066-0.326l-5.284-8.985l-1.377,10.371L419.052,120.211z"/>
	<path d="M402.839,94.458l5.143-1.255l0.086,0.353c0,0-1.469,0.359-1.197,1.476l6.096,24.98c0.272,1.117,1.735,0.729,1.735,0.729
		l0.086,0.353l-3.673,0.896l-11.245-3.079l-0.538-2.204l0.353-0.086c0.222,0.911,0.833,1.758,1.654,1.932l9.561,2.556l-6.232-25.539
		c-0.273-1.117-1.742-0.758-1.742-0.758L402.839,94.458z"/>
	<path d="M391.883,125.455l-7.056-24.721c-0.315-1.105-1.77-0.69-1.77-0.69l-0.1-0.349l5.09-1.453l0.1,0.349
		c0,0-1.454,0.415-1.139,1.52l7.056,24.721c0.315,1.105,1.77,0.69,1.77,0.69l0.1,0.349l-5.09,1.453l-0.1-0.349
		C390.744,126.975,392.199,126.56,391.883,125.455z"/>
	<path d="M379.083,130.974l-8.586-4.343l-0.472-1.437l7.174,3.629l-7.667-23.359c-0.358-1.092-1.824-0.611-1.824-0.611l-0.113-0.345
		l5.057-1.66l0.113,0.345c0,0-1.437,0.471-1.078,1.563l7.619,23.215l3.412-7.74l0.471,1.437L379.083,130.974z"/>
	<path d="M319.355,124.445l-0.152-0.33l4.806-2.216l0.152,0.33c0,0-1.374,0.633-0.865,1.664l5.988,13.059l6.188-8.249l6.801,14.749
		c0.481,1.044,1.842,0.383,1.842,0.383l0.152,0.33l-4.807,2.216l-0.152-0.33c0,0,1.386-0.606,0.905-1.649l-5.864-12.717
		l-6.175,8.276l-6.966-15.106C320.728,123.812,319.355,124.445,319.355,124.445z"/>
	<path d="M321.292,155.243l-3.369,1.714l-0.165-0.323c0,0,1.132-0.576,0.922-1.454l-11.756-23.161
		c-0.521-1.024-1.869-0.338-1.869-0.338l-0.165-0.324l4.716-2.4l0.165,0.323c0,0-1.347,0.686-0.826,1.71l11.371,22.204l-1.289-9.93
		l7.312,6.898l-11.331-22.258c-0.521-1.024-1.869-0.338-1.869-0.338l-0.165-0.323l4.716-2.4l0.165,0.323c0,0-1.347,0.686-0.826,1.71
		l11.811,23.134c0.586,0.686,1.718,0.109,1.718,0.109l0.165,0.323l-3.368,1.715l-0.151-0.296l-7.49-7.249l1.441,10.362
		L321.292,155.243z"/>
	<path d="M308.202,162.375l-3.326,1.859l-0.177-0.317c0,0,1.346-0.752,0.786-1.756l-12.542-22.438
		c-0.561-1.003-1.907-0.25-1.907-0.25l-0.177-0.317l3.326-1.859l9.228,9.566l-3.314-12.872l3.326-1.859l0.177,0.317
		c0,0-1.32,0.738-0.759,1.741l12.542,22.438c0.546,0.977,1.881,0.266,1.881,0.266l0.177,0.317l-3.326,1.859l-9.301-9.698
		L308.202,162.375z M295.483,139.62l11.199,20.036l-2.92-11.36L295.483,139.62z M304.422,147.927l8.173,8.424l-11.14-19.931
		L304.422,147.927z"/>
	<path d="M283.113,177.948l-3.176,2.105l-0.2-0.302c0,0,1.286-0.853,0.65-1.81l-14.202-21.427c-0.635-0.958-1.92-0.105-1.92-0.105
		l-0.201-0.303l3.176-2.105l9.924,8.842l-4.278-12.584l3.176-2.105l0.201,0.303c0,0-1.261,0.835-0.625,1.793l14.202,21.427
		c0.618,0.933,1.895,0.123,1.895,0.123l0.201,0.302l-3.176,2.105l-10.008-8.968L283.113,177.948z M268.71,156.219l12.682,19.132
		l-3.771-11.107L268.71,156.219z M278.252,163.827l8.787,7.782l-12.615-19.032L278.252,163.827z"/>
	<path d="M263.806,169.478l7.664,4.435l1.954,11.415l-8.27-4.707l-1.591-9.253l-10.951-6.206c-0.545,0.02-1.036,0.373-1.036,0.373
		l-0.23-0.319l3.388-2.438l0.229,0.319c0,0-0.516,0.371-0.707,0.881l8.915,5.137l-1.897-10.299
		c-0.616-0.079-1.106,0.535-1.106,0.535l-0.229-0.319l2.455-1.767l0.205,0.337c0,0-0.484,0.311-0.693,0.797L263.806,169.478z
		 M265.323,178.783l7.072,4.079l-1.235-7.05l-7.037-4.029L265.323,178.783z"/>
	<path d="M247.76,204.87l-2.894,2.434l-0.233-0.278c0,0,0.972-0.817,0.569-1.625L228.5,185.498c-0.74-0.88-1.897,0.094-1.897,0.094
		l-0.234-0.278l4.051-3.407l0.234,0.278c0,0-1.158,0.974-0.417,1.853l16.109,19.058l-3.505-9.383l8.687,5.064l-16.083-19.12
		c-0.74-0.879-1.897,0.094-1.897,0.094l-0.233-0.278l4.051-3.407l0.234,0.278c0,0-1.158,0.973-0.418,1.853l16.748,19.864
		c0.727,0.535,1.699-0.283,1.699-0.283l0.233,0.278l-2.894,2.434l-0.214-0.255l-8.94-5.365l3.751,9.77L247.76,204.87z"/>
	<path d="M237.265,212.144l-17.289-19.027c-0.773-0.851-1.892,0.166-1.892,0.166l-0.244-0.269l3.917-3.56l0.244,0.269
		c0,0-1.12,1.017-0.347,1.867l17.289,19.027c0.773,0.851,1.892-0.167,1.892-0.167l0.244,0.269l-3.917,3.56l-0.244-0.269
		C236.918,214.011,238.038,212.994,237.265,212.144z"/>
	<path d="M203.256,207.575l-0.275-0.281l2.159-2.118l0.254,0.302c0,0-0.518,0.508-0.523,1.021l8.027,8.183l9.702,5.269l7.058-0.018
		l-18.341-18.698c-0.805-0.82-1.841,0.239-1.841,0.239l-0.275-0.281l3.757-3.685l0.275,0.281c0,0-1.059,1.081-0.296,1.858
		l18.023,18.331c0.805,0.821,1.885-0.238,1.885-0.238l0.254,0.259l-2.699,2.647l-7.978,0.073l-10-5.443l-8.112-8.27
		C203.753,207.088,203.256,207.575,203.256,207.575z"/>
	<path d="M192.224,219.161l-0.264-0.249l3.634-3.848l0.264,0.249c0,0-1.038,1.1-0.182,1.867l10.423,9.887l2.668-9.961l11.808,11.152
		c0.835,0.79,1.852-0.331,1.852-0.331l0.264,0.25l-3.634,3.848l-0.264-0.249c0,0,1.06-1.079,0.225-1.868l-10.18-9.615l-2.646,9.981
		l-12.093-11.422C193.262,218.062,192.224,219.161,192.224,219.161z"/>
	<path d="M205.521,247.043l-2.509,2.869l-0.296-0.259c0,0,0.776-0.888,0.446-1.659l-19.645-17.142
		c-0.865-0.757-1.86,0.382-1.86,0.382l-0.273-0.239l3.485-3.984l0.273,0.239c0,0-0.976,1.116-0.11,1.873l4.533,4.005l9.353,3.641
		l-4.873-8.763l-4.553-3.982c-0.865-0.757-1.861,0.381-1.861,0.381l-0.273-0.239l3.485-3.984l0.273,0.239
		c0,0-0.976,1.115-0.111,1.872l19.533,17.085c0.899,0.305,1.636-0.538,1.636-0.538l0.296,0.259l-2.489,2.846l-9.561-3.862
		L205.521,247.043z M203.745,245.49l-4.241-7.647l-8.232-3.222L203.745,245.49z M200.042,237.228l8.209,3.202l-12.521-10.952
		L200.042,237.228z"/>
	<path d="M184.637,243.942l8.562,2.259l4.892,10.496l-9.217-2.361l-3.973-8.507l-12.199-3.101c-0.521,0.163-0.901,0.633-0.901,0.633
		l-0.306-0.248l2.625-3.245l0.306,0.247c0,0-0.399,0.494-0.45,1.037l9.953,2.606l-4.543-9.436c-0.615,0.086-0.926,0.807-0.926,0.807
		l-0.306-0.247l1.903-2.352l0.287,0.271c0,0-0.385,0.428-0.459,0.952L184.637,243.942z M188.552,252.519l7.896,2.071l-3.048-6.475
		l-7.85-2.033L188.552,252.519z"/>
	<path d="M186.912,270.404l-2.282,3.053l-0.291-0.217c0,0,0.924-1.236,0.003-1.924l-20.596-15.396
		c-0.921-0.688-1.845,0.547-1.845,0.547l-0.291-0.217l2.282-3.053l12.327,4.983l-8.27-10.411l2.282-3.053l0.291,0.217
		c0,0-0.906,1.211,0.015,1.9l20.596,15.395c0.896,0.67,1.827-0.523,1.827-0.523l0.291,0.217l-2.282,3.053l-12.448-5.075
		L186.912,270.404z M166.025,254.792l18.391,13.747l-7.293-9.191L166.025,254.792z M177.575,258.742l10.898,4.369l-18.294-13.675
		L177.575,258.742z"/>
	<path d="M172.179,291.949l-9.394,2.094l-1.276-0.811l7.849-1.75l-20.754-13.187c-0.97-0.616-1.797,0.686-1.797,0.686l-0.306-0.194
		l2.855-4.493l0.306,0.195c0,0-0.811,1.276,0.159,1.893l20.626,13.106l-2.277-8.147l1.276,0.811L172.179,291.949z"/>
	<path d="M162.711,307.625l-1.903,3.268l-0.314-0.183c0,0,0.64-1.098-0.012-1.722l-22.438-13.107
		c-0.993-0.579-1.755,0.729-1.755,0.729l-0.313-0.183l2.665-4.574l0.313,0.183c0,0-0.761,1.307,0.232,1.885l21.595,12.511
		l-6.465-7.652l9.887,1.839l-21.59-12.579c-0.993-0.579-1.754,0.728-1.754,0.728l-0.314-0.183l2.665-4.574l0.313,0.183
		c0,0-0.761,1.307,0.232,1.886l22.468,13.055c0.864,0.258,1.504-0.839,1.504-0.839l0.314,0.183l-1.904,3.268l-0.288-0.167
		l-10.227-2.037l6.827,7.933L162.711,307.625z"/>
	<path d="M155.575,320.741l-1.79,3.365l-0.347-0.185c0,0,0.554-1.042,0.057-1.717l-23.032-12.219
		c-1.015-0.54-1.725,0.795-1.725,0.795l-0.32-0.17l2.486-4.673l0.32,0.17c0,0-0.696,1.308,0.318,1.848l5.327,2.868l9.937,1.415
		l-6.74-7.423l-5.341-2.841c-1.015-0.54-1.725,0.795-1.725,0.795l-0.321-0.17l2.486-4.673l0.32,0.171c0,0-0.696,1.308,0.318,1.848
		l22.911,12.188c0.945,0.092,1.471-0.896,1.471-0.896l0.347,0.185l-1.776,3.338l-10.189-1.583L155.575,320.741z M153.492,319.633
		l-5.871-6.481l-8.75-1.263L153.492,319.633z M148.005,312.431l8.723,1.249l-14.687-7.813L148.005,312.431z"/>
	<path d="M147.889,336.165l-0.658,1.361l-0.327-0.158c0,0,0.659-1.361-0.376-1.861l-7.486-3.622l11.147-5.961l-21.532-10.416
		l2.231,12.4l-7.486-3.622c-1.035-0.5-1.693,0.861-1.693,0.861l-0.327-0.158l2.305-4.764l0.326,0.158c0,0-0.658,1.361,0.376,1.861
		l5.444,2.634l-2.355-12.493l25.18,12.181l0.681,0.33l-11.256,5.909l6.806,3.292l-0.988,2.042L147.889,336.165z"/>
	<path d="M127.957,336.659l8.851-0.094l7.5,8.817l-9.51,0.169l-6.085-7.145l-12.58,0.248c-0.458,0.295-0.701,0.849-0.701,0.849
		l-0.36-0.157l1.669-3.824l0.36,0.157c0,0-0.254,0.582-0.158,1.119l10.284-0.128l-6.882-7.888c-0.569,0.246-0.678,1.023-0.678,1.023
		l-0.36-0.157l1.21-2.771l0.348,0.185c0,0-0.257,0.515-0.189,1.039L127.957,336.659z M134.006,343.886l8.16-0.099l-4.656-5.431
		l-8.104,0.123L134.006,343.886z"/>
	<path d="M109.374,354.755l-0.338-0.132l0.408-1.042l18.288-2.168l3.013,9.817l8.146-6.297l-24.59-9.618
		c-1.071-0.418-1.622,0.99-1.622,0.99l-0.338-0.132l0.551-1.409l0.826-2.112l0.551-1.409l0.338,0.132c0,0-0.529,1.352,0.463,1.805
		l24.264,9.457c0.894,0.123,1.356-1.061,1.356-1.061l0.338,0.132l-0.54,1.38l-0.815,2.084l-0.005,0.096l-9.374,7.278l-3.141-10.321
		l-16.903,1.865C109.601,354.259,109.474,354.501,109.374,354.755z"/>
	<path d="M126.935,386.891l-24.591-7.509c-1.1-0.336-1.541,1.111-1.541,1.111l-0.347-0.106l1.546-5.063l0.347,0.106
		c0,0-0.442,1.446,0.658,1.782l24.591,7.51c1.1,0.335,1.542-1.111,1.542-1.111l0.347,0.106l-1.546,5.063l-0.347-0.106
		C127.593,388.674,128.035,387.227,126.935,386.891z"/>
	<path d="M114.444,396.734l9.009,2.374c1.111,0.292,1.497-1.17,1.497-1.17l0.351,0.093l-1.349,5.119l-0.351-0.092
		c0,0,0.385-1.463-0.726-1.755l-9.975-2.628l-3.399,4.235c0.062,0.36,0.705,0.53,0.705,0.53l-0.093,0.351l-2.574-0.678l0.092-0.351
		c0.438,0.116,0.762,0.076,1.095-0.118l3.384-4.176l-14.099-3.714c-1.112-0.293-1.468,1.177-1.468,1.177l-0.38-0.1l1.349-5.119
		l0.38,0.101c0,0-0.415,1.455,0.697,1.748l15.094,3.976l3.354-4.184c0.019-0.308-0.214-0.494-0.624-0.602l0.092-0.351l2.545,0.67
		l-0.092,0.351c-0.322-0.085-0.776-0.142-1.064,0.001L114.444,396.734z"/>
	<path d="M93.45,407.036l1.148-5.167l0.384,0.085c0,0-0.328,1.477,0.793,1.726l25.067,5.571c1.122,0.249,1.45-1.227,1.45-1.227
		l0.354,0.079l-1.148,5.167l-0.354-0.079c0,0,0.328-1.476-0.794-1.726l-14.084-3.13l-14.701,7.175l0.571-2.569l0.384,0.085
		c-0.066,0.295-0.217,0.975,0.285,1.086l12.309-6.033l-9.832-2.185c-1.122-0.249-1.45,1.227-1.45,1.227L93.45,407.036z"/>
	<path d="M116.43,430.587l-25.292-4.604c-1.13-0.206-1.401,1.282-1.401,1.282L89.38,427.2l0.948-5.207l0.357,0.065
		c0,0-0.271,1.488,0.86,1.694l25.292,4.604c1.131,0.206,1.402-1.282,1.402-1.282l0.357,0.065l-0.948,5.207l-0.357-0.065
		C117.29,432.281,117.561,430.793,116.43,430.587z"/>
	<path d="M115.236,447.844l-0.538,3.772l-0.359-0.051c0,0,0.218-1.527-0.92-1.689l-25.447-3.631
		c-1.138-0.163-1.355,1.364-1.355,1.364l-0.359-0.051l0.538-3.772l13.202-1.537l-12.245-5.169l0.539-3.772l0.359,0.051
		c0,0-0.214,1.497,0.924,1.66l25.447,3.631c1.107,0.158,1.351-1.334,1.351-1.334l0.359,0.051l-0.539,3.772l-13.352,1.516
		L115.236,447.844z M89.43,444.162l22.723,3.243l-10.804-4.566L89.43,444.162z M101.456,442.09l11.654-1.392l-22.603-3.226
		L101.456,442.09z"/>
	<path d="M112.277,460.263L86.7,457.617c-1.144-0.119-1.299,1.386-1.299,1.386l-0.361-0.037l0.545-5.266l0.361,0.037
		c0,0-0.155,1.504,0.988,1.623l25.577,2.646c1.143,0.119,1.299-1.386,1.299-1.386l0.361,0.038l-0.545,5.266l-0.361-0.037
		C113.265,461.886,113.42,460.381,112.277,460.263z"/>
	<path d="M112.406,477.586l-0.248,3.803l-0.362-0.023c0,0,0.101-1.54-1.046-1.614l-25.655-1.673
		c-1.147-0.075-1.247,1.465-1.247,1.465l-0.362-0.024l0.248-3.803l13.048-2.544l-12.607-4.217l0.248-3.803l0.362,0.023
		c0,0-0.099,1.509,1.048,1.584l25.655,1.673c1.117,0.073,1.245-1.434,1.245-1.434l0.362,0.023l-0.248,3.803l-13.199,2.534
		L112.406,477.586z M86.39,475.89l22.908,1.494l-11.123-3.726L86.39,475.89z M98.223,472.903l11.515-2.28l-22.787-1.486
		L98.223,472.903z"/>
	<path d="M83.407,495.548l-0.393-0.011l0.083-3.022l0.392,0.041c0,0-0.02,0.725,0.333,1.098l11.457,0.312l10.637-2.947l5.065-4.914
		l-26.177-0.714c-1.148-0.031-1.159,1.451-1.159,1.451l-0.393-0.011l0.144-5.259l0.393,0.011c0,0-0.011,1.512,1.077,1.542
		l25.694,0.67c1.148,0.031,1.19-1.48,1.19-1.48l0.362,0.01l-0.103,3.778l-5.688,5.593l-10.973,3.028l-11.577-0.316
		C83.426,494.853,83.407,495.548,83.407,495.548z"/>
	<path d="M100.958,502.884l9.315-0.15c1.149-0.019,1.125-1.531,1.125-1.531l0.363-0.006l0.085,5.293l-0.363,0.006
		c0,0-0.024-1.512-1.174-1.493l-10.313,0.166l-2.127,4.995c0.157,0.331,0.822,0.32,0.822,0.32l0.006,0.362l-2.661,0.043
		l-0.006-0.362c0.454-0.008,0.754-0.134,1.022-0.41l2.128-4.935l-14.577,0.235c-1.149,0.019-1.094,1.529-1.094,1.529l-0.394,0.007
		l-0.085-5.293l0.394-0.006c0,0-0.006,1.513,1.143,1.494l15.605-0.252l2.099-4.935c-0.065-0.302-0.34-0.418-0.763-0.411
		l-0.006-0.363l2.631-0.042l0.006,0.363c-0.333,0.005-0.786,0.073-1.024,0.289L100.958,502.884z"/>
	<path d="M112.232,518.775l-6.472,7.124l-1.51,0.072l5.407-5.952l-24.563,1.179c-1.148,0.055-1.074,1.596-1.074,1.596l-0.363,0.018
		l-0.255-5.317l0.362-0.018c0,0,0.073,1.511,1.221,1.455l24.412-1.171l-6.555-5.349l1.511-0.072L112.232,518.775z"/>
	<path d="M87.506,558.836l-0.39,0.049l-0.373-3.001l0.394-0.019c0,0,0.089,0.72,0.494,1.035l11.375-1.41l10.076-4.512l4.271-5.619
		l-25.992,3.225c-1.141,0.142-0.928,1.608-0.928,1.608l-0.39,0.049l-0.648-5.223l0.39-0.049c0,0,0.216,1.497,1.297,1.363
		l25.508-3.194c1.141-0.142,0.955-1.643,0.955-1.643l0.36-0.045l0.465,3.752l-4.785,6.384l-10.396,4.642l-11.496,1.427
		C87.42,558.146,87.506,558.836,87.506,558.836z"/>
	<path d="M116.858,562.96l-5.617,7.813l-1.493,0.244l4.693-6.529l-24.265,3.97c-1.134,0.186-0.885,1.708-0.885,1.708l-0.358,0.059
		l-0.859-5.253l0.358-0.059c0,0,0.244,1.492,1.378,1.307l24.116-3.945l-7.121-4.565l1.493-0.244L116.858,562.96z"/>
	<path d="M94.374,596.806l-1.25-5.143l0.353-0.086c0,0,0.357,1.47,1.474,1.198l24.98-6.07c1.117-0.271,0.73-1.733,0.73-1.733
		l0.353-0.086l0.893,3.674l-3.089,11.239l-2.204,0.536l-0.086-0.353c0.911-0.222,1.759-0.832,1.933-1.652l2.564-9.556l-25.539,6.205
		c-1.117,0.271-0.76,1.741-0.76,1.741L94.374,596.806z"/>
	<path d="M98.746,612.27l-0.349,0.1l-1.458-5.118l0.349-0.1c0,0,0.414,1.454,1.52,1.14l24.721-7.043
		c1.076-0.307,0.662-1.761,0.662-1.761l0.349-0.1l1.044,3.665l-2.655,11.321l-2.53,0.721l-0.1-0.35
		c0.814-0.231,2.14-1.207,2.224-1.797l2.246-9.664l-7.532,2.146l-2.655,11.321l-2.559,0.729l-0.1-0.349
		c0.785-0.224,2.161-1.244,2.245-1.834l2.238-9.693l-16.984,4.838c-1.105,0.315-0.683,1.799-0.683,1.799L98.746,612.27z"/>
	<path d="M101.328,622.694l0.345-0.113c0,0,0.47,1.438,1.563,1.08l24.436-7.989c1.063-0.348,0.623-1.795,0.623-1.795l0.345-0.112
		l1.175,3.594l-2.189,11.503l-0.833,0.272l-10.632-7.312l-2.189,11.504l-0.833,0.272l-10.632-7.312L101.328,622.694z
		 M103.221,626.053l10.061,6.829l2.07-10.796L103.221,626.053z M116.934,621.569l10.023,6.81l2.051-10.758L116.934,621.569z"/>
	<path d="M118.627,640.19l6.312-6.212l11.524,1.149l-6.735,6.723l-9.344-0.925l-8.893,8.91c-0.126,0.53,0.084,1.098,0.084,1.098
		l-0.369,0.137l-1.451-3.914l0.369-0.137c0,0,0.221,0.596,0.662,0.916l7.321-7.23l-10.435-0.907
		c-0.239,0.572,0.222,1.208,0.222,1.208l-0.369,0.137l-1.051-2.837l0.379-0.108c0,0,0.171,0.55,0.584,0.881L118.627,640.19z
		 M128.003,641.199l5.811-5.734l-7.125-0.683l-5.754,5.714L128.003,641.199z"/>
	<path d="M117.773,666.085l-0.335,0.14l-0.429-1.034l11.675-14.245l8.98,4.984l1.503-10.188l-24.391,10.124
		c-1.062,0.44-0.482,1.838-0.482,1.838l-0.335,0.139l-0.58-1.396l-0.87-2.096l-0.58-1.397l0.335-0.139c0,0,0.557,1.341,1.585,0.979
		l24.044-10.013c0.729-0.532,0.242-1.705,0.242-1.705l0.335-0.14l0.568,1.369l0.858,2.067l0.063,0.072l-1.708,11.746l-9.422-5.26
		l-10.887,13.067C117.593,665.571,117.669,665.834,117.773,666.085z"/>
	<path d="M148.632,665.351l1.583,3.433l-0.33,0.152c0,0-0.532-1.153-1.417-0.979l-23.606,10.852c-1.043,0.481-0.41,1.854-0.41,1.854
		l-0.33,0.152l-2.216-4.807l0.33-0.152c0,0,0.633,1.373,1.677,0.893l22.634-10.504l-9.975,0.903l7.179-7.041l-22.687,10.461
		c-1.043,0.481-0.41,1.855-0.41,1.855l-0.33,0.151l-2.216-4.807l0.329-0.151c0,0,0.633,1.373,1.677,0.892l23.581-10.906
		c0.708-0.56,0.176-1.713,0.176-1.713l0.33-0.152l1.583,3.434l-0.302,0.139l-7.535,7.205l10.413-1.038L148.632,665.351z"/>
	<path d="M162.221,691.537l1.84,3.302l-0.317,0.177c0,0-0.618-1.109-1.487-0.867l-22.704,12.622c-1.003,0.56-0.267,1.88-0.267,1.88
		l-0.317,0.177l-2.577-4.622l0.317-0.177c0,0,0.736,1.32,1.74,0.761l21.761-12.2l-9.875,1.662l6.618-7.567l-21.817,12.163
		c-1.003,0.56-0.267,1.88-0.267,1.88l-0.317,0.177l-2.577-4.622l0.317-0.177c0,0,0.736,1.32,1.74,0.761l22.674-12.675
		c0.663-0.612,0.044-1.722,0.044-1.722l0.317-0.177l1.841,3.302l-0.291,0.162l-6.961,7.759l10.301-1.83L162.221,691.537z"/>
	<path d="M168.086,701.472l-2.272,9.352l-1.292,0.787l1.899-7.814l-21.002,12.79c-0.982,0.598-0.18,1.915-0.18,1.915l-0.31,0.188
		l-2.769-4.546l0.31-0.189c0,0,0.787,1.292,1.768,0.694l20.874-12.712l-8.315-1.558l1.292-0.787L168.086,701.472z"/>
	<path d="M186.345,728.839l2.223,3.095l-0.295,0.212c0,0-0.899-1.253-1.833-0.583l-20.882,14.994
		c-0.934,0.67-0.034,1.923-0.034,1.923l-0.295,0.212l-2.223-3.096l8.465-10.248l-12.417,4.745l-2.223-3.096l0.295-0.211
		c0,0,0.882,1.228,1.815,0.558l20.882-14.993c0.909-0.652,0.051-1.898,0.051-1.898l0.295-0.212l2.223,3.096l-8.588,10.336
		L186.345,728.839z M172.415,734.224l7.449-9.071l-18.548,13.317L172.415,734.224z M165.168,744.043l18.646-13.388l-10.959,4.183
		L165.168,744.043z"/>
	<path d="M178.609,748.465l4.144-7.822l11.33-2.379l-4.393,8.438l-9.184,1.936l-5.79,11.172c0.04,0.543,0.411,1.021,0.411,1.021
		l-0.31,0.241l-2.563-3.293l0.311-0.241c0,0,0.39,0.501,0.907,0.673l4.798-9.098l-10.218,2.28c-0.056,0.618,0.576,1.085,0.576,1.085
		l-0.31,0.241l-1.857-2.386l0.329-0.218c0,0,0.329,0.472,0.822,0.663L178.609,748.465z M187.849,746.601l3.81-7.217l-6.996,1.497
		l-3.762,7.18L187.849,746.601z"/>
	<path d="M179.508,766.681l-3.407-4.051l0.278-0.233c0,0,0.974,1.157,1.853,0.417l19.675-16.55c0.88-0.739-0.117-1.877-0.117-1.877
		l0.278-0.234l2.434,2.894l2.233,11.442l-1.736,1.46l-0.233-0.278c0.718-0.604,1.205-1.527,0.996-2.34l-1.954-9.7l-20.115,16.92
		c-0.88,0.74,0.094,1.897,0.094,1.897L179.508,766.681z"/>
	<path d="M198.668,772.417l3.536-8.117l11.117-3.236l-3.737,8.75l-9.012,2.63l-4.922,11.584c0.082,0.539,0.488,0.986,0.488,0.986
		l-0.291,0.265l-2.807-3.089l0.291-0.265c0,0,0.427,0.471,0.956,0.603l4.092-9.439l-10.017,3.054
		c-0.008,0.621,0.657,1.038,0.657,1.038l-0.291,0.265l-2.034-2.239l0.311-0.242c0,0,0.364,0.446,0.871,0.599L198.668,772.417z
		 M207.741,769.854l3.249-7.488l-6.863,2.026l-3.204,7.448L207.741,769.854z"/>
	<path d="M207.546,796.758l-0.259,0.254l-0.784-0.799l5.516-17.57l10.189,1.274l-2.406-10.011l-18.849,18.489
		c-0.821,0.806,0.238,1.885,0.238,1.885l-0.259,0.254l-1.059-1.079l-1.588-1.619l-1.059-1.08l0.259-0.254
		c0,0,1.017,1.036,1.836,0.317l18.569-18.257c0.478-0.766-0.412-1.673-0.412-1.673l0.259-0.254l1.038,1.058l1.567,1.598l0.085,0.044
		l2.798,11.533l-10.702-1.365l-5.225,16.183C207.186,796.348,207.355,796.563,207.546,796.758z"/>
	<path d="M235.892,784.555l2.749,2.597l-0.249,0.264c0,0-0.924-0.872-1.68-0.38l-17.861,18.866
		c-0.789,0.836,0.311,1.874,0.311,1.874l-0.249,0.264l-3.848-3.634l0.249-0.264c0,0,1.1,1.038,1.889,0.202l17.089-18.181
		l-8.92,4.555l4.038-9.208l-17.154,18.162c-0.789,0.835,0.31,1.874,0.31,1.874l-0.249,0.264l-3.848-3.635l0.249-0.264
		c0,0,1.1,1.038,1.889,0.203l17.817-18.908c0.448-0.783-0.475-1.655-0.475-1.655l0.249-0.265l2.749,2.597l-0.229,0.241l-4.307,9.494
		l9.275-4.843L235.892,784.555z"/>
	<path d="M258.291,803.787l2.961,2.399l-0.248,0.306c0,0-0.917-0.743-1.674-0.384l-16.392,20.274
		c-0.724,0.894,0.451,1.846,0.451,1.846l-0.229,0.281l-4.112-3.332l0.229-0.282c0,0,1.151,0.934,1.875,0.04l3.832-4.681l3.286-9.483
		l-8.573,5.199l-3.809,4.699c-0.724,0.894,0.452,1.846,0.452,1.846l-0.229,0.281l-4.112-3.332l0.229-0.282
		c0,0,1.151,0.934,1.875,0.04l16.339-20.161c0.27-0.91-0.599-1.615-0.599-1.615l0.248-0.306l2.937,2.381l-3.5,9.699L258.291,803.787
		z M248.688,809.631l2.891-8.323l-10.474,12.924L248.688,809.631z M256.805,805.62l-7.482,4.525l-2.911,8.348L256.805,805.62z"/>
	<path d="M248.936,832.427l-0.217,0.291l-4.262-3.19l0.218-0.291c0,0,1.211,0.907,1.899-0.014l15.409-20.583
		c0.67-0.896-0.54-1.803-0.54-1.803l0.217-0.29l3.051,2.284l4.747,10.619l-1.577,2.106l-0.291-0.218
		c0.507-0.678,0.972-2.257,0.681-2.777l-4.068-9.053l-4.695,6.271l4.747,10.619l-1.595,2.132l-0.291-0.218
		c0.489-0.654,0.966-2.3,0.675-2.82l-4.092-9.07l-10.586,14.142c-0.689,0.92,0.546,1.845,0.546,1.845L248.936,832.427z"/>
	<path d="M284.217,823.594l-6.442,4.115l-1.699,6.507l-5.474,4.416l-1.96,7.576c0.211,0.439,0.667,0.791,0.667,0.791l-0.207,0.299
		l-3.733-2.577l0.206-0.299c0,0,0.64,0.405,1.253,0.314l3.174-12.104l-10.765,6.863c0.132,0.605,0.737,1.061,0.737,1.061
		l-0.206,0.298l-2.489-1.718l0.207-0.299c0,0,0.49,0.302,1.018,0.336l6.349-4.033l1.808-6.983l5.738-4.638l1.752-6.691
		c-0.133-0.605-0.755-1.035-0.755-1.035l0.206-0.299l3.733,2.577l-0.207,0.299c0,0-0.622-0.43-1.236-0.339l-3.098,12.046
		l10.689-6.806c-0.133-0.606-0.755-1.036-0.755-1.036l0.207-0.298l2.489,1.718l-0.207,0.299
		C285.217,823.954,284.745,823.627,284.217,823.594z M270.244,831.696l1.859-7.058l-3.28,2.622l-1.656,6.391L270.244,831.696z
		 M275.435,829.181l-2.882,1.832l-1.657,6.5l3.034-2.426L275.435,829.181z"/>
	<path d="M285.205,836.365l4.996-7.862c0.616-0.97-0.66-1.781-0.66-1.781l0.195-0.306l4.467,2.838l-0.195,0.307
		c0,0-1.276-0.812-1.893,0.159l-5.531,8.705l3.003,4.523c0.362,0.051,0.719-0.511,0.719-0.511l0.306,0.194l-1.427,2.247
		l-0.307-0.195c0.244-0.383,0.304-0.703,0.22-1.078l-2.951-4.491l-7.818,12.304c-0.616,0.971,0.676,1.756,0.676,1.756l-0.211,0.332
		l-4.467-2.839l0.211-0.332c0,0,1.26,0.837,1.876-0.133l8.37-13.173l-2.968-4.466c-0.288-0.111-0.536,0.054-0.763,0.411
		l-0.307-0.194l1.411-2.221l0.307,0.194c-0.179,0.281-0.371,0.696-0.322,1.014L285.205,836.365z"/>
	<path d="M288.841,859.151l-0.183,0.313l-4.601-2.681l0.183-0.313c0,0,1.307,0.762,1.886-0.231l12.944-22.218
		c0.563-0.967-0.744-1.729-0.744-1.729l0.183-0.313l3.293,1.918l5.935,10.005l-1.325,2.274l-0.313-0.183
		c0.426-0.732,0.707-2.354,0.358-2.838l-5.081-8.526l-3.944,6.77l5.935,10.005l-1.34,2.3l-0.313-0.183
		c0.411-0.706,0.695-2.396,0.347-2.879l-5.106-8.542l-8.893,15.266c-0.579,0.993,0.754,1.77,0.754,1.77L288.841,859.151z"/>
	<path d="M316.704,874.168l-0.158,0.326l-4.791-2.32l0.158-0.326c0,0,1.361,0.659,1.862-0.375l11.206-23.139
		c0.488-1.008-0.873-1.667-0.873-1.667l0.158-0.326l3.43,1.661l6.682,9.52l-1.147,2.369l-0.326-0.158
		c0.369-0.763,0.524-2.401,0.14-2.856l-5.717-8.112l-3.414,7.051l6.681,9.521l-1.16,2.396l-0.326-0.158
		c0.355-0.735,0.51-2.441,0.125-2.896l-5.744-8.125l-7.699,15.896c-0.501,1.035,0.887,1.707,0.887,1.707L316.704,874.168z"/>
	<path d="M331.072,881.281l-4.849-2.123l0.146-0.332c0,0,1.386,0.606,1.847-0.446l10.311-23.554
		c0.461-1.053-0.937-1.632-0.937-1.632l0.146-0.333l3.463,1.517l7.07,9.27l-0.91,2.079l-0.333-0.146
		c0.376-0.859,0.404-1.904-0.143-2.54l-6.048-7.832l-10.542,24.08c-0.461,1.054,0.924,1.66,0.924,1.66L331.072,881.281z"/>
	<path d="M358.596,863.295l-9.39,23.93c-0.42,1.069,0.988,1.622,0.988,1.622l-0.132,0.338l-4.927-1.934l0.132-0.338
		c0,0,1.408,0.553,1.828-0.518l9.39-23.93c0.42-1.069-0.988-1.622-0.988-1.622l0.133-0.338l4.927,1.934l-0.133,0.338
		C360.424,862.777,359.016,862.225,358.596,863.295z"/>
	<path d="M377.468,868.528l1.428,0.498l-0.12,0.343c0,0-1.428-0.498-1.806,0.588l-8.525,24.384l0.068-0.104
		c-0.378,1.086,1.05,1.583,1.05,1.583l-0.12,0.343l-1.485-0.518l-2.114-0.735l-1.428-0.498l0.12-0.343c0,0,1.228,0.428,1.717-0.331
		l4.348-12.482l-6.92-11.122l11.616-2.36l1.799,0.627L377.468,868.528z M375.009,868.601l-10.062,2.037l5.983,9.675L375.009,868.601
		z"/>
	<path d="M384.889,900.509l-0.115,0.376l-2.893-0.883l0.144-0.368c0,0,0.694,0.213,1.147-0.028l3.348-10.965l-0.012-11.042
		l-3.391-6.191l-7.651,25.054c-0.336,1.1,1.091,1.504,1.091,1.504l-0.115,0.376l-5.034-1.537l0.115-0.377
		c0,0,1.456,0.413,1.773-0.628l7.48-24.601c0.336-1.099-1.11-1.541-1.11-1.541l0.106-0.347l3.616,1.104l3.88,6.973l0.002,11.387
		l-3.384,11.08C384.224,900.306,384.889,900.509,384.889,900.509z"/>
	<path d="M391.609,902.318l-0.092,0.352l-5.148-1.356l0.093-0.352c0,0,1.462,0.386,1.755-0.726l6.55-24.863
		c0.285-1.083-1.178-1.468-1.178-1.468l0.093-0.352l3.686,0.972l8.387,8.059l-0.67,2.545l-0.351-0.093
		c0.216-0.818,0.053-2.457-0.412-2.83l-7.17-6.862l-1.996,7.576l8.387,8.06l-0.678,2.574l-0.351-0.093
		c0.208-0.79,0.032-2.494-0.433-2.867l-7.199-6.87l-4.5,17.083c-0.293,1.111,1.199,1.504,1.199,1.504L391.609,902.318z"/>
	<path d="M447.269,913.306l-0.056,0.389l-2.994-0.429l0.085-0.385c0,0,0.719,0.103,1.129-0.205l1.625-11.347l-1.707-10.906
		l-4.301-5.597l-3.713,25.927c-0.163,1.138,1.308,1.317,1.308,1.317l-0.056,0.39l-5.209-0.746l0.056-0.39
		c0,0,1.501,0.185,1.655-0.894l3.615-25.451c0.163-1.138-1.334-1.352-1.334-1.352l0.052-0.359l3.742,0.536l4.903,6.293l1.75,11.249
		l-1.642,11.467C446.581,913.207,447.269,913.306,447.269,913.306z"/>
	<path d="M458.982,886.083l6.06,7.474l-0.157,1.504l-5.063-6.245l-2.556,24.451c-0.119,1.143,1.415,1.303,1.415,1.303l-0.038,0.361
		l-5.293-0.553l0.038-0.361c0,0,1.504,0.157,1.624-0.985l2.54-24.301l-6.278,5.668l0.157-1.504L458.982,886.083z"/>
	<path d="M491.802,888.148l3.778,0.108l-0.01,0.363c0,0-1.27-0.037-1.506,0.834l-0.777,25.965c-0.033,1.148,1.478,1.191,1.478,1.191
		l-0.01,0.363l-5.29-0.152l0.011-0.362c0,0,1.511,0.043,1.544-1.105l0.657-24.939l-3.626,9.334l-3.113-9.559l-0.718,24.969
		c-0.033,1.148,1.478,1.191,1.478,1.191l-0.01,0.363l-5.29-0.152l0.011-0.363c0,0,1.511,0.044,1.544-1.104l0.717-25.967
		c-0.187-0.883-1.456-0.919-1.456-0.919l0.011-0.363l3.778,0.109l-0.01,0.332l3.102,9.952l3.7-9.786L491.802,888.148z"/>
	<path d="M502.251,899.049l-0.15-9.314c-0.019-1.149-1.531-1.125-1.531-1.125l-0.006-0.363l5.292-0.085l0.006,0.363
		c0,0-1.512,0.024-1.493,1.173l0.166,10.313l4.995,2.127c0.331-0.156,0.32-0.821,0.32-0.821l0.362-0.006l0.043,2.661l-0.362,0.006
		c-0.008-0.453-0.134-0.754-0.41-1.021l-4.935-2.129l0.235,14.577c0.019,1.149,1.529,1.095,1.529,1.095l0.007,0.393l-5.293,0.086
		l-0.006-0.394c0,0,1.513,0.006,1.494-1.144l-0.252-15.605l-4.935-2.098c-0.302,0.065-0.418,0.339-0.411,0.763l-0.363,0.006
		l-0.042-2.631l0.363-0.006c0.005,0.332,0.073,0.785,0.289,1.023L502.251,899.049z"/>
	<path d="M519.442,889.254l1.193,25.681c0.054,1.148,1.564,1.078,1.564,1.078l0.017,0.362l-5.287,0.246l-0.017-0.363
		c0,0,1.511-0.069,1.457-1.218l-1.193-25.681c-0.054-1.148-1.563-1.078-1.563-1.078l-0.018-0.362l5.287-0.245l0.018,0.362
		C520.9,888.036,519.39,888.106,519.442,889.254z"/>
	<path d="M536.514,886.504l3.797-0.323l0.033,0.392c0,0-1.175,0.101-1.473,0.885l2.24,25.975c0.098,1.146,1.604,1.017,1.604,1.017
		l0.03,0.362l-5.273,0.448l-0.031-0.361c0,0,1.477-0.126,1.38-1.271l-0.483-6.029l-4.205-9.113l-2.575,9.69l0.513,6.026
		c0.098,1.146,1.604,1.018,1.604,1.018l0.03,0.361l-5.273,0.449l-0.031-0.362c0,0,1.478-0.125,1.38-1.271l-2.199-25.856
		c-0.437-0.844-1.552-0.749-1.552-0.749l-0.033-0.392l3.768-0.32l4.2,9.417L536.514,886.504z M533.644,897.372l-3.686-8.004
		l1.41,16.575L533.644,897.372z M536.714,888.854l-2.256,8.448l3.688,8.033L536.714,888.854z"/>
	<path d="M565.121,911.5l0.059,0.358l-5.256,0.852l-0.058-0.358c0,0,1.493-0.242,1.309-1.377l-4.111-25.382
		c-0.179-1.105-1.672-0.863-1.672-0.863l-0.058-0.358l3.762-0.609l10.938,3.959l0.421,2.598l-0.358,0.058
		c-0.136-0.836-0.949-2.267-1.525-2.419l-9.34-3.359l1.253,7.734l10.938,3.959l0.425,2.627l-0.358,0.059
		c-0.13-0.807-0.983-2.292-1.56-2.444l-9.369-3.354l2.824,17.438c0.184,1.135,1.707,0.889,1.707,0.889L565.121,911.5z"/>
	<path d="M580.457,879.889l3.736-0.753l0.071,0.355c0,0-1.512,0.305-1.285,1.432l5.085,25.2c0.227,1.127,1.739,0.822,1.739,0.822
		l0.071,0.355l-3.735,0.754l-5.862-11.931l-0.779,13.271l-3.735,0.754l-0.071-0.356c0,0,1.482-0.299,1.255-1.426l-5.084-25.2
		c-0.222-1.097-1.71-0.828-1.71-0.828l-0.072-0.355l3.736-0.754l5.893,12.079L580.457,879.889z M579.64,894.803l-5.207-10.521
		l4.516,22.385L579.64,894.803z M585.613,905.445l-4.54-22.503l-0.692,11.711L585.613,905.445z"/>
	<path d="M609.044,872.684l3.667-1.038l0.107,0.378c0,0-1.136,0.321-1.278,1.147l7.132,25.075c0.313,1.105,1.768,0.693,1.768,0.693
		l0.1,0.35l-5.093,1.441l-0.099-0.349c0,0,1.426-0.404,1.112-1.51l-1.618-5.828l-5.859-8.147l-0.688,10.002l1.648,5.819
		c0.313,1.105,1.768,0.693,1.768,0.693l0.099,0.35l-5.092,1.442l-0.099-0.35c0,0,1.426-0.403,1.112-1.51l-7.069-24.966
		c-0.588-0.745-1.665-0.44-1.665-0.44l-0.107-0.378l3.638-1.03l5.912,8.446L609.044,872.684z M608.291,883.897l-5.139-7.157
		l4.532,16.005L608.291,883.897z M609.688,874.953l-0.611,8.723l5.147,7.186L609.688,874.953z"/>
	<path d="M621.63,870.384l7.951,24.448c0.355,1.093,1.793,0.625,1.793,0.625l0.112,0.346l-5.033,1.637l-0.112-0.345
		c0,0,1.438-0.468,1.083-1.562l-7.951-24.448c-0.355-1.093-1.793-0.625-1.793-0.625l-0.112-0.345l5.033-1.638l0.112,0.346
		C622.713,868.823,621.274,869.291,621.63,870.384z"/>
	<path d="M636.852,874.962l-3.225-8.741c-0.397-1.079-1.816-0.556-1.816-0.556l-0.126-0.34l4.967-1.832l0.126,0.341
		c0,0-1.419,0.523-1.021,1.602l3.569,9.678l5.419,0.355c0.26-0.257,0.029-0.882,0.029-0.882l0.341-0.125l0.921,2.497l-0.341,0.126
		c-0.156-0.426-0.375-0.668-0.725-0.829l-5.361-0.376l5.045,13.68c0.397,1.078,1.807,0.526,1.807,0.526l0.136,0.369l-4.967,1.832
		l-0.136-0.369c0,0,1.43-0.495,1.031-1.573l-5.401-14.645l-5.351-0.348c-0.264,0.161-0.282,0.458-0.136,0.855l-0.341,0.126
		l-0.911-2.47l0.341-0.125c0.115,0.312,0.329,0.717,0.611,0.87L636.852,874.962z"/>
	<path d="M649.715,859.935l9.831,23.761c0.439,1.063,1.837,0.484,1.837,0.484l0.14,0.335l-4.893,2.024l-0.139-0.336
		c0,0,1.397-0.578,0.958-1.641l-9.831-23.761c-0.439-1.063-1.837-0.484-1.837-0.484l-0.139-0.335l4.892-2.024l0.139,0.336
		C650.673,858.294,649.275,858.872,649.715,859.935z"/>
	<path d="M664.847,851.567l3.463-1.592l0.164,0.357c0,0-1.072,0.493-1.086,1.331l10.918,23.677c0.48,1.044,1.854,0.412,1.854,0.412
		l0.151,0.33l-4.809,2.211l-0.152-0.33c0,0,1.347-0.619,0.867-1.663l-2.5-5.509l-7.047-7.146l0.864,9.989l2.526,5.496
		c0.48,1.044,1.854,0.412,1.854,0.412l0.151,0.33l-4.81,2.211l-0.151-0.33c0,0,1.347-0.618,0.866-1.663l-10.84-23.578
		c-0.696-0.646-1.713-0.179-1.713-0.179l-0.164-0.356l3.435-1.58l7.146,7.435L664.847,851.567z M665.833,862.766l-6.182-6.279
		l6.948,15.114L665.833,862.766z M665.832,853.711l0.743,8.713l6.195,6.307L665.832,853.711z"/>
	<path d="M697.026,841.643l0.867,1.561l0.411,0.74l-6.202,9.953l3.82,6.875l5.418-8.687c0.141-0.805-0.003-1.937-0.415-2.677
		l0.317-0.176l0.882,1.586l0.411,0.74l-6.201,9.953l2.013,3.623c0.559,1.005,1.881,0.27,1.881,0.27l0.176,0.317l-4.627,2.571
		l-0.177-0.316c0,0,1.322-0.735,0.764-1.74l-12.49-22.477c-0.558-1.005-1.865-0.244-1.865-0.244l-0.177-0.317l4.628-2.571
		l0.177,0.317c0,0-1.337,0.708-0.779,1.713l5.834,10.498l5.443-8.7c0.142-0.806-0.029-1.922-0.426-2.636L697.026,841.643z"/>
	<path d="M703.907,830.436l3.23-1.963l0.188,0.311c0,0-1.086,0.659-0.812,1.519l13.462,22.22c0.597,0.982,1.889,0.197,1.889,0.197
		l0.188,0.31l-4.523,2.748l-0.188-0.311c0,0,1.293-0.785,0.696-1.767l-13.006-21.294l2.03,9.808l-7.81-6.332l12.969,21.351
		c0.597,0.982,1.89,0.197,1.89,0.197l0.188,0.311l-4.523,2.747l-0.188-0.31c0,0,1.292-0.785,0.695-1.768l-13.513-22.188
		c-0.637-0.64-1.723,0.021-1.723,0.021l-0.188-0.311l3.231-1.963l0.173,0.284l8.014,6.668l-2.214-10.227L703.907,830.436z"/>
	<path d="M718.646,833.874l-5.137-7.769c-0.634-0.958-1.895-0.124-1.895-0.124l-0.2-0.303l4.414-2.919l0.2,0.303
		c0,0-1.262,0.834-0.628,1.793l5.688,8.601l5.354-0.894c0.193-0.31-0.173-0.865-0.173-0.865l0.303-0.2l1.467,2.22l-0.303,0.2
		c-0.25-0.378-0.518-0.563-0.895-0.641l-5.304,0.86l8.039,12.157c0.634,0.959,1.878,0.1,1.878,0.1l0.217,0.328l-4.414,2.919
		l-0.217-0.328c0,0,1.278-0.809,0.645-1.768l-8.606-13.015l-5.286,0.886c-0.22,0.217-0.17,0.511,0.063,0.864l-0.303,0.2
		l-1.451-2.194l0.303-0.2c0.184,0.277,0.484,0.622,0.794,0.707L718.646,833.874z"/>
	<path d="M727.718,816.319l14.993,20.881c0.671,0.934,1.898,0.052,1.898,0.052l0.212,0.295l-4.299,3.087l-0.212-0.295
		c0,0,1.229-0.882,0.558-1.815l-14.993-20.882c-0.67-0.934-1.898-0.052-1.898-0.052l-0.212-0.294l4.3-3.087l0.211,0.294
		C728.275,814.503,727.048,815.386,727.718,816.319z"/>
	<path d="M753.812,830.334l0.223,0.286l-4.203,3.266l-0.223-0.286c0,0,1.194-0.928,0.489-1.835l-15.771-20.299
		c-0.687-0.883-1.881,0.045-1.881,0.045l-0.223-0.287l3.01-2.338l11.493-1.769l1.614,2.077l-0.287,0.223
		c-0.52-0.668-1.919-1.533-2.497-1.391l-9.804,1.528l4.806,6.185l11.493-1.769l1.633,2.102l-0.287,0.223
		c-0.501-0.645-1.962-1.539-2.54-1.396l-9.827,1.547l10.836,13.946c0.705,0.907,1.923-0.039,1.923-0.039L753.812,830.334z"/>
	<path d="M752.1,795.224l2.916-2.451l0.253,0.301c0,0-0.902,0.759-0.693,1.571l16.793,19.934c0.739,0.879,1.896-0.094,1.896-0.094
		l0.233,0.278l-4.051,3.404l-0.233-0.277c0,0,1.134-0.953,0.395-1.833l-3.867-4.649l-8.686-5.023l3.478,9.401l3.891,4.629
		c0.739,0.88,1.896-0.093,1.896-0.093l0.233,0.277l-4.051,3.405l-0.233-0.278c0,0,1.135-0.953,0.396-1.833l-16.692-19.86
		c-0.843-0.438-1.699,0.282-1.699,0.282l-0.253-0.301l2.894-2.432l8.857,5.274L752.1,795.224z M756.016,805.757l-7.623-4.416
		l10.7,12.731L756.016,805.757z M753.617,797.029l3.023,8.202l7.642,4.44L753.617,797.029z"/>
	<path d="M785.767,762.84l1.04-1.098l0.263,0.25c0,0-1.039,1.098-0.205,1.888l18.73,17.783l-0.066-0.104
		c0.834,0.79,1.874-0.308,1.874-0.308l0.264,0.249l-1.082,1.142l-1.539,1.625l-1.039,1.098l-0.264-0.249
		c0,0,0.894-0.944,0.402-1.701l-9.595-9.089l-12.981,1.743l2.617-11.56l1.311-1.383L785.767,762.84z M784.822,765.112l-2.274,10.01
		l11.277-1.482L784.822,765.112z"/>
	<path d="M817.99,769.186l0.296,0.259l-1.994,2.273l-0.276-0.281c0,0,0.479-0.546,0.445-1.059l-8.616-7.559l-10.069-4.527
		l-7.036,0.547l19.689,17.271c0.863,0.758,1.818-0.376,1.818-0.376l0.295,0.259l-3.47,3.956l-0.296-0.259
		c0,0,0.975-1.157,0.156-1.875l-19.346-16.929c-0.863-0.758-1.86,0.379-1.86,0.379l-0.273-0.239l2.493-2.843l7.95-0.67l10.378,4.679
		l8.708,7.639C817.531,769.708,817.99,769.186,817.99,769.186z"/>
	<path d="M803.449,744.583l19.96,16.199c0.893,0.724,1.846-0.45,1.846-0.45l0.282,0.229l-3.336,4.11l-0.281-0.229
		c0,0,0.953-1.174,0.061-1.898l-19.961-16.199c-0.893-0.724-1.846,0.45-1.846,0.45l-0.281-0.229l3.335-4.11l0.282,0.229
		C803.51,742.685,802.557,743.858,803.449,744.583z"/>
	<path d="M837.747,744.019l0.29,0.218l-3.175,4.235l-0.291-0.218c0,0,0.907-1.21-0.03-1.875l-11.477-8.643l-1.522,10.199
		l-12.996-9.742c-0.919-0.689-1.803,0.538-1.803,0.538l-0.29-0.217l3.175-4.235l0.291,0.218c0,0-0.932,1.191-0.012,1.881l11.204,8.4
		l1.498-10.218l13.311,9.979C836.84,745.229,837.747,744.019,837.747,744.019z"/>
	<path d="M836.056,715.271l-7.858-5.005c-0.97-0.617-1.782,0.658-1.782,0.658l-0.306-0.195l2.844-4.465l0.307,0.195
		c0,0-0.813,1.275,0.156,1.894l8.7,5.541l4.527-2.998c0.051-0.361-0.51-0.719-0.51-0.719l0.194-0.307l2.245,1.43l-0.194,0.307
		c-0.383-0.244-0.703-0.305-1.079-0.221l-4.495,2.946l12.297,7.833c0.97,0.617,1.757-0.674,1.757-0.674l0.332,0.211l-2.844,4.465
		l-0.332-0.212c0,0,0.838-1.259-0.132-1.877l-13.164-8.385l-4.47,2.963c-0.111,0.288,0.054,0.536,0.41,0.764l-0.194,0.306
		l-2.22-1.413l0.194-0.307c0.281,0.179,0.696,0.371,1.014,0.323L836.056,715.271z"/>
	<path d="M850.455,705.536l-8.802-0.941l-6.417-9.635l9.466,0.943l5.208,7.808l12.524,1.226c0.489-0.239,0.795-0.762,0.795-0.762
		l0.34,0.199l-2.106,3.603l-0.339-0.198c0,0,0.32-0.549,0.288-1.093l-10.229-1.075l5.913,8.64c0.595-0.178,0.793-0.938,0.793-0.938
		l0.34,0.199l-1.526,2.61l-0.324-0.225c0,0,0.316-0.48,0.311-1.01L850.455,705.536z M845.292,697.649l-8.116-0.855l3.989,5.939
		l8.064,0.825L845.292,697.649z"/>
	<path d="M871.021,689.757l0.32,0.171l-2.491,4.668l-0.32-0.171c0,0,0.712-1.334-0.316-1.848l-12.655-6.789l0.051,10.308
		l-14.323-7.645c-1.014-0.541-1.699,0.807-1.699,0.807l-0.319-0.171l2.491-4.668l0.319,0.171c0,0-0.738,1.319,0.275,1.86
		l12.35,6.592l-0.077-10.322l14.67,7.83C870.309,691.091,871.021,689.757,871.021,689.757z"/>
	<path d="M849.407,669.421l9.091-3.151l1.36,0.66l-7.596,2.633l22.119,10.731c1.033,0.501,1.706-0.887,1.706-0.887l0.327,0.159
		l-2.323,4.788l-0.326-0.158c0,0,0.66-1.36-0.374-1.862l-21.983-10.664l3.191,7.832l-1.36-0.659L849.407,669.421z"/>
	<path d="M884.532,660.687l0.332,0.146l-0.449,1.024l-18.358,1.427l-2.612-9.93l-8.394,5.961l24.178,10.604
		c1.053,0.462,1.66-0.923,1.66-0.923l0.332,0.146l-0.607,1.385l-0.911,2.077l-0.607,1.385l-0.332-0.146c0,0,0.583-1.33-0.39-1.822
		l-23.857-10.431c-0.888-0.158-1.398,1.005-1.398,1.005l-0.332-0.146l0.595-1.356l0.899-2.05l0.009-0.096l9.659-6.892l2.72,10.439
		l16.962-1.18C884.286,661.173,884.423,660.936,884.532,660.687z"/>
	<path d="M890.419,645.728l0.365,0.145l-1.105,2.814l-0.355-0.172c0,0,0.266-0.675,0.061-1.146l-10.67-4.193l-11.009-0.849
		l-6.437,2.898l24.38,9.58c1.07,0.421,1.584-0.97,1.584-0.97l0.366,0.144l-1.925,4.898l-0.366-0.144c0,0,0.525-1.419-0.488-1.817
		l-23.94-9.375c-1.07-0.42-1.623,0.987-1.623,0.987l-0.338-0.133l1.383-3.519l7.254-3.324l11.352,0.886l10.782,4.236
		C890.164,646.375,890.419,645.728,890.419,645.728z"/>
	<path d="M867.725,624.881l1.256-3.597l0.342,0.119c0,0-0.508,1.456,0.577,1.835l24.267,8.469c1.085,0.379,1.593-1.077,1.593-1.077
		l0.343,0.12l-1.255,3.597l-13.25-1.037l11.018,7.433l-1.255,3.597l-0.343-0.119c0,0,0.498-1.428-0.587-1.807l-24.267-8.469
		c-1.057-0.369-1.583,1.049-1.583,1.049l-0.343-0.12l1.256-3.597l13.392,1.087L867.725,624.881z M880.136,633.184l-11.702-0.881
		l21.555,7.522L880.136,633.184z M892.334,633.47l-21.669-7.563l9.72,6.563L892.334,633.47z"/>
</g>
<circle style="fill:none;stroke:#000000;stroke-width:4;stroke-miterlimit:10;" cx="500" cy="500" r="388.394"/>
<circle style="fill:none;stroke:#000000;stroke-width:10;stroke-miterlimit:10;" cx="500" cy="500" r="369.429"/>
<circle style="fill:none;stroke:#000000;stroke-width:4;stroke-miterlimit:10;" cx="500" cy="500" r="453.912"/>
<circle style="fill:none;stroke:#000000;stroke-width:4;stroke-miterlimit:10;" cx="500" cy="500" r="348.739"/>
<circle style="fill:none;stroke:#000000;stroke-width:4;stroke-miterlimit:10;" cx="500" cy="500" r="339.707"/>
<rect x="262" y="264" style="fill:none;stroke:#000000;stroke-width:6;stroke-miterlimit:10;" width="474" height="474"/>
<rect x="262" y="264" transform="matrix(0.7071 -0.7071 0.7071 0.7071 -208.1067 499.586)" style="fill:none;stroke:#000000;stroke-width:6;stroke-miterlimit:10;" width="474" height="474"/>
<rect x="274" y="280" style="fill:none;stroke:#000000;stroke-width:2;stroke-miterlimit:10;" width="446" height="446"/>
<rect x="276.383" y="278.383" transform="matrix(0.7071 -0.7071 0.7071 0.7071 -208.1066 499.5861)" style="fill:none;stroke:#000000;stroke-width:2;stroke-miterlimit:10;" width="445.236" height="445.235"/>
<g>
	<rect x="286" y="288" style="fill:none;stroke:#000000;stroke-width:6;stroke-miterlimit:10;" width="426" height="426"/>
	
		<rect x="286.021" y="288.021" transform="matrix(0.7071 -0.7071 0.7071 0.7071 -208.1066 499.5861)" style="fill:none;stroke:#000000;stroke-width:6;stroke-miterlimit:10;" width="425.959" height="425.958"/>
</g>
</svg>
