<?xml version="1.0" encoding="iso-8859-1"?>
<!-- Generator: Adobe Illustrator 15.0.0, SVG Export Plug-In . SVG Version: 6.00 Build 0)  -->
<!DOCTYPE svg PUBLIC "-//W3C//DTD SVG 1.1//EN" "http://www.w3.org/Graphics/SVG/1.1/DTD/svg11.dtd">
<svg version="1.1" id="&#x30EC;&#x30A4;&#x30E4;&#x30FC;_1"
	 xmlns="http://www.w3.org/2000/svg" xmlns:xlink="http://www.w3.org/1999/xlink" x="0px" y="0px" width="1000px" height="1000px"
	 viewBox="0 0 1000 1000" style="enable-background:new 0 0 1000 1000;" xml:space="preserve">
<rect x="192.762" y="192.762" transform="matrix(0.7071 -0.7071 0.7071 0.7071 -207.1068 500)" style="fill:none;stroke:#000000;stroke-width:7;stroke-miterlimit:10;" width="614.476" height="614.476"/>
<defs>
	<filter id="Adobe_OpacityMaskFilter" filterUnits="userSpaceOnUse" x="128.95" y="128.95" width="742.101" height="742.101">
		<feFlood  style="flood-color:white;flood-opacity:1" result="back"/>
		<feBlend  in="SourceGraphic" in2="back" mode="normal"/>
	</filter>
</defs>
<mask maskUnits="userSpaceOnUse" x="128.95" y="128.95" width="742.101" height="742.101" id="SVGID_1_">
	<g style="filter:url(#Adobe_OpacityMaskFilter);">
		
			<rect x="173.071" y="173.071" transform="matrix(0.7071 -0.7071 0.7071 0.7071 -207.1067 500.0002)" width="653.858" height="653.858"/>
	</g>
</mask>
<g style="mask:url(#SVGID_1_);">
	<circle style="fill:none;stroke:#000000;stroke-width:4;stroke-miterlimit:10;" cx="500" cy="500" r="369.051"/>
	<circle style="fill:none;stroke:#000000;stroke-width:4;stroke-miterlimit:10;" cx="500" cy="500" r="362.568"/>
</g>
<rect x="201.954" y="201.954" transform="matrix(0.7071 -0.7071 0.7071 0.7071 -207.1068 500)" style="fill:none;stroke:#000000;stroke-width:3;stroke-miterlimit:10;" width="596.091" height="596.091"/>
<rect x="213.192" y="213.192" transform="matrix(0.7061 -0.7081 0.7081 0.7061 -207.106 500.9605)" style="fill:none;stroke:#000000;stroke-width:7;stroke-miterlimit:10;" width="573.617" height="573.617"/>
<g>
	<path d="M673.627,299.499l1.824,5.425l8.313-8.339l0.726,0.724l-9.161,9.19l-0.726-0.723l0.01-0.01l-1.834-5.416L673.627,299.499z"
		/>
	<path d="M676.014,288.856l-1.124,3.798l3.795-1.136l0.841,0.839l-4.991,1.505l-1.277,4.3l-5.069,1.215l1.199-5.073l4.297-1.292
		l1.489-4.996L676.014,288.856z M673.328,294.222l-3.09,0.932l-0.729,2.898l2.896-0.738L673.328,294.222z"/>
	<path d="M664.646,295.843l0.027-6.723l3.142,1.203l2.403-7.248l0.726,0.723l-2.403,7.731l-2.898-0.961l0.007,4.327l8.188-8.213
		l0.734,0.733l-9.161,9.19l-0.454-0.453l-0.281-0.28L664.646,295.843z"/>
	<path d="M668.892,281.752l0.726,0.723l-9.152,9.2l-0.735-0.733l0.145-0.145l1.741-4.571l-4.643,1.698l-0.136,0.135l-0.735-0.733
		l9.172-9.181l0.726,0.723l-7.687,7.729l4.557-1.688l-1.674,4.562L668.892,281.752z"/>
	<path d="M651.158,282.396l9.162-9.19l0.6,0.598l-2.536,2.544l-1.104,4.184l4.248-1.05l2.546-2.535l0.6,0.598l-9.161,9.19
		l-0.6-0.598l1.249-4.407l-4.394,1.272L651.158,282.396z M657.304,277.431l-4.34,4.354l3.379-0.971L657.304,277.431z
		 M657.068,281.536l-0.951,3.392l4.35-4.363L657.068,281.536z"/>
	<path d="M643.187,274.444l9.161-9.19l0.726,0.723l-9.161,9.19L643.187,274.444z"/>
	<path d="M640.769,272.033l-1.217-6.035l-2.411,2.418l-0.726-0.723l3.857-3.87l1.218,6.035l6.268-6.288l-6.038-1.198l3.857-3.87
		l0.726,0.723l-2.411,2.418l6.038,1.198L640.769,272.033z"/>
	<path d="M639.646,262h-0.02l-5.402-1.942l6.395-6.447l0.726,0.697l-5.159,5.163l5.401,1.83l-5.767,5.801l-0.735-0.629L639.646,262z
		"/>
	<path d="M629.767,261.06l-0.335-3.824l2.243-4.765l3.915-3.928l0.629,0.627l-3.8,3.812l-2.089,4.417l0.295,3.265l0.116,0.116
		l8.535-8.562l0.734,0.733l-9.161,9.19L629.767,261.06z"/>
	<path d="M621.563,252.881l9.162-9.19l0.6,0.598l-2.536,2.544l-1.104,4.184l4.248-1.05l2.546-2.535l0.6,0.598l-9.161,9.19
		l-0.6-0.598l1.249-4.407l-4.394,1.272L621.563,252.881z M627.708,247.916l-4.34,4.354l3.379-0.971L627.708,247.916z
		 M627.473,252.021l-0.951,3.392l4.35-4.363L627.473,252.021z"/>
	<path d="M612.361,243.705l-0.609-0.607l9.162-9.19l0.609,0.607l-2.165,5.306l5.309-2.172l0.591,0.588l-9.152,9.2l-0.6-0.598
		l2.223-5.364l-5.357,2.24L612.361,243.705z M619.951,236.091l-5.873,5.911l4.132-1.707L619.951,236.091z M618.887,240.99
		l-1.684,4.166l5.911-5.93L618.887,240.99z"/>
	<path d="M616.807,229.809l-1.125,3.798l3.795-1.136l0.841,0.839l-4.991,1.505l-1.277,4.3l-5.069,1.215l1.199-5.073l4.297-1.292
		l1.489-4.996L616.807,229.809z M614.12,235.174l-3.09,0.932l-0.729,2.898l2.896-0.738L614.12,235.174z"/>
	<path d="M604.507,230.566l1.824,5.425l8.313-8.339l0.725,0.724l-9.161,9.19l-0.726-0.723l0.01-0.01l-1.834-5.416L604.507,230.566z"
		/>
	<path d="M606.9,219.932l-1.124,3.798l3.795-1.136l0.841,0.839l-4.991,1.505l-1.277,4.3l-5.069,1.215l1.199-5.073l4.297-1.292
		l1.489-4.996L606.9,219.932z M604.215,225.297l-3.09,0.932l-0.729,2.898l2.896-0.738L604.215,225.297z"/>
	<path d="M595.544,226.93l0.027-6.723l3.142,1.203l2.403-7.248l0.726,0.723l-2.403,7.731l-2.898-0.961l0.007,4.327l8.188-8.213
		l0.734,0.733l-9.161,9.19l-0.454-0.453l-0.281-0.28L595.544,226.93z"/>
	<path d="M590.35,213h-0.02l-5.402-2.024l6.395-6.488l0.726,0.676l-5.159,5.152l5.401,1.825l-5.767,5.798l-0.735-0.548L590.35,213z"
		/>
	<path d="M579.018,210.45l9.161-9.19l0.726,0.723l-9.161,9.19L579.018,210.45z"/>
	<path d="M575.383,200.556l0.006,3.632l7.84-7.865l0.726,0.723l-7.831,7.855l3.613-0.006l-0.965,0.968l-4.347,0.007l-0.007-4.347
		L575.383,200.556z"/>
	<path d="M565.111,191.276l1.824,5.426l1.649-1.654l-1.844-5.445l0.781-0.745l1.824,5.426l5.901-5.921l0.726,0.724l-9.161,9.19
		l-0.726-0.723l0.01-0.01l-1.834-5.416L565.111,191.276z"/>
	<path d="M557.521,189.012l9.162-9.19l0.6,0.598l-2.536,2.544l-1.104,4.184l4.248-1.05l2.546-2.535l0.6,0.598l-9.161,9.19
		l-0.6-0.598l1.249-4.407l-4.394,1.272L557.521,189.012z M563.666,184.047l-4.34,4.354l3.379-0.971L563.666,184.047z
		 M563.431,188.153l-0.951,3.392l4.35-4.363L563.431,188.153z"/>
	<path d="M565.328,178.469l0.726,0.723l-9.152,9.2l-0.735-0.733l0.145-0.145l1.741-4.571l-4.643,1.698l-0.136,0.135l-0.734-0.733
		l9.171-9.181l0.726,0.723l-7.687,7.729l4.557-1.688l-1.674,4.562L565.328,178.469z"/>
	<path d="M550.734,175.975l0.006,3.632l7.84-7.865l0.726,0.723l-7.831,7.855l3.613-0.006l-0.965,0.968l-4.347,0.007l-0.007-4.347
		L550.734,175.975z"/>
	<path d="M543.002,156.207l-0.793,5.632l3.212-3.222l0.726,0.724l-9.162,9.19l-0.725-0.723l4.938-4.953l0.876-7.574L543.002,156.207
		z"/>
	<path d="M537.902,151.12l-1.125,3.798l3.795-1.136l0.841,0.839l-4.991,1.505l-1.277,4.3l-5.069,1.215l1.199-5.073l4.297-1.292
		l1.489-4.996L537.902,151.12z M535.216,156.485l-3.09,0.932l-0.729,2.898l2.896-0.738L535.216,156.485z"/>
	<path d="M528.75,152.12l5.063-5.079l0.726,0.724l-5.42,5.437l0.738,2.201l-0.839,0.842l-0.757-2.182l-2.884,2.892l-0.726-0.723
		l3.25-3.26l-0.747-2.191l0.849-0.851L528.75,152.12z"/>
	<path d="M526.18,149h-0.02l-5.402-2.021l6.395-6.487l0.726,0.677l-5.159,5.152l5.401,1.825l-5.767,5.798l-0.735-0.551L526.18,149z"
		/>
	<path d="M525.829,139.079l0.726,0.723l-9.152,9.2l-0.735-0.733l0.145-0.145l1.741-4.571l-4.643,1.698l-0.136,0.135l-0.735-0.733
		l9.172-9.181l0.726,0.723l-7.687,7.729l4.557-1.688l-1.674,4.562L525.829,139.079z"/>
	<path d="M518.229,131.5l-0.793,5.632l3.212-3.222l0.726,0.724l-9.162,9.19l-0.726-0.723l4.938-4.953l0.877-7.574L518.229,131.5z"/>
	<path d="M506.274,131.635l0.006,3.632l7.84-7.865l0.726,0.723l-7.83,7.855l3.612-0.006l-0.965,0.968l-4.347,0.007l-0.007-4.347
		L506.274,131.635z"/>
	<path d="M510.965,124.255l0.726,0.723l-9.152,9.2l-0.735-0.733l0.145-0.145l1.741-4.571l-4.643,1.698l-0.135,0.135l-0.735-0.733
		l9.171-9.181l0.726,0.723l-7.686,7.729l4.556-1.688l-1.674,4.562L510.965,124.255z"/>
	<path d="M496.353,121.74l0.005,3.632l7.84-7.865l0.726,0.723l-7.831,7.855l3.612-0.006l-0.964,0.968l-4.346,0.007l-0.007-4.347
		L496.353,121.74z"/>
	<path d="M496.922,133.73l-3.824,0.334l-4.765-2.243l-3.928-3.916l0.627-0.628l3.812,3.799l4.417,2.089l3.265-0.295l0.116-0.116
		l-8.562-8.535l0.733-0.735l9.19,9.162L496.922,133.73z"/>
	<path d="M482.665,148.027l-6.723-0.028l1.203-3.141l-7.248-2.403l0.723-0.726l7.731,2.402l-0.961,2.899l4.327-0.007l-8.213-8.188
		l0.733-0.735l9.19,9.162l-0.453,0.455l-0.28,0.28L482.665,148.027z"/>
	<path d="M466.659,158.757l5.426-1.824l-1.654-1.649l-5.445,1.844l-0.745-0.781l5.426-1.824l-5.921-5.902l0.724-0.726l9.19,9.162
		l-0.723,0.726l-0.01-0.01l-5.416,1.834L466.659,158.757z"/>
	<path d="M464.977,165.763l-0.607,0.609l-9.19-9.161l0.607-0.61l5.306,2.165l-2.172-5.309l0.588-0.59l9.2,9.152l-0.598,0.6
		l-5.364-2.223l2.24,5.357L464.977,165.763z M457.364,158.174l5.911,5.873l-1.707-4.131L457.364,158.174z M462.262,159.238
		l4.166,1.684l-5.93-5.912L462.262,159.238z"/>
	<path d="M461.255,169.496l-9.19-9.161l0.723-0.726l9.19,9.162L461.255,169.496z"/>
	<path d="M458.844,171.912l-6.035,1.217l2.418,2.411l-0.723,0.726l-3.87-3.857l6.035-1.217l-6.288-6.269l-1.198,6.039l-3.87-3.857
		l0.723-0.726l2.418,2.411l1.198-6.039L458.844,171.912z"/>
	<path d="M451.376,179.4l-9.19-9.161l0.723-0.726l9.19,9.161L451.376,179.4z"/>
	<path d="M444,177.99v0.019l-2.008,5.402l-6.48-6.394l0.681-0.726l5.154,5.159l1.826-5.402l5.799,5.767l-0.564,0.735L444,177.99z"/>
	<path d="M441.5,189.303l-9.19-9.161l0.723-0.726l9.19,9.162L441.5,189.303z"/>
	<path d="M426.521,185.947l5.632,0.792l-3.222-3.211l0.724-0.726l9.19,9.161l-0.723,0.726l-4.953-4.938l-7.574-0.876
		L426.521,185.947z"/>
	<path d="M431.61,199.22l-9.19-9.161l0.723-0.726l9.19,9.162L431.61,199.22z"/>
	<path d="M422.441,200.193l-5.079-5.063l0.724-0.726l5.437,5.419l2.201-0.737l0.842,0.839l-2.182,0.757l2.893,2.883l-0.723,0.726
		l-3.26-3.25l-2.191,0.747l-0.851-0.849L422.441,200.193z"/>
	<path d="M415.072,197.426l1.561,3.6l2.793,1.223l1.56,2.982l3.219,1.415l-0.666,0.668l-5.123-2.214l2.229,5.116l-0.685,0.687
		l-1.59-3.591l-2.629-1.155l-1.482-2.847l-3.528-1.53l0.723-0.726l5.171,2.262l-2.278-5.164L415.072,197.426z M417.16,204.561
		l-1.779-0.77l0.862,1.65l1.604,0.673L417.16,204.561z M417.166,202.252l0.717,1.622l1.672,0.741l-0.853-1.641L417.166,202.252z"/>
	<path d="M404.574,207.953l0.723-0.726l9.2,9.152l-0.733,0.735l-0.145-0.145l-4.571-1.741l1.698,4.644l0.135,0.135l-0.733,0.735
		l-9.181-9.171l0.723-0.726l7.729,7.686l-1.688-4.556l4.562,1.673L404.574,207.953z"/>
	<path d="M402.554,223.037l5.426-1.824l-8.339-8.313l0.724-0.726l9.19,9.162l-0.723,0.726l-0.01-0.01l-5.416,1.834L402.554,223.037z
		"/>
	<path d="M402.093,228.818l-9.19-9.161l0.723-0.726l9.19,9.162L402.093,228.818z"/>
	<path d="M392.187,232.465l3.632-0.005l-7.865-7.84l0.723-0.726l7.855,7.831l-0.006-3.612l0.968,0.964l0.007,4.346l-4.347,0.007
		L392.187,232.465z"/>
	<path d="M380,242.155v0.019l-2.003,5.402l-6.478-6.394l0.682-0.726l5.155,5.159l1.826-5.402l5.799,5.767l-0.569,0.735L380,242.155z
		"/>
	<path d="M370.102,242.519l0.723-0.726l9.2,9.152l-0.733,0.735l-0.145-0.145l-4.571-1.741l1.698,4.644l0.135,0.135l-0.733,0.735
		l-9.181-9.171l0.723-0.726l7.729,7.686l-1.688-4.556l4.562,1.673L370.102,242.519z"/>
	<path d="M371.362,259.633l-0.607,0.609l-9.19-9.161l0.607-0.609l5.306,2.165l-2.172-5.309l0.588-0.59l9.2,9.152l-0.598,0.6
		l-5.364-2.223l2.24,5.357L371.362,259.633z M363.749,252.043l5.911,5.873l-1.707-4.131L363.749,252.043z M368.647,253.108
		l4.166,1.684l-5.931-5.912L368.647,253.108z"/>
	<path d="M361.601,269.421l-0.607,0.609l-9.19-9.161l0.607-0.609l5.306,2.165l-2.172-5.309l0.588-0.59l9.2,9.152l-0.598,0.6
		l-5.364-2.223l2.24,5.357L361.601,269.421z M353.988,261.832l5.911,5.873l-1.707-4.131L353.988,261.832z M358.886,262.896
		l4.166,1.684l-5.93-5.912L358.886,262.896z"/>
	<path d="M347.699,264.983l3.798,1.124l-1.136-3.794l0.839-0.842l1.505,4.991l4.3,1.278l1.215,5.069l-5.073-1.199l-1.292-4.296
		l-4.996-1.489L347.699,264.983z M353.064,267.67l0.932,3.089l2.898,0.729l-0.738-2.896L353.064,267.67z"/>
	<path d="M340.698,272.003l0.723-0.726l9.2,9.152l-0.733,0.735l-0.145-0.145l-4.571-1.741l1.698,4.644l0.135,0.135l-0.733,0.735
		l-9.181-9.171l0.723-0.726l7.729,7.686l-1.688-4.556l4.562,1.673L340.698,272.003z"/>
	<path d="M343.152,287.919l-9.19-9.161l0.723-0.726l9.19,9.161L343.152,287.919z"/>
	<path d="M339.675,291.405l-3.824,0.334l-4.765-2.243l-3.928-3.916l0.627-0.628l3.812,3.799l4.417,2.089l3.265-0.295l0.116-0.116
		l-8.562-8.535l0.733-0.735l9.19,9.162L339.675,291.405z"/>
	<path d="M331,291.454v0.019l-2.086,5.402l-6.519-6.394l0.661-0.726l5.145,5.159l1.821-5.402l5.796,5.767l-0.488,0.735L331,291.454z
		"/>
	<path d="M326.541,304.577l-9.19-9.161l0.598-0.6l2.544,2.537l4.184,1.104l-1.05-4.248l-2.535-2.546l0.598-0.6l9.19,9.162
		l-0.598,0.6l-4.407-1.249l1.272,4.393L326.541,304.577z M321.576,298.432l4.354,4.339l-0.971-3.379L321.576,298.432z
		 M325.682,298.667l3.392,0.951l-4.363-4.349L325.682,298.667z"/>
	<path d="M313.242,299.534l3.798,1.124l-1.136-3.794l0.839-0.842l1.505,4.991l4.3,1.278l1.215,5.069l-5.073-1.199l-1.292-4.296
		l-4.996-1.489L313.242,299.534z M318.607,302.22l0.932,3.089l2.898,0.729l-0.738-2.896L318.607,302.22z"/>
	<path d="M317.258,313.883l-0.607,0.609l-9.19-9.161l0.607-0.61l5.306,2.165l-2.172-5.309l0.588-0.59l9.2,9.152l-0.598,0.6
		l-5.364-2.223l2.24,5.357L317.258,313.883z M309.645,306.294l5.911,5.873l-1.707-4.131L309.645,306.294z M314.543,307.358
		l4.166,1.684l-5.93-5.912L314.543,307.358z"/>
	<path d="M303.743,321.149l3.632-0.005l-7.865-7.84l0.723-0.726l7.855,7.831l-0.006-3.612l0.968,0.964l0.007,4.346l-4.347,0.007
		L303.743,321.149z"/>
	<path d="M296.363,316.458l0.723-0.726l9.2,9.152l-0.733,0.735l-0.145-0.145l-4.571-1.741l1.698,4.644l0.135,0.135l-0.733,0.735
		l-9.181-9.171l0.723-0.726l7.729,7.686l-1.688-4.556l4.562,1.673L296.363,316.458z"/>
	<path d="M297.023,334.174l-9.19-9.161l0.598-0.6l2.544,2.536l4.184,1.104l-1.05-4.248l-2.535-2.546l0.598-0.6l9.19,9.162
		l-0.598,0.6l-4.407-1.249l1.272,4.393L297.023,334.174z M292.059,328.029l4.354,4.339l-0.971-3.379L292.059,328.029z
		 M296.164,328.264l3.392,0.951l-4.363-4.349L296.164,328.264z"/>
	<path d="M296.411,334.786l-6.035,1.217l2.418,2.411l-0.723,0.726l-3.87-3.857l6.035-1.217l-6.288-6.269l-1.198,6.039l-3.87-3.857
		l0.723-0.726l2.418,2.411l1.198-6.039L296.411,334.786z"/>
	<path d="M278.773,334.097l3.798,1.124l-1.136-3.794l0.839-0.842l1.505,4.991l4.3,1.278l1.215,5.069l-5.073-1.199l-1.292-4.296
		l-4.996-1.489L278.773,334.097z M284.139,336.783l0.932,3.089l2.898,0.729l-0.738-2.896L284.139,336.783z"/>
	<path d="M285.771,345.456l-6.723-0.028l1.203-3.141l-7.248-2.403l0.723-0.726l7.731,2.402l-0.961,2.899l4.327-0.007l-8.213-8.188
		l0.733-0.735l9.19,9.162l-0.453,0.455l-0.28,0.28L285.771,345.456z"/>
	<path d="M274.236,357.023l-9.19-9.161l0.723-0.726l9.19,9.162L274.236,357.023z"/>
	<path d="M265.062,358.001l-5.079-5.063l0.724-0.726l5.437,5.419l2.201-0.737l0.842,0.839l-2.182,0.757l2.893,2.883l-0.723,0.726
		l-3.26-3.25l-2.191,0.747l-0.851-0.849L265.062,358.001z"/>
	<path d="M254.326,358.611l5.632,0.792l-3.222-3.211l0.724-0.725l9.19,9.161l-0.723,0.726l-4.953-4.938l-7.574-0.876
		L254.326,358.611z"/>
	<path d="M259.409,371.89l-9.19-9.161l0.723-0.726l9.19,9.161L259.409,371.89z"/>
	<path d="M253.275,378.041l-0.607,0.609l-9.19-9.161l0.607-0.61l5.306,2.165l-2.172-5.309l0.588-0.59l9.2,9.152l-0.598,0.6
		l-5.364-2.223l2.24,5.357L253.275,378.041z M245.662,370.451l5.911,5.873l-1.707-4.131L245.662,370.451z M250.561,371.516
		l4.166,1.684l-5.931-5.912L250.561,371.516z"/>
	<path d="M249.541,381.785l-9.19-9.161l0.723-0.726l9.19,9.162L249.541,381.785z"/>
	<path d="M243.389,387.955l-0.607,0.609l-9.19-9.161l0.607-0.61l5.306,2.165l-2.172-5.309l0.588-0.59l9.2,9.152l-0.598,0.6
		l-5.364-2.223l2.24,5.357L243.389,387.955z M235.775,380.365l5.911,5.873l-1.707-4.131L235.775,380.365z M240.674,381.43
		l4.166,1.684l-5.931-5.912L240.674,381.43z"/>
	<path d="M241.107,390.241l-3.824,0.334l-4.765-2.243l-3.928-3.916l0.627-0.628l3.812,3.799l4.417,2.089l3.265-0.295l0.116-0.116
		l-8.562-8.535l0.733-0.735l9.19,9.162L241.107,390.241z"/>
	<path d="M230.493,392.664l-5.079-5.063l0.724-0.726l5.437,5.419l2.201-0.737l0.842,0.839l-2.182,0.757l2.893,2.883l-0.723,0.726
		l-3.26-3.25l-2.191,0.747l-0.851-0.849L230.493,392.664z"/>
	<path d="M224.817,400.29l3.632-0.005l-7.865-7.84l0.723-0.726l7.855,7.831l-0.006-3.612l0.968,0.964l0.007,4.346l-4.347,0.007
		L224.817,400.29z"/>
	<path d="M221.465,409.937l-3.824,0.334l-4.765-2.243l-3.928-3.916l0.627-0.628l3.812,3.799l4.417,2.089l3.264-0.295l0.116-0.116
		l-8.562-8.535l0.733-0.735l9.19,9.162L221.465,409.937z"/>
	<path d="M210.116,415.031l3.632-0.005l-7.865-7.84l0.723-0.726l7.855,7.831l-0.006-3.612l0.968,0.964l0.007,4.346l-4.347,0.007
		L210.116,415.031z"/>
	<path d="M200.831,425.309l5.425-1.825l-8.339-8.313l0.724-0.726l9.19,9.162l-0.723,0.725l-0.01-0.009l-5.416,1.834L200.831,425.309
		z"/>
	<path d="M195.903,430.25l5.425-1.824l-1.654-1.649l-5.445,1.844l-0.745-0.781l5.426-1.824l-5.921-5.902l0.724-0.726l9.19,9.162
		l-0.723,0.726l-0.01-0.01l-5.416,1.834L195.903,430.25z"/>
	<path d="M191.804,436.063l-0.851-0.849l0.939-4.676l-4.189,1.417l-0.755-0.752l1.101-6.135l0.724-0.726l9.19,9.162l-0.723,0.725
		L191.804,436.063z M192.093,429.485l0.067-0.319l-3.386-3.375l-0.909,5.111L192.093,429.485z M196.513,433.505l-3.396-3.385
		l-0.27,0.097l-0.862,4.812L196.513,433.505z"/>
	<path d="M180.33,432.808l3.798,1.124l-1.136-3.794l0.839-0.842l1.505,4.991l4.3,1.278l1.215,5.069l-5.073-1.199l-1.292-4.296
		l-4.996-1.489L180.33,432.808z M185.695,435.494l0.932,3.089l2.898,0.729l-0.738-2.896L185.695,435.494z"/>
	<path d="M187.318,444.176l-6.723-0.028l1.203-3.141l-7.248-2.403l0.723-0.726l7.731,2.402l-0.961,2.899l4.327-0.007l-8.213-8.188
		l0.733-0.735l9.19,9.162l-0.453,0.455l-0.28,0.28L187.318,444.176z"/>
	<path d="M173.219,439.937l0.723-0.726l9.2,9.152l-0.733,0.735l-0.145-0.145l-4.571-1.741l1.698,4.644l0.135,0.135l-0.733,0.735
		l-9.181-9.171l0.723-0.726l7.729,7.686l-1.688-4.556l4.562,1.673L173.219,439.937z"/>
	<path d="M163.451,449.731l0.723-0.726l9.2,9.152l-0.733,0.735l-0.145-0.145l-4.571-1.741l1.698,4.644l0.135,0.135l-0.733,0.735
		l-9.181-9.171l0.723-0.726l7.729,7.686l-1.688-4.556l4.562,1.673L163.451,449.731z"/>
	<path d="M160.947,464.333l3.632-0.005l-7.865-7.84l0.723-0.726l7.855,7.831l-0.006-3.612l0.968,0.964l0.007,4.346l-4.347,0.007
		L160.947,464.333z"/>
	<path d="M154.938,476.645l-0.607,0.609l-9.19-9.161l0.607-0.61l5.306,2.165l-2.172-5.309l0.588-0.59l9.2,9.152l-0.598,0.6
		l-5.364-2.223l2.24,5.357L154.938,476.645z M147.325,469.056l5.911,5.873l-1.707-4.131L147.325,469.056z M152.223,470.12
		l4.166,1.684l-5.93-5.912L152.223,470.12z"/>
	<path d="M141.037,472.208l3.798,1.124l-1.136-3.794l0.839-0.842l1.505,4.991l4.3,1.278l1.215,5.069l-5.073-1.199l-1.292-4.296
		l-4.996-1.489L141.037,472.208z M146.402,474.894l0.932,3.089l2.898,0.729l-0.738-2.896L146.402,474.894z"/>
	<path d="M141.779,484.521l5.425-1.824l-8.339-8.313l0.724-0.726l9.19,9.162l-0.723,0.726l-0.01-0.01l-5.416,1.834L141.779,484.521z
		"/>
	<path d="M131.163,482.109l3.798,1.124l-1.136-3.794l0.839-0.842l1.505,4.991l4.3,1.278l1.215,5.069l-5.073-1.199l-1.292-4.296
		l-4.996-1.489L131.163,482.109z M136.528,484.795l0.932,3.089l2.898,0.729l-0.738-2.896L136.528,484.795z"/>
	<path d="M138.149,493.479l-6.723-0.028l1.203-3.141l-7.248-2.403l0.723-0.726l7.731,2.402l-0.961,2.899l4.327-0.007l-8.213-8.188
		l0.733-0.735l9.19,9.162l-0.453,0.455l-0.28,0.28L138.149,493.479z"/>
	<path d="M124.057,489.233l0.723-0.726l9.2,9.152l-0.733,0.735l-0.145-0.145l-4.571-1.741l1.698,4.643l0.135,0.136l-0.733,0.734
		l-9.181-9.17l0.723-0.726l7.729,7.686l-1.688-4.556l4.562,1.673L124.057,489.233z"/>
	<path d="M136.92,506.258l-9.161,9.19l-0.6-0.598l2.537-2.544l1.104-4.185l-4.248,1.05l-2.546,2.535l-0.6-0.599l9.162-9.19
		l0.6,0.599l-1.249,4.406l4.393-1.272L136.92,506.258z M131.011,507.117l0.951-3.392l-4.349,4.363L131.011,507.117z
		 M130.776,511.223l4.339-4.354l-3.379,0.972L130.776,511.223z"/>
	<path d="M139.24,513.876l-1.825-5.425l-1.649,1.654l1.844,5.444l-0.781,0.745l-1.824-5.426l-5.902,5.921l-0.726-0.724l9.162-9.19
		l0.725,0.724l-0.009,0.01l1.834,5.416L139.24,513.876z"/>
	<path d="M133.333,521.009l3.6-1.561l1.223-2.793l2.982-1.561l1.415-3.218l0.668,0.665l-2.214,5.123l5.116-2.23l0.687,0.686
		l-3.591,1.589l-1.155,2.63l-2.847,1.481l-1.53,3.528l-0.726-0.724l2.262-5.171l-5.164,2.278L133.333,521.009z M138.159,518.915
		l1.622-0.718l0.741-1.672l-1.641,0.853L138.159,518.915z M140.467,518.921l-0.77,1.778l1.65-0.862l0.673-1.604L140.467,518.921z"/>
	<path d="M146,523.513l-5.063,5.079l-0.726-0.724l5.419-5.437l-0.737-2.201l0.839-0.842l0.757,2.182l2.883-2.893l0.726,0.724
		l-3.25,3.26l0.747,2.191l-0.849,0.852L146,523.513z"/>
	<path d="M154.092,528.688l-1.824-5.425l-1.649,1.654l1.844,5.444l-0.781,0.745l-1.824-5.426l-5.902,5.921l-0.726-0.724l9.162-9.19
		l0.726,0.724l-0.01,0.01l1.834,5.415L154.092,528.688z"/>
	<path d="M163.883,538.453l-1.825-5.425l-1.649,1.654l1.844,5.444l-0.781,0.745l-1.824-5.426l-5.902,5.921l-0.726-0.724l9.162-9.19
		l0.725,0.724l-0.009,0.01l1.834,5.415L163.883,538.453z"/>
	<path d="M168.833,543.389l-1.824-5.425l-8.313,8.339l-0.726-0.724l9.162-9.19l0.726,0.724l-0.01,0.01l1.834,5.415L168.833,543.389z
		"/>
	<path d="M174.623,543.86l-9.161,9.189l-0.726-0.723l9.162-9.19L174.623,543.86z"/>
	<path d="M181.402,550.62l-9.161,9.19l-0.726-0.724l4.581-4.595l-1.438-5.813l5.98,1.179l0.039,0.038L181.402,550.62z
		 M176.955,553.631l2.768-2.776l-3.875-0.95L176.955,553.631z"/>
	<path d="M183.071,552.285l0.334,3.824l-2.243,4.766l-3.916,3.928l-0.628-0.627l3.799-3.812l2.089-4.417l-0.295-3.265l-0.116-0.115
		l-8.535,8.562l-0.735-0.733l9.162-9.19L183.071,552.285z"/>
	<path d="M188.65,563.152l-1.825-5.425l-1.649,1.654l1.844,5.444l-0.781,0.745l-1.824-5.426l-5.902,5.921l-0.726-0.724l9.162-9.19
		l0.725,0.724l-0.009,0.01l1.834,5.415L188.65,563.152z"/>
	<path d="M202.775,571.936l0.334,3.824l-2.243,4.766l-3.916,3.928l-0.628-0.627l3.799-3.812l2.089-4.417l-0.295-3.265l-0.116-0.115
		l-8.535,8.562l-0.735-0.733l9.162-9.19L202.775,571.936z"/>
	<path d="M207.867,583.282l-0.005-3.632l-7.84,7.864l-0.726-0.723l7.831-7.855l-3.612,0.006l0.964-0.968l4.346-0.007l0.007,4.347
		L207.867,583.282z"/>
	<path d="M208.015,595.489l-0.726-0.724l9.152-9.2l0.735,0.733l-0.145,0.145l-1.741,4.571l4.644-1.697l0.135-0.136l0.735,0.733
		l-9.171,9.181l-0.726-0.724l7.686-7.729l-4.556,1.688l1.673-4.562L208.015,595.489z"/>
	<path d="M219.946,597.258l-5.063,5.079l-0.725-0.724l5.419-5.437l-0.737-2.201l0.839-0.842l0.757,2.182l2.883-2.893l0.726,0.724
		l-3.25,3.26l0.748,2.191l-0.849,0.852L219.946,597.258z"/>
	<path d="M228.882,597.972l-9.161,9.189l-0.726-0.723l9.161-9.19L228.882,597.972z"/>
	<path d="M235.639,604.709l-9.161,9.19l-0.6-0.598l2.537-2.544l1.104-4.185l-4.248,1.05l-2.546,2.535l-0.6-0.599l9.162-9.19
		l0.6,0.599l-1.249,4.406l4.393-1.272L235.639,604.709z M229.729,605.568l0.951-3.392l-4.349,4.363L229.729,605.568z
		 M229.495,609.674l4.339-4.354l-3.379,0.972L229.495,609.674z"/>
	<path d="M242.783,617.139l-1.825-5.425l-1.649,1.654l1.844,5.444l-0.781,0.745l-1.824-5.426l-5.902,5.921l-0.726-0.724l9.162-9.19
		l0.725,0.724l-0.009,0.01l1.834,5.415L242.783,617.139z"/>
	<path d="M249.785,618.818l0.609,0.607l-9.161,9.19l-0.609-0.607l2.165-5.307l-5.309,2.172l-0.59-0.588l9.152-9.2l0.6,0.599
		l-2.223,5.363l5.357-2.239L249.785,618.818z M243.26,621.533l1.684-4.166l-5.912,5.931L243.26,621.533z M242.196,626.432
		l5.873-5.911l-4.131,1.707L242.196,626.432z"/>
	<path d="M260.182,629.185l-9.161,9.19l-0.6-0.598l2.536-2.545l1.104-4.184l-4.248,1.05l-2.546,2.535l-0.6-0.599l9.162-9.19
		l0.6,0.599l-1.249,4.406l4.393-1.272L260.182,629.185z M254.272,630.044l0.951-3.392l-4.349,4.363L254.272,630.044z
		 M254.037,634.149l4.339-4.354l-3.379,0.972L254.037,634.149z"/>
	<path d="M263.335,632.332l-9.161,9.189l-0.726-0.723l9.162-9.19L263.335,632.332z"/>
	<path d="M264.308,641.5l-5.063,5.079l-0.725-0.724l5.419-5.437l-0.737-2.201l0.839-0.842l0.757,2.182l2.883-2.893l0.726,0.724
		l-3.25,3.26l0.748,2.191l-0.849,0.852L264.308,641.5z"/>
	<path d="M273.22,642.189l-9.161,9.189l-0.726-0.723l9.162-9.19L273.22,642.189z"/>
	<path d="M279.995,648.944l-9.161,9.19l-0.6-0.598l2.537-2.545l1.104-4.184l-4.248,1.05l-2.546,2.535l-0.6-0.599l9.162-9.19
		l0.6,0.599l-1.249,4.406l4.393-1.272L279.995,648.944z M274.085,649.804l0.951-3.392l-4.349,4.363L274.085,649.804z
		 M273.85,653.909l4.339-4.354l-3.379,0.972L273.85,653.909z"/>
	<path d="M285.438,654.374l0.726,0.724l-4.581,4.595l5.576,1.701l-0.743,0.706l-5.557-1.682l-1.447,1.451l5.557,1.682l-0.723,0.726
		l-5.557-1.682l-1.688,1.693l-0.726-0.724L285.438,654.374z"/>
	<path d="M281.966,669.239l-0.726-0.724l9.152-9.2l0.735,0.733l-0.145,0.145l-1.741,4.571l4.644-1.697l0.135-0.136l0.735,0.733
		l-9.171,9.181l-0.726-0.724l7.686-7.729l-4.556,1.688l1.673-4.562L281.966,669.239z"/>
	<path d="M293.905,671.017l-5.063,5.079l-0.725-0.724l5.419-5.437l-0.737-2.201l0.839-0.842l0.757,2.182l2.883-2.893l0.726,0.724
		l-3.25,3.26l0.748,2.191l-0.849,0.852L293.905,671.017z"/>
	<path d="M302.837,671.728l-9.161,9.189l-0.726-0.723l9.162-9.19L302.837,671.728z"/>
	<path d="M306.957,681.139l-1.825-5.425l-1.649,1.654l1.844,5.444l-0.781,0.745l-1.824-5.426l-5.902,5.921l-0.726-0.724l9.162-9.19
		l0.725,0.724l-0.009,0.01l1.834,5.415L306.957,681.139z"/>
	<path d="M314.555,683.41l-9.161,9.19l-0.6-0.598l2.536-2.544l1.104-4.185l-4.248,1.05l-2.546,2.535l-0.6-0.599l9.162-9.19
		l0.6,0.599l-1.249,4.406l4.393-1.272L314.555,683.41z M308.645,684.27l0.951-3.392l-4.349,4.363L308.645,684.27z M308.41,688.375
		l4.339-4.354l-3.379,0.972L308.41,688.375z"/>
	<path d="M329.308,698.124l-9.161,9.19l-0.726-0.724l4.581-4.595l-1.438-5.813l5.98,1.179l0.039,0.038L329.308,698.124z
		 M324.86,701.135l2.768-2.776l-3.875-0.95L324.86,701.135z"/>
	<path d="M330.986,699.798l0.334,3.824l-2.243,4.766l-3.916,3.928l-0.628-0.627l3.799-3.812l2.089-4.417l-0.295-3.265l-0.116-0.115
		l-8.535,8.562l-0.735-0.733l9.162-9.19L330.986,699.798z"/>
	<path d="M337.374,706.169l-9.161,9.189l-0.726-0.723l9.161-9.19L337.374,706.169z"/>
	<path d="M335.963,714h0.019l5.402,1.78l-6.394,6.366l-0.726-0.737l5.159-5.182l-5.402-1.84l5.767-5.807l0.735,0.788L335.963,714z"
		/>
	<path d="M348.162,725.127l-5.063,5.079l-0.726-0.724l5.419-5.437l-0.737-2.201l0.839-0.842l0.757,2.182l2.883-2.893l0.726,0.724
		l-3.25,3.26l0.747,2.191l-0.849,0.852L348.162,725.127z"/>
	<path d="M348.891,735.981l1.124-3.798l-3.794,1.136l-0.842-0.839l4.991-1.505l1.278-4.3l5.069-1.216l-1.199,5.073l-4.296,1.291
		l-1.489,4.996L348.891,735.981z M351.577,730.616l3.089-0.932l0.729-2.899l-2.896,0.739L351.577,730.616z"/>
	<path d="M355.672,734h0.019l5.402,1.607l-6.394,6.281l-0.726-0.781l5.159-5.204l-5.402-1.85l5.767-5.813l0.735,0.958L355.672,734z"
		/>
	<path d="M365.667,740.654l-0.005-3.632l-7.84,7.864l-0.726-0.723l7.831-7.855l-3.612,0.006l0.964-0.968l4.346-0.007l0.007,4.347
		L365.667,740.654z"/>
	<path d="M370.171,738.878l-0.028,6.723l-3.141-1.202l-2.403,7.248l-0.726-0.724l2.402-7.73l2.899,0.961l-0.007-4.327l-8.188,8.214
		l-0.735-0.733l9.162-9.19l0.455,0.453l0.28,0.28L370.171,738.878z"/>
	<path d="M375.449,744.141l0.334,3.824l-2.243,4.766l-3.916,3.928l-0.628-0.627l3.799-3.812l2.089-4.417l-0.295-3.265l-0.116-0.115
		l-8.535,8.562l-0.735-0.733l9.162-9.19L375.449,744.141z"/>
	<path d="M383.062,751.732l0.609,0.607l-9.161,9.19l-0.609-0.607l2.165-5.307l-5.309,2.172l-0.59-0.588l9.152-9.2l0.6,0.599
		l-2.223,5.363l5.357-2.239L383.062,751.732z M376.537,754.447l1.684-4.166l-5.912,5.931L376.537,754.447z M375.472,759.346
		l5.873-5.911l-4.131,1.707L375.472,759.346z"/>
	<path d="M380.682,767.688l-0.726-0.724l9.152-9.2l0.735,0.733l-0.145,0.145l-1.741,4.571l4.644-1.697l0.135-0.136l0.735,0.733
		l-9.171,9.181l-0.726-0.724l7.686-7.729l-4.556,1.688l1.673-4.562L380.682,767.688z"/>
	<path d="M393.945,767.873l3.735-1.562l0.726,0.724l-6.168,2.55l-4.812,4.827l-0.726-0.723l4.832-4.847l2.521-6.147l0.725,0.724
		l-1.539,3.711l2.623-2.631l0.725,0.724L393.945,767.873z"/>
	<path d="M390.581,777.56l-0.726-0.724l9.152-9.2l0.735,0.733l-0.145,0.145l-1.741,4.571l4.644-1.697l0.135-0.136l0.735,0.733
		l-9.171,9.181l-0.726-0.724l7.686-7.729l-4.556,1.688l1.673-4.562L390.581,777.56z"/>
	<path d="M404.728,773.341l-0.028,6.723l-3.141-1.202l-2.403,7.248l-0.726-0.724l2.402-7.73l2.899,0.961l-0.007-4.327l-8.188,8.214
		l-0.735-0.733l9.162-9.19l0.455,0.453l0.28,0.28L404.728,773.341z"/>
	<path d="M403.131,790.074l0.792-5.633l-3.211,3.222l-0.725-0.724l9.161-9.19l0.726,0.724l-4.938,4.953L404.06,791L403.131,790.074z
		"/>
	<path d="M416.408,784.989l-9.161,9.189l-0.726-0.723l9.162-9.19L416.408,784.989z"/>
	<path d="M420.032,794.872l-0.005-3.632l-7.84,7.864l-0.726-0.723l7.831-7.855l-3.612,0.006l0.964-0.968l4.346-0.007l0.007,4.347
		L420.032,794.872z"/>
	<path d="M425.473,799.334l-1.825-5.425L422,795.563l1.844,5.444l-0.781,0.745l-1.824-5.426l-5.902,5.921l-0.726-0.724l9.162-9.19
		l0.725,0.724l-0.009,0.01l1.834,5.415L425.473,799.334z"/>
	<path d="M429.943,804.757l-0.005-3.632l-7.84,7.864l-0.726-0.723l7.831-7.855l-3.612,0.006l0.964-0.968l4.346-0.007l0.007,4.347
		L429.943,804.757z"/>
	<path d="M436.209,804.737l-9.161,9.189l-0.726-0.723l9.162-9.19L436.209,804.737z"/>
	<path d="M432.976,819.838l1.124-3.798l-3.794,1.136l-0.842-0.839l4.991-1.505l1.278-4.3l5.069-1.216l-1.199,5.073l-4.296,1.291
		l-1.489,4.996L432.976,819.838z M435.662,814.473l3.089-0.932l0.729-2.899l-2.896,0.739L435.662,814.473z"/>
	<path d="M442.151,818.861l-5.063,5.079l-0.725-0.724l5.419-5.437l-0.737-2.201l0.839-0.842l0.757,2.182l2.883-2.893l0.726,0.724
		l-3.25,3.26l0.748,2.191l-0.849,0.852L442.151,818.861z"/>
	<path d="M454.467,822.944l0.334,3.824l-2.243,4.766l-3.916,3.928l-0.628-0.627l3.799-3.812l2.089-4.417l-0.295-3.265l-0.116-0.115
		l-8.535,8.562l-0.735-0.733l9.162-9.19L454.467,822.944z"/>
	<path d="M460.032,833.798l-1.825-5.425l-8.313,8.339l-0.726-0.724l9.162-9.19l0.725,0.724l-0.009,0.01l1.834,5.416L460.032,833.798
		z"/>
	<path d="M464.981,838.734l-1.825-5.425l-8.313,8.339l-0.726-0.724l9.162-9.19l0.725,0.724l-0.009,0.01l1.834,5.415L464.981,838.734
		z"/>
	<path d="M469.946,843.686l-1.825-5.425l-1.649,1.654l1.844,5.444l-0.781,0.745l-1.824-5.426l-5.902,5.921l-0.726-0.724l9.162-9.19
		l0.725,0.724l-0.009,0.01l1.834,5.415L469.946,843.686z"/>
	<path d="M477.522,845.938l-9.161,9.19l-0.6-0.598l2.536-2.544l1.104-4.185l-4.248,1.05l-2.546,2.535l-0.6-0.599l9.162-9.19
		l0.6,0.599l-1.249,4.406l4.393-1.272L477.522,845.938z M471.613,846.797l0.951-3.392l-4.349,4.363L471.613,846.797z
		 M471.378,850.902l4.339-4.354l-3.379,0.972L471.378,850.902z"/>
	<path d="M472.352,859.108l0.792-5.633l-3.211,3.222l-0.726-0.724l9.161-9.19l0.726,0.724l-4.938,4.953l-0.876,7.574
		L472.352,859.108z"/>
	<path d="M477.448,864.189l1.124-3.798l-3.794,1.136l-0.842-0.839l4.991-1.505l1.278-4.3l5.069-1.216l-1.199,5.073l-4.296,1.291
		l-1.489,4.996L477.448,864.189z M480.134,858.824l3.089-0.932l0.729-2.899l-2.896,0.739L480.134,858.824z"/>
	<path d="M494.593,868.267l-1.824-5.425l-8.313,8.339l-0.726-0.724l9.162-9.19l0.726,0.724l-0.01,0.01l1.834,5.416L494.593,868.267z
		"/>
	<path d="M499.532,873.192l-1.824-5.425l-1.649,1.654l1.844,5.444l-0.781,0.745l-1.824-5.426l-5.902,5.921l-0.726-0.724l9.162-9.19
		l0.726,0.724l-0.01,0.01l1.834,5.416L499.532,873.192z"/>
	<path d="M505.382,877.328l-0.849,0.852l-4.676-0.939l1.417,4.19l-0.752,0.754l-6.135-1.101l-0.726-0.724l9.162-9.19l0.726,0.724
		L505.382,877.328z M498.804,877.039l-0.319-0.066l-3.375,3.386l5.111,0.909L498.804,877.039z M502.824,872.619l-3.385,3.396
		l0.097,0.271l4.811,0.861L502.824,872.619z"/>
	<path d="M515.054,872.639l-3.798-1.125l1.136,3.795l-0.839,0.841l-1.505-4.991l-4.3-1.277l-1.216-5.069l5.073,1.199l1.291,4.297
		l4.996,1.489L515.054,872.639z M509.688,869.952l-0.932-3.09l-2.899-0.729l0.739,2.896L509.688,869.952z"/>
	<path d="M508.073,861.261l6.723,0.027l-1.202,3.142l7.248,2.403l-0.724,0.726l-7.73-2.403l0.961-2.898l-4.327,0.007l8.214,8.188
		l-0.733,0.734l-9.19-9.161l0.453-0.454l0.28-0.281L508.073,861.261z"/>
	<path d="M514.776,854.54l9.189,9.161l-0.723,0.726l-9.19-9.161L514.776,854.54z"/>
	<path d="M522,855.968v-0.02l2.075-5.401l6.515,6.394l-0.664,0.726l-5.146-5.16l-1.821,5.402l-5.798-5.767l0.498-0.735L522,855.968z
		"/>
	<path d="M533.724,843.762l5.079,5.063l-0.724,0.726l-5.437-5.42l-2.201,0.738l-0.842-0.839l2.182-0.757l-2.893-2.884l0.724-0.726
		l3.26,3.25l2.191-0.747l0.852,0.849L533.724,843.762z"/>
	<path d="M534.423,834.841l9.189,9.161l-0.723,0.726l-9.19-9.161L534.423,834.841z"/>
	<path d="M542,836.267v-0.02l1.898-5.401l6.426,6.394l-0.708,0.726l-5.167-5.16l-1.833,5.402l-5.803-5.767l0.672-0.735L542,836.267z
		"/>
	<path d="M544.289,824.947l9.189,9.161l-0.723,0.726l-9.19-9.161L544.289,824.947z"/>
	<path d="M552.608,816.605l3.824-0.335l4.766,2.243l3.928,3.915l-0.627,0.629l-3.812-3.8l-4.417-2.089l-3.265,0.295l-0.115,0.116
		l8.562,8.535l-0.733,0.734l-9.19-9.161L552.608,816.605z"/>
	<path d="M563.956,811.514l-3.632,0.006l7.864,7.84l-0.723,0.726l-7.855-7.831l0.006,3.613l-0.968-0.965l-0.007-4.347l4.347-0.007
		L563.956,811.514z"/>
	<path d="M573.241,801.235l-5.425,1.824l1.654,1.649l5.444-1.844l0.745,0.781l-5.426,1.824l5.921,5.902l-0.724,0.725l-9.19-9.161
		l0.724-0.726l0.01,0.01l5.416-1.834L573.241,801.235z"/>
	<path d="M578.181,796.281l-5.425,1.824l8.339,8.313l-0.724,0.726l-9.19-9.161l0.724-0.726l0.01,0.01l5.416-1.834L578.181,796.281z"
		/>
	<path d="M578.643,790.5l9.189,9.161l-0.723,0.726l-9.19-9.161L578.643,790.5z"/>
	<path d="M585.389,783.734l9.19,9.162l-0.724,0.726l-4.595-4.581l-5.813,1.438l1.179-5.98l0.038-0.039L585.389,783.734z
		 M588.399,788.183l-2.776-2.768l-0.95,3.875L588.399,788.183z"/>
	<path d="M587.081,782.038l3.824-0.335l4.766,2.243l3.928,3.915l-0.627,0.629l-3.812-3.8l-4.417-2.089l-3.265,0.295l-0.115,0.116
		l8.562,8.535l-0.733,0.734l-9.19-9.161L587.081,782.038z"/>
	<path d="M593.464,775.638l9.189,9.161l-0.723,0.726l-9.19-9.161L593.464,775.638z"/>
	<path d="M595.878,773.218l6.035-1.217l-2.419-2.411l0.724-0.726l3.87,3.857l-6.035,1.218l6.288,6.268l1.197-6.038l3.87,3.857
		l-0.724,0.726l-2.418-2.411l-1.198,6.038L595.878,773.218z"/>
	<path d="M615.575,771.845l-0.724,0.726l-9.2-9.152l0.733-0.735l0.145,0.145l4.571,1.741l-1.697-4.643l-0.136-0.136l0.733-0.735
		l9.181,9.172l-0.724,0.726l-7.729-7.687l1.688,4.557l-4.562-1.674L615.575,771.845z"/>
	<path d="M615.748,758.594l-1.562-3.736l0.724-0.726l2.55,6.168l4.827,4.813l-0.723,0.726l-4.847-4.831l-6.147-2.521l0.724-0.726
		l3.711,1.54l-2.631-2.623l0.724-0.726L615.748,758.594z"/>
	<path d="M630.271,757.109l-0.724,0.726l-9.2-9.152l0.733-0.735l0.145,0.145l4.571,1.741l-1.697-4.643l-0.136-0.136l0.733-0.734
		l9.181,9.171l-0.724,0.726l-7.729-7.687l1.688,4.557l-4.562-1.674L630.271,757.109z"/>
	<path d="M632.28,742.034l-5.425,1.824l1.654,1.649l5.444-1.844l0.745,0.781l-5.426,1.824l5.921,5.902l-0.724,0.725l-9.19-9.161
		l0.724-0.726l0.01,0.01l5.416-1.834L632.28,742.034z"/>
	<path d="M647.604,739.728l-5.633-0.793l3.222,3.212l-0.724,0.726l-9.19-9.162l0.724-0.726l4.953,4.938l7.574,0.877L647.604,739.728
		z"/>
	<path d="M652.683,734.635l-3.798-1.125l1.136,3.795l-0.839,0.841l-1.505-4.991l-4.3-1.277l-1.216-5.069l5.073,1.199l1.291,4.297
		l4.996,1.489L652.683,734.635z M647.317,731.948l-0.932-3.09l-2.899-0.729l0.739,2.896L647.317,731.948z"/>
	<path d="M649.258,719.69l9.19,9.162l-0.598,0.6l-2.544-2.536l-4.185-1.104l1.05,4.248l2.535,2.546l-0.599,0.6l-9.19-9.161
		l0.599-0.6l4.406,1.249l-1.272-4.394L649.258,719.69z M650.117,725.601l-3.392-0.951l4.363,4.35L650.117,725.601z M654.223,725.836
		l-4.354-4.34l0.972,3.379L654.223,725.836z"/>
	<path d="M654.199,714.735l9.19,9.162l-0.598,0.6l-2.544-2.536l-4.185-1.104l1.05,4.248l2.535,2.546l-0.599,0.6l-9.19-9.161
		l0.599-0.6l4.406,1.249l-1.272-4.394L654.199,714.735z M655.059,720.646l-3.392-0.951l4.363,4.35L655.059,720.646z
		 M659.164,720.881l-4.354-4.34l0.972,3.379L659.164,720.881z"/>
	<path d="M667.505,719.771l-3.798-1.124l1.136,3.795l-0.839,0.841l-1.505-4.991l-4.3-1.277l-1.216-5.069l5.073,1.199l1.291,4.297
		l4.996,1.489L667.505,719.771z M662.14,717.086l-0.932-3.09l-2.899-0.729l0.739,2.896L662.14,717.086z"/>
	<path d="M663.471,705.441l0.607-0.61l9.19,9.162l-0.607,0.609l-5.307-2.165l2.172,5.309l-0.588,0.591l-9.2-9.152l0.599-0.6
		l5.363,2.223l-2.239-5.357L663.471,705.441z M666.186,711.966l-4.166-1.684l5.931,5.911L666.186,711.966z M671.084,713.03
		l-5.911-5.873l1.707,4.132L671.084,713.03z"/>
	<path d="M677.368,709.883l-3.798-1.125l1.136,3.795l-0.839,0.841l-1.505-4.991l-4.3-1.277l-1.216-5.069l5.073,1.199l1.291,4.297
		l4.996,1.489L677.368,709.883z M672.003,707.196l-0.932-3.09l-2.899-0.729l0.739,2.896L672.003,707.196z"/>
	<path d="M686.996,700.229l-5.633-0.793l3.222,3.212l-0.724,0.726l-9.19-9.162l0.724-0.725l4.953,4.938l7.574,0.876L686.996,700.229
		z"/>
	<path d="M692.073,695.137l-3.798-1.125l1.136,3.795l-0.839,0.841l-1.505-4.991l-4.3-1.277l-1.216-5.069l5.073,1.199l1.291,4.297
		l4.996,1.489L692.073,695.137z M686.708,692.45l-0.932-3.09l-2.899-0.729l0.739,2.896L686.708,692.45z"/>
	<path d="M691.09,685.968l5.079,5.063l-0.724,0.726l-5.437-5.42l-2.201,0.738l-0.842-0.839l2.182-0.757l-2.893-2.884l0.724-0.726
		l3.26,3.25l2.191-0.747l0.852,0.849L691.09,685.968z"/>
	<path d="M695,683.408v-0.02l1.621-5.402l6.287,6.395l-0.777,0.726l-5.201-5.159l-1.851,5.401l-5.812-5.767l0.944-0.735L695,683.408
		z"/>
	<path d="M704.133,683.046l-0.724,0.726l-9.2-9.152l0.733-0.735l0.145,0.145l4.571,1.741l-1.697-4.643l-0.136-0.136l0.733-0.735
		l9.181,9.172l-0.724,0.726l-7.729-7.687l1.688,4.557l-4.562-1.674L704.133,683.046z"/>
	<path d="M703.481,665.319l9.19,9.162l-0.724,0.726l-4.595-4.581l-5.813,1.438l1.179-5.98l0.038-0.039L703.481,665.319z
		 M706.492,669.768L703.716,667l-0.95,3.875L706.492,669.768z"/>
	<path d="M705.163,663.636l3.824-0.335l4.766,2.243l3.928,3.915l-0.627,0.629l-3.812-3.8l-4.417-2.089l-3.265,0.295l-0.115,0.116
		l8.562,8.535l-0.733,0.734l-9.19-9.161L705.163,663.636z"/>
	<path d="M716.028,658.059l-5.425,1.824l1.654,1.649l5.444-1.844l0.745,0.781l-5.426,1.824l5.921,5.901l-0.724,0.726l-9.19-9.161
		l0.724-0.726l0.01,0.01l5.416-1.834L716.028,658.059z"/>
	<path d="M721.442,653.598l-3.632,0.006l7.864,7.84l-0.723,0.726l-7.855-7.831l0.006,3.613l-0.968-0.965l-0.007-4.347l4.347-0.007
		L721.442,653.598z"/>
	<path d="M732.391,636.332l0.607-0.609l9.19,9.162l-0.607,0.609l-5.307-2.165l2.172,5.309l-0.588,0.591l-9.2-9.152l0.599-0.6
		l5.363,2.223l-2.239-5.357L732.391,636.332z M735.105,642.857l-4.166-1.684l5.931,5.911L735.105,642.857z M740.004,643.922
		l-5.911-5.873l1.707,4.132L740.004,643.922z"/>
	<path d="M734.68,634.039l3.824-0.335l4.766,2.243l3.928,3.915l-0.627,0.629l-3.812-3.8l-4.417-2.089l-3.265,0.295l-0.115,0.116
		l8.562,8.535l-0.733,0.734l-9.19-9.161L734.68,634.039z"/>
	<path d="M741.069,627.631l9.189,9.161l-0.723,0.726l-9.19-9.161L741.069,627.631z"/>
	<path d="M749,629.047v-0.02l1.729-5.402l6.34,6.395l-0.75,0.726l-5.189-5.159l-1.843,5.401l-5.809-5.767l0.84-0.735L749,629.047z"
		/>
	<path d="M760.246,613.721l-5.425,1.824l1.654,1.649l5.444-1.844l0.745,0.781l-5.426,1.824l5.921,5.901l-0.724,0.726l-9.19-9.161
		l0.724-0.726l0.01,0.01l5.415-1.834L760.246,613.721z"/>
	<path d="M759.271,609.38l3.824-0.335l4.766,2.243l3.928,3.915l-0.627,0.629l-3.812-3.8l-4.417-2.089l-3.265,0.295l-0.115,0.116
		l8.562,8.535l-0.733,0.734l-9.19-9.161L759.271,609.38z"/>
	<path d="M770.619,604.287l-3.632,0.006l7.864,7.84l-0.723,0.726l-7.855-7.831l0.006,3.613l-0.968-0.965l-0.007-4.347l4.347-0.007
		L770.619,604.287z"/>
	<path d="M777.994,608.984l-0.724,0.726l-9.2-9.152l0.733-0.735l0.145,0.145l4.571,1.741l-1.697-4.643l-0.136-0.136l0.733-0.734
		l9.181,9.171l-0.724,0.726l-7.729-7.687l1.688,4.557l-4.562-1.674L777.994,608.984z"/>
	<path d="M780.358,588.235l9.189,9.161l-0.723,0.726l-9.19-9.161L780.358,588.235z"/>
	<path d="M783.532,585.054l6.723,0.027l-1.202,3.142l7.248,2.403l-0.724,0.726l-7.73-2.403l0.961-2.898l-4.327,0.007l8.214,8.188
		l-0.733,0.734l-9.19-9.161l0.453-0.454l0.28-0.281L783.532,585.054z"/>
	<path d="M788.802,579.77l3.824-0.335l4.766,2.243l3.928,3.915l-0.627,0.629l-3.812-3.8l-4.417-2.089l-3.265,0.295l-0.115,0.116
		l8.562,8.535l-0.733,0.734l-9.19-9.161L788.802,579.77z"/>
	<path d="M793.408,575.151l6.723,0.027l-1.202,3.142l7.248,2.403l-0.724,0.726l-7.73-2.403l0.961-2.898l-4.327,0.007l8.214,8.188
		l-0.733,0.734l-9.19-9.161l0.453-0.454l0.28-0.281L793.408,575.151z"/>
	<path d="M807.518,579.381l-0.724,0.726l-9.2-9.152l0.733-0.735l0.145,0.145l4.571,1.741l-1.697-4.643l-0.136-0.136l0.733-0.734
		l9.181,9.171l-0.724,0.726l-7.729-7.687l1.688,4.557l-4.562-1.674L807.518,579.381z"/>
	<path d="M811.089,557.422l0.607-0.61l9.19,9.162l-0.607,0.609l-5.307-2.165l2.172,5.309l-0.588,0.591l-9.2-9.152l0.599-0.6
		l5.363,2.223l-2.239-5.357L811.089,557.422z M813.804,563.946l-4.166-1.684l5.931,5.911L813.804,563.946z M818.702,565.011
		l-5.911-5.873l1.707,4.132L818.702,565.011z"/>
	<path d="M824.979,561.869l-3.798-1.124l1.136,3.795l-0.839,0.841l-1.505-4.991l-4.3-1.277l-1.216-5.069l5.073,1.199l1.291,4.297
		l4.996,1.489L824.979,561.869z M819.613,559.184l-0.932-3.09l-2.899-0.729l0.739,2.896L819.613,559.184z"/>
	<path d="M824.228,549.564l-5.425,1.824l8.339,8.313l-0.724,0.726l-9.19-9.161l0.724-0.726l0.01,0.01l5.416-1.834L824.228,549.564z"
		/>
	<path d="M834.862,551.961l-3.798-1.125l1.136,3.795l-0.839,0.841l-1.505-4.991l-4.3-1.277l-1.216-5.069l5.073,1.199l1.291,4.297
		l4.996,1.489L834.862,551.961z M829.497,549.274l-0.932-3.09l-2.899-0.729l0.739,2.896L829.497,549.274z"/>
	<path d="M827.879,540.586l6.723,0.027l-1.202,3.142l7.248,2.403l-0.724,0.726l-7.73-2.403l0.961-2.898l-4.327,0.007l8.214,8.188
		l-0.733,0.734l-9.19-9.161l0.453-0.454l0.28-0.281L827.879,540.586z"/>
	<path d="M839.415,529.019l9.189,9.161l-0.723,0.726l-9.19-9.161L839.415,529.019z"/>
	<path d="M848.584,528.046l5.079,5.063l-0.724,0.726l-5.437-5.42l-2.201,0.738l-0.842-0.839l2.182-0.757l-2.893-2.884l0.724-0.726
		l3.26,3.25l2.191-0.747l0.852,0.849L848.584,528.046z"/>
	<path d="M852.352,516.046l6.723,0.027l-1.202,3.142l7.248,2.403l-0.724,0.726l-7.73-2.403l0.961-2.898l-4.327,0.007l8.214,8.188
		l-0.733,0.734l-9.19-9.161l0.453-0.454l0.28-0.281L852.352,516.046z"/>
	<path d="M866.455,520.282l-0.724,0.726l-9.2-9.152l0.733-0.735l0.145,0.145l4.571,1.741l-1.697-4.643l-0.136-0.136l0.733-0.735
		l9.181,9.172l-0.724,0.726l-7.729-7.687l1.688,4.557l-4.562-1.674L866.455,520.282z"/>
	<path d="M861.471,506.902l6.035-1.217l-2.419-2.411l0.724-0.726l3.87,3.857l-6.035,1.217l6.288,6.269l1.197-6.038l3.87,3.857
		l-0.724,0.726l-2.418-2.411l-1.198,6.038L861.471,506.902z"/>
	<path d="M867.172,501.186l6.723,0.027l-1.202,3.142l7.248,2.403l-0.724,0.726l-7.73-2.403l0.961-2.898l-4.327,0.007l8.214,8.188
		l-0.733,0.734l-9.19-9.161l0.453-0.454l0.28-0.281L867.172,501.186z"/>
	<path d="M875.472,487.771l0.726,0.723l-9.152,9.2l-0.735-0.733l0.145-0.145l1.741-4.571l-4.643,1.698l-0.136,0.135l-0.735-0.733
		l9.172-9.181l0.726,0.723l-7.687,7.729l4.557-1.688l-1.674,4.562L875.472,487.771z"/>
	<path d="M870.517,482.849l0.726,0.723l-9.162,9.19l-0.726-0.723l2.69-2.699l-1.484-4.315l-4.107,4.121l-0.726-0.723l9.161-9.19
		l0.726,0.723l-2.15,2.157l1.552,4.248L870.517,482.849z M866.264,487.115l-1.553-4.247l-1.427,1.432l1.475,4.325L866.264,487.115z"
		/>
	<path d="M865.573,477.9l0.726,0.723l-9.152,9.2l-0.735-0.733l0.145-0.145l1.741-4.571l-4.643,1.698l-0.136,0.135l-0.735-0.733
		l9.172-9.181l0.726,0.723l-7.687,7.729l4.557-1.688l-1.674,4.562L865.573,477.9z"/>
	<path d="M853.629,476.117l5.063-5.079l0.726,0.724l-5.42,5.437l0.738,2.201l-0.839,0.842l-0.757-2.182l-2.884,2.892l-0.726-0.723
		l3.25-3.26l-0.747-2.191l0.849-0.851L853.629,476.117z"/>
	<path d="M843.488,474.204l-0.609-0.607l9.162-9.19l0.609,0.607l-2.165,5.306l5.309-2.172l0.591,0.588l-9.152,9.2l-0.6-0.598
		l2.223-5.364l-5.357,2.24L843.488,474.204z M851.078,466.591l-5.873,5.911l4.132-1.707L851.078,466.591z M850.014,471.489
		l-1.684,4.166l5.911-5.931L850.014,471.489z"/>
	<path d="M841.028,453.422l0.726,0.723l-9.152,9.2l-0.735-0.733l0.145-0.145l1.741-4.571l-4.643,1.698l-0.136,0.135l-0.735-0.733
		l9.172-9.181l0.726,0.723l-7.687,7.729l4.557-1.688l-1.674,4.562L841.028,453.422z"/>
	<path d="M826.895,457.654l0.027-6.723l3.142,1.203l2.403-7.248l0.726,0.723l-2.403,7.731l-2.898-0.961l0.007,4.327l8.188-8.213
		l0.734,0.733l-9.161,9.19l-0.454-0.453l-0.281-0.28L826.895,457.654z"/>
	<path d="M820.168,450.946l9.161-9.19l0.726,0.723l-9.161,9.19L820.168,450.946z"/>
	<path d="M816.524,441.042l0.006,3.632l7.84-7.865l0.726,0.723l-7.83,7.855l3.612-0.006l-0.965,0.968l-4.347,0.007l-0.007-4.347
		L816.524,441.042z"/>
	<path d="M805.422,436.239l9.161-9.19l0.726,0.723l-9.161,9.19L805.422,436.239z"/>
	<path d="M804.447,427.069l5.063-5.079l0.726,0.724l-5.42,5.437l0.738,2.201l-0.839,0.842l-0.757-2.182l-2.884,2.893l-0.726-0.723
		l3.25-3.26l-0.747-2.191l0.849-0.851L804.447,427.069z"/>
	<path d="M793.216,424.066l-0.726-0.723l4.581-4.595l-5.576-1.701l0.743-0.706l5.557,1.681l1.446-1.451l-5.557-1.681l0.724-0.726
		l5.556,1.681l1.688-1.693l0.725,0.724L793.216,424.066z"/>
	<path d="M793.906,406.43l-1.124,3.798l3.795-1.136l0.841,0.839l-4.991,1.505l-1.277,4.3l-5.069,1.215l1.199-5.073l4.297-1.292
		l1.489-4.996L793.906,406.43z M791.221,411.795l-3.09,0.932l-0.729,2.898l2.896-0.738L791.221,411.795z"/>
	<path d="M781.607,407.186l1.824,5.426l8.313-8.339l0.726,0.724l-9.161,9.19l-0.726-0.723l0.01-0.01l-1.834-5.416L781.607,407.186z"
		/>
	<path d="M777.279,408.173l-0.335-3.824l2.243-4.765l3.915-3.928l0.629,0.627l-3.8,3.812l-2.089,4.417l0.295,3.264l0.116,0.116
		l8.535-8.562l0.734,0.733l-9.161,9.19L777.279,408.173z"/>
	<path d="M773.395,404.299l-1.217-6.035l-2.411,2.418l-0.726-0.723l3.857-3.87l1.217,6.035l6.269-6.288l-6.038-1.198l3.857-3.87
		l0.726,0.723l-2.411,2.418l6.038,1.198L773.395,404.299z"/>
	<path d="M767.226,391.878l0.006,3.632l7.84-7.865l0.726,0.723l-7.83,7.855l3.612-0.006l-0.965,0.968l-4.347,0.007l-0.007-4.347
		L767.226,391.878z"/>
	<path d="M761.782,387.414l1.824,5.426l1.649-1.654l-1.844-5.445l0.781-0.745l1.824,5.426l5.902-5.921l0.725,0.724l-9.161,9.19
		l-0.726-0.723l0.01-0.01l-1.834-5.416L761.782,387.414z"/>
	<path d="M757.317,381.997l0.006,3.632l7.84-7.865l0.726,0.723l-7.83,7.855l3.612-0.006l-0.965,0.968l-4.347,0.007l-0.007-4.347
		L757.317,381.997z"/>
	<path d="M762.016,374.624l0.726,0.723l-9.152,9.2l-0.735-0.733l0.145-0.145l1.741-4.571l-4.643,1.698l-0.136,0.135l-0.734-0.733
		l9.171-9.181l0.726,0.723l-7.687,7.729l4.557-1.688l-1.674,4.562L762.016,374.624z"/>
	<path d="M743.786,374.771l-0.726-0.723l4.581-4.595l-5.576-1.701l0.743-0.706l5.557,1.681l1.446-1.451l-5.557-1.681l0.724-0.726
		l5.556,1.682l1.688-1.693l0.725,0.724L743.786,374.771z"/>
	<path d="M747.265,359.913l0.726,0.723l-9.152,9.2l-0.735-0.733l0.145-0.145l1.741-4.571l-4.643,1.698l-0.136,0.135l-0.735-0.733
		l9.172-9.181l0.726,0.723l-7.687,7.729l4.557-1.688l-1.674,4.562L747.265,359.913z"/>
	<path d="M732.19,357.902l1.824,5.425l8.313-8.339l0.725,0.724l-9.161,9.19l-0.726-0.723l0.01-0.01l-1.834-5.416L732.19,357.902z"/>
	<path d="M726.397,357.43l9.161-9.19l0.726,0.723l-9.161,9.19L726.397,357.43z"/>
	<path d="M722.764,347.537l0.006,3.632l7.84-7.865l0.726,0.723l-7.831,7.855l3.613-0.006l-0.965,0.968l-4.347,0.007l-0.007-4.347
		L722.764,347.537z"/>
	<path d="M722.619,335.334l0.726,0.723l-9.152,9.2l-0.735-0.733l0.145-0.145l1.741-4.571l-4.643,1.698l-0.136,0.135l-0.734-0.733
		l9.171-9.181l0.726,0.723l-7.687,7.729l4.557-1.688l-1.674,4.562L722.619,335.334z"/>
	<path d="M713.073,335h-0.02l-5.401-1.828l6.394-6.391l0.726,0.725l-5.16,5.177l5.402,1.837l-5.767,5.804l-0.735-0.741L713.073,335z
		"/>
	<path d="M708.121,330h-0.02l-5.402-1.797l6.395-6.375l0.726,0.733l-5.159,5.181l5.401,1.839l-5.767,5.806l-0.735-0.771L708.121,330
		z"/>
	<path d="M707.768,320.523l0.726,0.723l-9.152,9.2l-0.735-0.733l0.145-0.145l1.741-4.571l-4.643,1.698l-0.136,0.135l-0.734-0.733
		l9.171-9.181l0.726,0.723l-7.687,7.729l4.557-1.688l-1.674,4.562L707.768,320.523z"/>
</g>
<rect x="330.5" y="333.5" style="fill:none;stroke:#000000;stroke-width:3;stroke-miterlimit:10;" width="336" height="336"/>
<rect x="330.5" y="333.5" transform="matrix(0.7071 0.7071 -0.7071 0.7071 500.6213 -205.6068)" style="fill:none;stroke:#000000;stroke-width:3;stroke-miterlimit:10;" width="336" height="336"/>
</svg>
